<svg height="629.76001" viewBox="0 0 653.17334 629.76001" width="653.17334" xmlns="http://www.w3.org/2000/svg" xmlns:xlink="http://www.w3.org/1999/xlink"><clipPath id="a"><path d="m3327.35 1215.44-43.69 25.19v59.39l41.91-24.25 891.12 515.77 54.09-31.19z"/></clipPath><clipPath id="b"><path d="m3230.2 2615.26-853.02 492.49-.01 281.43 853.03-492.49v-253.01-.02z"/></clipPath><clipPath id="c"><path d="m2124.32 1125.71-446.81 257.97-.01 1219.71 446.82-257.97z"/></clipPath><clipPath id="d"><path d="m1262.76 2944.7c-49.39 0-89.67 14.82-89.67 14.82l16.41 53.42 212.24 26.85c-3.41-17.13-24.73-72.48-86.1-88.64-17.86-4.7-35.91-6.45-52.88-6.45"/></clipPath><g transform="matrix(.13333333 0 0 -.13333333 0 629.76)"><path d="m717.41 362.871c-956.543 483.82-956.547 1268.249-.008 1752.069 956.538 483.83 2507.398 483.82 3463.948-.01 956.54-483.82 956.54-1268.25 0-1752.071-956.53-483.82-2507.4-483.82-3463.94.012" fill="#f3f2f1"/><path d="m1561.57 1207.81c280.21-161.77 280.2-424.06 0-585.841-280.21-161.778-734.515-161.778-1014.722-.008-280.203 161.777-280.2 424.079.007 585.849 280.204 161.78 734.515 161.78 1014.715 0" fill="#dadbd8"/><path d="m4603.71 1365.88-1178.3 678.24c-19.89 11.48-52.13 11.48-72.03 0l-1744.4-1007.15c-19.89-11.47-19.89-30.1 0-41.579l1178.27-678.243c19.89-11.488 52.14-11.488 72.03 0l1744.43 1007.142c19.9 11.49 19.9 30.11 0 41.59" fill="#dadbd8"/><path d="m3520.8 3775.15 700.21-404.46c49.69-28.68 90.35-99.11 90.35-156.49v-1382.02l59.45-34.32v1421.73c0 81.02-57.4 180.44-127.55 220.94l-725.14 418.86c-70.17 40.5-127.56 7.36-127.56-73.64v-1421.73l59.81-34.55v1405.01c0 44.73 31.69 63.03 70.43 40.67" fill="#dadbd8"/><path d="m2980.72 686.781c0 72.86 51.16 161.457 114.25 197.879 33.12 19.129 62.82 19.879 83.68 5.93l77.06-43.988-163.88-278.43-76.37 43.937.11.192c-21.43 11.597-34.85 37.301-34.85 74.48" fill="#33535f"/><path d="m3174.95 838.578c-63.09-36.43-114.24-125.027-114.24-197.887 0-72.863 51.14-102.39 114.24-65.961 63.11 36.43 114.25 125.02 114.25 197.879 0 72.871-51.14 102.391-114.25 65.969" fill="#273e47"/><path d="m3213.64 728.98c0 28.481-17.32 41.571-38.69 29.239-21.35-12.328-38.67-45.418-38.67-73.899 0-28.48 17.32-41.57 38.67-29.242 21.37 12.332 38.69 45.422 38.69 73.902" fill="#17282f"/><path d="m3041.05 960.148s.05-130.367 62.19-176.5c11.7-8.687 24.15-14.707 31.48-20.808 15.85-13.192 5.35-37.461-13.91-47.781-28-15-180.54 25.601-245.17 149.589z" fill="#ededeb"/><path d="m3100.26 926.141s.05-130.371 62.19-176.493c11.71-8.699 24.15-14.718 31.48-20.82 15.86-13.199 5.35-37.457-13.91-47.777-28-15-180.54 25.597-245.17 149.597z" fill="#fafaf9"/><path d="m3174.95 719.309c-6.05-3.5-10.95-11.989-10.95-18.989 0-6.992 4.9-9.82 10.95-6.32 6.06 3.488 10.97 11.988 10.97 18.98 0 6.989-4.91 9.821-10.97 6.329" fill="#17282f"/><path d="m4221.12 1402.93c0 72.86 51.16 161.46 114.25 197.88 33.13 19.12 62.82 19.88 83.69 5.93l77.05-43.99-163.87-278.44-76.38 43.94.11.19c-21.43 11.61-34.85 37.31-34.85 74.49" fill="#33535f"/><path d="m4415.35 1554.72c-63.09-36.43-114.24-125.02-114.24-197.88s51.15-102.4 114.24-65.96c63.11 36.43 114.26 125.02 114.26 197.88s-51.15 102.39-114.26 65.96" fill="#273e47"/><path d="m4454.04 1445.13c0 28.48-17.32 41.57-38.69 29.24-21.35-12.33-38.67-45.42-38.67-73.9s17.32-41.58 38.67-29.24c21.37 12.33 38.69 45.42 38.69 73.9" fill="#17282f"/><path d="m4281.45 1676.3s.05-130.37 62.19-176.5c11.71-8.69 24.15-14.71 31.48-20.81 15.85-13.2 5.35-37.46-13.91-47.78-28-15.01-180.54 25.6-245.17 149.59z" fill="#ededeb"/><path d="m4340.66 1642.29s.06-130.37 62.19-176.5c11.71-8.69 24.16-14.71 31.48-20.81 15.86-13.2 5.35-37.46-13.91-47.78-28-15.01-180.54 25.6-245.17 149.59z" fill="#fafaf9"/><path d="m4415.35 1435.46c-6.05-3.5-10.95-12-10.95-18.99s4.9-9.82 10.95-6.33c6.06 3.49 10.97 12 10.97 18.99s-4.91 9.82-10.97 6.33" fill="#17282f"/><path d="m4430.64 1763.33-1099.93 635.23-1797.12-1037.58 1099.91-635.242z" fill="#33535f"/><path d="m4430.64 1763.33-.01-69.1-1797.13-1037.57v69.078z" fill="#273e47"/><path d="m1533.59 1360.98-.01-69.09 1099.92-635.23v69.078z" fill="#17282f"/><g clip-path="url(#a)"><path d="m3283.66 1215.44h987.121v576.098h-987.121z" fill="#2c4954"/></g><path d="m4238.67 2408.24-863.99 499.7-913.1-528.49 863.99-499.7z" fill="#26b6a6"/><path d="m3325.57 1879.75-383.56 221.84-208.38 120.52v66.24l147.51-85.35-30.02-17.37.07-.04-26.89-15.56 59.14-34.15 56.85 32.9 401.4-232.25 838.24 484.47-33.92 19.62v21.21l92.66-53.59-913.1-528.48z" fill="#a1dfd6"/><path d="m3325.57 1275.78 913.1 528.49v603.98l-913.1-528.49z" fill="#26b6a6"/><path d="m3325.57 1275.77v603.99l913.1 528.49v-603.98l-913.1-528.49" fill="#87d6cb"/><path d="m3442.46 1539.42h11.62v44.18l-29.94-17.59 14.83-2.64zm-25.73 19.74v-59.25c0-7.23 2.12-12.62 5.78-14.74 3.65-2.09 7.92-.48 10.88 1.2 11.21 6.5 20.69 24.69 20.69 39.76v5.24h-18.57l-3.67 25.09zm9.62-83.04c-2.81 0-5.45.69-7.86 2.08-6.22 3.6-9.81 11.52-9.81 21.71v63.98.13 4.74l3.27-.59 50.17 29.47v-71.51c0-18.19-10.85-38.71-24.7-46.72-3.77-2.18-7.55-3.29-11.07-3.29" fill="#33535f"/><path d="m3435.4 1425.11c-2.22 0-4.02 1.8-4.02 4.02v53.76c0 2.22 1.8 4.03 4.02 4.03 2.23 0 4.03-1.81 4.03-4.03v-53.76c0-2.22-1.8-4.02-4.03-4.02" fill="#33535f"/><path d="m3412.03 1411.63c-1.38 0-2.74.72-3.47 2.01-1.12 1.93-.46 4.38 1.46 5.5l46.74 26.97c1.89 1.15 4.38.5 5.49-1.47 1.11-1.93.46-4.38-1.47-5.49l-46.73-26.98z" fill="#33535f"/><path d="m3578.53 1504.21c-1.57 0-3.06.37-4.41 1.13-3.05 1.76-4.81 5.28-4.81 9.68v11.02c0 2.22 1.8 4.03 4.02 4.03s4.03-1.81 4.03-4.03v-11.02c0-1.65.46-2.51.77-2.7.31-.17 1.26-.11 2.62.69 3.54 2.09 7.49 10.08 7.49 18.19v71.49c0 2.22 1.79 4.02 4.02 4.02 2.22 0 4.02-1.8 4.02-4.02v-71.49c0-10.48-4.9-21.27-11.42-25.11-2.14-1.25-4.3-1.88-6.33-1.88" fill="#33535f"/><path d="m3611.7 1662.1c-6.07 0-12.91-2.1-20.08-6.24-24.1-13.9-44.07-46.32-47.05-74.99l90.44 52.23c-.47 12.59-4.84 21.85-12.43 26.23-3.2 1.85-6.87 2.77-10.88 2.77zm-75.54-95.4v6.98c0 32.78 23.06 72.78 51.44 89.16 14.52 8.36 28.4 9.6 39 3.46 10.65-6.14 16.5-18.75 16.5-35.49v-2.33z" fill="#33535f"/><path d="m3723.01 1586.59c-2.22 0-4.02 1.81-4.02 4.03v136.92c0 2.22 1.8 4.02 4.02 4.02 2.23 0 4.02-1.8 4.02-4.02v-136.92c0-2.22-1.79-4.03-4.02-4.03" fill="#33535f"/><path d="m3711.26 1696.31-1.6.33c-2.05.89-2.97 3.25-2.09 5.3l14.32 33.07 15.96-18.45c1.47-1.67 1.28-4.2-.4-5.66-1.71-1.45-4.22-1.27-5.68.41l-7.58 8.76-9.25-21.34c-.64-1.51-2.13-2.42-3.68-2.42" fill="#33535f"/><path d="m3760.24 1607.8c-2.22 0-4.03 1.81-4.03 4.03v136.93c0 2.22 1.81 4.02 4.03 4.02 2.21 0 4.02-1.8 4.02-4.02v-136.93c0-2.22-1.81-4.03-4.02-4.03" fill="#33535f"/><path d="m3748.46 1717.53-1.59.34c-2.06.88-2.98 3.25-2.1 5.29l14.32 33.07 15.96-18.44c1.48-1.68 1.28-4.22-.39-5.67-1.72-1.44-4.24-1.28-5.68.41l-7.59 8.76-9.24-21.34c-.65-1.51-2.14-2.42-3.69-2.42" fill="#33535f"/><path d="m3325.57 1275.77-863.99 499.7v603.98l863.99-499.7z" fill="#26b6a6"/><path d="m3325.57 1275.77-41.91 24.25v453.42l-392.34-226.52 392.34 226.52-446.82 257.96-103.21-59.59v270.3l591.94-342.36z" fill="#70cec3"/><path d="m2824.3 2078.26 59.14-34.14v91.77l-59.14 34.14z" fill="#273e47"/><path d="m2883.44 2135.88 913.11 528.48-59.13 34.15-913.12-528.48z" fill="#33535f"/><path d="m2851.12 2185.63 59.09-34.18 32.99 19.01-59.16 34.22z" fill="#273e47"/><path d="m3798.86 2587.35-241.89-139.35c-4.38-2.52-3.2-7.31 2.64-10.67l273.08-157.67c5.83-3.37 14.11-4.05 18.48-1.52l241.95 139.4c4.37 2.53 3.19 7.31-2.64 10.67l-273.13 157.62c-5.83 3.37-14.11 4.05-18.49 1.52" fill="#fafaf9"/><path d="m3921.03 2350.22c1.72 0 3.41.9 4.32 2.5 1.39 2.39.57 5.45-1.82 6.83l-226.71 130.89c-2.38 1.39-5.45.56-6.83-1.83s-.56-5.45 1.83-6.83l226.71-130.88z" fill="#dadbd8"/><path d="m3895.85 2335.81c1.72 0 3.41.9 4.33 2.5 1.39 2.39.57 5.45-1.83 6.82l-226.71 130.89c-2.37 1.39-5.45.58-6.82-1.82-1.39-2.4-.57-5.45 1.82-6.83l226.71-130.89z" fill="#dadbd8"/><path d="m3870.69 2321.38c1.72 0 3.41.9 4.32 2.5 1.39 2.4.57 5.45-1.82 6.83l-226.71 130.89c-2.37 1.39-5.45.56-6.83-1.83-1.39-2.39-.56-5.45 1.83-6.82l226.71-130.89z" fill="#dadbd8"/><path d="m3845.51 2306.96c1.72 0 3.41.9 4.33 2.5 1.38 2.39.56 5.45-1.83 6.83l-226.71 130.88c-2.38 1.4-5.45.57-6.82-1.82-1.39-2.39-.57-5.45 1.82-6.83l226.71-130.89z" fill="#dadbd8"/><g fill="#33535f"><path d="m4070.25 2423.85-8.82 5.09-103.28-59.63 8.82-5.08z"/><path d="m4034.36 2444.58-15.3 8.72-103.29-59.64 15.31-8.71z"/><path d="m3998.47 2465.3-8.82 5.1-103.27-59.63 8.82-5.09z"/><path d="m3971.6 2481.04-17.84 10.08-103.27-59.62 17.82-10.09z"/><path d="m3926.7 2506.76-8.83 5.09-103.27-59.63 8.82-5.09z"/><path d="m3901.07 2521.8-19.08 10.77-103.28-59.62 19.09-10.77z"/><path d="m3854.93 2548.22-8.82 5.08-103.27-59.63 8.81-5.08z"/><path d="m3834.56 2560.1-4.41 2.54-103.27-59.63 4.4-2.54z"/><path d="m3870.77 2538.47-4.4 2.55-103.28-59.64 4.41-2.54z"/><path d="m3943.47 2496.96-4.4 2.54-103.28-59.63 4.4-2.54z"/><path d="m3982.97 2474.05-4.4 2.54-103.27-59.63 4.4-2.54z"/><path d="m4010.95 2457.36-4.4 2.54-103.28-59.63 4.41-2.54z"/><path d="m4050.26 2435.52-4.41 2.54-103.27-59.63 4.41-2.53z"/><path d="m3819.04 2568.94-8.82 5.09-103.27-59.63 8.82-5.09z"/></g><path d="m3958.13 1864.33-.01-151.48c0-5.84 4.1-8.2 9.15-5.28l236.49 136.53c5.06 2.91 9.15 10.01 9.15 15.84l-.01 151.58c0 5.83-4.09 8.19-9.15 5.28l-236.47-136.62c-5.05-2.92-9.14-10.02-9.15-15.85" fill="#fafaf9"/><path d="m4198.27 1995.1-7.64-4.41v-137.7l7.64 4.41z" fill="#33535f"/><path d="m4167.18 1977.17-13.16-7.75.01-137.7 13.15 7.74z" fill="#33535f"/><path d="m4136.1 1959.23-7.64-4.42v-137.7l7.64 4.41z" fill="#33535f"/><path d="m4112.66 1945.94-15.28-9.06.01-137.7 15.27 9.06z" fill="#33535f"/><path d="m4073.93 1923.35-7.64-4.41.01-137.7 7.63 4.41z" fill="#33535f"/><path d="m4051.55 1910.71-16.34-9.71v-137.7l16.34 9.71z" fill="#33535f"/><path d="m4011.76 1887.47-7.64-4.41.01-137.7 7.63 4.41z" fill="#33535f"/><path d="m3994.03 1877.38-3.82-2.2.01-137.71 3.81 2.21z" fill="#33535f"/><path d="m4025.93 1894.97-3.82-2.2.01-137.7 3.81 2.2z" fill="#33535f"/><path d="m4088.55 1931.65-3.82-2.2v-137.7l3.82 2.19z" fill="#33535f"/><path d="m4122.84 1951.33-3.82-2.21.01-137.7 3.81 2.2z" fill="#33535f"/><path d="m4147.46 1964.93-3.8-2.21v-137.7l3.81 2.2z" fill="#33535f"/><path d="m4180.86 1985.2-3.82-2.2.01-137.71 3.81 2.21z" fill="#33535f"/><path d="m3980.68 1869.53-7.64-4.41v-137.7l7.64 4.41z" fill="#33535f"/><path d="m3341.69 1936.53-401.4 232.25 33.41 19.33 368.14-213v426.08h.01l-.01-426.09 804.17 465.16v.36l33.92-19.62zm-460.55 266.47-147.51 85.35v38.67l180.98-104.72-30.51-17.66-.06.04zm460.7 266.57v109.52l-52.85 30.58 52.86-30.59 282.46 163.39-282.46-163.39v-109.51z" fill="#8dd8c7"/><path d="m2940.29 2168.78h-.01l2.92 1.68-59.1 34.18 30.51 17.66 59.09-34.19zm401.55 232.41v68.38h.01v-68.38z" fill="#2c4954"/><path d="m2940.28 2168.78-59.14 34.22 2.9 1.68.06-.04 59.1-34.18z" fill="#21363e"/><path d="m2431.87 3105.59 804.16 465.15 909.98-526.5-804.16-465.16z" fill="#26b6a6"/><path d="m3341.85 2579.08-52.86 30.59 383.04 221.15 52.11-30.16 59.14 34.16-52.11 30.14 240.74 138.99-34.23 19.76 23.69 13.68v113.68l184.64-106.83z" fill="#4ac2b6"/><path d="m2817.33 3270.37 241.88-139.35c4.38-2.53 3.2-7.31-2.63-10.68l-273.08-157.66c-5.84-3.37-14.11-4.05-18.49-1.53l-241.95 139.41c-4.38 2.53-3.19 7.3 2.65 10.67l273.12 157.61c5.84 3.37 14.11 4.05 18.5 1.53" fill="#fafaf9"/><path d="m2695.15 3033.24c-1.72 0-3.41.9-4.33 2.5-1.38 2.39-.56 5.45 1.83 6.83l226.71 130.88c2.38 1.4 5.45.57 6.82-1.82 1.39-2.39.57-5.45-1.82-6.83l-226.71-130.89z" fill="#dadbd8"/><path d="m2720.33 3018.83c-1.72 0-3.41.89-4.33 2.49-1.39 2.4-.57 5.45 1.83 6.83l226.7 130.89c2.38 1.39 5.45.58 6.83-1.83 1.39-2.39.57-5.44-1.83-6.82l-226.7-130.89z" fill="#dadbd8"/><path d="m2745.49 3004.4c-1.72 0-3.41.9-4.32 2.5-1.39 2.39-.57 5.45 1.82 6.83l226.71 130.89c2.37 1.38 5.45.56 6.83-1.83s.56-5.45-1.83-6.83l-226.71-130.88z" fill="#dadbd8"/><path d="m2770.67 2989.98c-1.72 0-3.41.9-4.33 2.5-1.39 2.39-.56 5.45 1.83 6.82l226.71 130.89c2.38 1.4 5.45.57 6.82-1.82 1.39-2.4.57-5.45-1.82-6.83l-226.71-130.89z" fill="#dadbd8"/><path d="m2545.94 3106.87 8.82 5.09 103.27-59.63-8.82-5.09z" fill="#33535f"/><path d="m2581.83 3127.59 15.3 8.73 103.27-59.64-15.3-8.71z" fill="#33535f"/><path d="m2617.72 3148.32 8.82 5.1 103.27-59.63-8.82-5.09z" fill="#33535f"/><path d="m2644.59 3164.05 17.83 10.09 103.27-59.63-17.83-10.08z" fill="#33535f"/><path d="m2689.49 3189.78 8.81 5.09 103.28-59.63-8.81-5.09z" fill="#33535f"/><path d="m2715.11 3204.82 19.08 10.77 103.27-59.63-19.07-10.76z" fill="#33535f"/><path d="m2761.26 3231.23 8.82 5.09 103.27-59.63-8.82-5.09z" fill="#33535f"/><path d="m2781.62 3243.12 4.42 2.54 103.27-59.63-4.41-2.54z" fill="#33535f"/><path d="m2745.4 3221.49 4.42 2.55 103.27-59.64-4.41-2.54z" fill="#33535f"/><path d="m2672.72 3179.97 4.4 2.55 103.27-59.63-4.4-2.55z" fill="#33535f"/><path d="m2633.21 3157.06 4.41 2.55 103.27-59.63-4.41-2.55z" fill="#33535f"/><path d="m2605.23 3140.37 4.41 2.55 103.27-59.63-4.4-2.55z" fill="#33535f"/><path d="m2565.92 3118.54 4.42 2.55 103.27-59.64-4.42-2.54z" fill="#33535f"/><path d="m2797.15 3251.96 8.81 5.09 103.28-59.63-8.82-5.09z" fill="#33535f"/><path d="m3341.84 1975.11-909.98 526.51v603.98l909.98-526.51z" fill="#26b6a6"/><path d="m3341.84 1975.1 804.17 465.16v603.98l-804.16-465.16z" fill="#26b6a6"/><path d="m3341.84 1975.1.01 603.98 804.16 465.16v-603.98z" fill="#1db3a0"/><path d="m3783.27 2743.04-59.13-34.14v91.77l59.13 34.15z" fill="#273e47"/><path d="m3724.14 2800.66-909.98 526.51 59.13 34.15 909.99-526.5z" fill="#33535f"/><path d="m3007.01 2335.8 12.66 2.25-25.58 15.03v-37.76h9.92zm6.08-5.92-3.14-21.44h-15.86v-4.47c0-12.88 8.09-28.43 17.68-33.98 2.52-1.44 6.17-2.82 9.29-1.02 3.13 1.8 4.95 6.41 4.95 12.59v50.63zm-4.77-65.84c-11.83 6.84-21.11 24.38-21.11 39.93v61.11l42.88-25.19 2.79.51v-4.05-.11-54.68c0-8.71-3.05-15.48-8.37-18.56-2.07-1.18-4.32-1.77-6.72-1.77-3.01 0-6.23.95-9.47 2.81" fill="#33535f"/><path d="m3010.05 2217.63c1.9 0 3.44 1.54 3.44 3.44v45.94c0 1.9-1.54 3.44-3.44 3.44s-3.44-1.54-3.44-3.44v-45.94c0-1.9 1.54-3.44 3.44-3.44" fill="#33535f"/><path d="m3030.02 2206.11c1.18 0 2.35.62 2.97 1.72.95 1.65.39 3.75-1.25 4.7l-39.94 23.05c-1.62.98-3.75.43-4.7-1.26-.94-1.64-.4-3.74 1.25-4.69l39.95-23.05z" fill="#33535f"/><path d="m3149.7 2135.1c1.35 0 2.62.33 3.76.98 2.62 1.5 4.12 4.51 4.12 8.27v9.42c0 1.9-1.54 3.44-3.44 3.44s-3.43-1.54-3.43-3.44v-9.42c0-1.41-.4-2.15-.67-2.31-.27-.14-1.07-.09-2.23.59-3.03 1.79-6.4 8.61-6.4 15.55v61.09c0 1.9-1.54 3.44-3.44 3.44s-3.45-1.54-3.45-3.44v-61.09c0-8.96 4.2-18.19 9.77-21.46 1.83-1.08 3.67-1.62 5.41-1.62" fill="#33535f"/><path d="m3112.05 2267.68c-6.49-3.74-10.23-11.66-10.62-22.41l77.28-44.64c-2.53 24.5-19.61 52.2-40.2 64.08-6.13 3.54-11.97 5.34-17.17 5.34-3.42 0-6.55-.79-9.29-2.37zm-17.53-26.36v1.98c0 14.31 5 25.09 14.09 30.33 9.06 5.25 20.92 4.2 33.34-2.95 24.24-14 43.97-48.18 43.97-76.2v-5.96z" fill="#33535f"/><path d="m3287.93 2057.98c1.91 0 3.45 1.54 3.45 3.44v117.01c0 1.9-1.54 3.45-3.45 3.45-1.89 0-3.43-1.55-3.43-3.45v-117.01c0-1.9 1.54-3.44 3.43-3.44" fill="#33535f"/><path d="m3297.98 2151.75 1.37.28c1.76.76 2.54 2.78 1.79 4.52l-12.24 28.27-13.64-15.77c-1.26-1.43-1.1-3.59.34-4.83 1.46-1.24 3.61-1.09 4.85.34l6.49 7.49 7.9-18.23c.54-1.29 1.82-2.07 3.14-2.07" fill="#33535f"/><path d="m3256.13 2076.11c1.89 0 3.43 1.53 3.43 3.43v117.03c0 1.9-1.54 3.44-3.43 3.44-1.91 0-3.44-1.54-3.44-3.44v-117.03c0-1.9 1.53-3.43 3.44-3.43" fill="#33535f"/><path d="m3266.19 2169.88 1.36.29c1.76.75 2.54 2.78 1.8 4.52l-12.24 28.27-13.65-15.77c-1.25-1.43-1.09-3.59.34-4.84 1.47-1.23 3.63-1.09 4.86.35l6.48 7.49 7.9-18.24c.56-1.29 1.83-2.07 3.15-2.07" fill="#33535f"/><path d="m2709.76 2556.31.01-151.48c0-5.84-4.09-8.21-9.15-5.29l-236.5 136.54c-5.04 2.91-9.14 10.01-9.14 15.84l.01 151.57c0 5.84 4.1 8.2 9.14 5.28l236.48-136.61c5.06-2.92 9.15-10.02 9.15-15.85" fill="#fafaf9"/><path d="m2469.62 2687.08 7.64-4.41v-137.7l-7.64 4.4z" fill="#33535f"/><path d="m2500.71 2669.14 13.16-7.74v-137.7l-13.16 7.74z" fill="#33535f"/><path d="m2531.79 2651.2 7.65-4.41-.01-137.7-7.64 4.41z" fill="#33535f"/><path d="m2555.23 2637.92 15.29-9.07-.01-137.7-15.28 9.06z" fill="#33535f"/><path d="m2593.96 2615.33 7.64-4.41-.01-137.71-7.63 4.41z" fill="#33535f"/><path d="m2616.34 2602.69 16.34-9.71v-137.7l-16.34 9.71z" fill="#33535f"/><path d="m2656.14 2579.45 7.62-4.41v-137.7l-7.63 4.41z" fill="#33535f"/><path d="m2673.86 2569.36 3.82-2.21v-137.7l-3.82 2.21z" fill="#33535f"/><path d="m2641.96 2586.95 3.81-2.21v-137.7l-3.81 2.21z" fill="#33535f"/><path d="m2579.35 2623.62 3.82-2.2-.01-137.7-3.81 2.2z" fill="#33535f"/><path d="m2545.05 2643.3 3.82-2.2v-137.7l-3.82 2.2z" fill="#33535f"/><path d="m2520.42 2656.91 3.82-2.21v-137.7l-3.82 2.2z" fill="#33535f"/><path d="m2487.02 2677.18 3.82-2.21v-137.7l-3.82 2.21z" fill="#33535f"/><path d="m2687.22 2561.51 7.63-4.41v-137.7l-7.64 4.41z" fill="#33535f"/><path d="m3288.99 2609.67-34.19 19.78z" fill="#7bceb7"/><path d="m3288.99 2609.67-34.19 19.78 383.03 221.15 34.2-19.78z" fill="#41bfad"/><path d="m3288.97 2609.66-34.2 19.78.03.01 34.19-19.78z" fill="#1db3a0"/><path d="m3731.17 2864.96-34.19 19.79 240.7 138.96 34.23-19.76z" fill="#41bfad"/><path d="m3672.03 2830.82-34.2 19.78 59.15 34.15 34.19-19.79z" fill="#2c4954"/><path d="m3230.21 2643.68h-.01z" fill="#7bceb7"/><path d="m3230.21 2643.68h-.01v253.01l-6.16 3.55 6.17-3.56 164.17 94.78-164.17-94.78z" fill="#41bfad"/><path d="m3230.21 2643.65-.01.01v.02h.01z" fill="#1db3a0"/><path d="m2377.18 3389.17 731.16 422.14 853.03-492.49-731.16-422.14z" fill="#26b6a6"/><path d="m3230.21 2896.68-6.17 3.56-846.87 488.94 731.17 422.13 853.03-492.49-507.85-293.21-59.14-34.15z" fill="#1db3a0"/><path d="m2762.63 3553.95 241.89-139.35c4.38-2.52 3.2-7.3-2.64-10.67l-273.08-157.67c-5.83-3.37-14.11-4.05-18.48-1.53l-241.95 139.41c-4.37 2.53-3.19 7.31 2.64 10.68l273.13 157.61c5.83 3.36 14.12 4.05 18.49 1.52" fill="#fafaf9"/><path d="m2640.46 3316.82c-1.72 0-3.41.9-4.32 2.5-1.39 2.4-.57 5.45 1.82 6.83l226.71 130.89c2.38 1.39 5.45.56 6.83-1.83s.56-5.45-1.83-6.82l-226.71-130.89z" fill="#dadbd8"/><path d="m2665.64 3302.41c-1.72 0-3.41.9-4.33 2.5-1.38 2.39-.56 5.45 1.83 6.83l226.71 130.88c2.37 1.39 5.45.58 6.82-1.82 1.39-2.39.57-5.45-1.82-6.83l-226.71-130.89z" fill="#dadbd8"/><path d="m2690.8 3287.99c-1.71 0-3.4.89-4.32 2.5-1.39 2.39-.57 5.44 1.82 6.82l226.71 130.89c2.38 1.39 5.45.57 6.83-1.83 1.39-2.39.57-5.45-1.83-6.82l-226.71-130.89z" fill="#dadbd8"/><path d="m2715.98 3273.56c-1.72 0-3.41.9-4.33 2.5-1.38 2.39-.56 5.45 1.83 6.83l226.71 130.89c2.38 1.39 5.45.56 6.83-1.83s.56-5.45-1.83-6.83l-226.71-130.88z" fill="#dadbd8"/><path d="m2491.25 3390.46 8.81 5.08 103.28-59.62-8.82-5.09z" fill="#33535f"/><path d="m2527.13 3411.18 15.3 8.71 103.29-59.62-15.31-8.72z" fill="#33535f"/><path d="m2563.02 3431.91 8.82 5.09 103.27-59.63-8.82-5.09z" fill="#33535f"/><path d="m2589.9 3447.64 17.83 10.09 103.27-59.64-17.82-10.08z" fill="#33535f"/><path d="m2634.79 3473.36 8.83 5.09 103.27-59.63-8.82-5.09z" fill="#33535f"/><path d="m2660.42 3488.41 19.08 10.77 103.28-59.63-19.09-10.77z" fill="#33535f"/><path d="m2706.57 3514.82 8.81 5.08 103.28-59.62-8.82-5.09z" fill="#33535f"/><path d="m2726.94 3526.7 4.4 2.55 103.27-59.64-4.4-2.54z" fill="#33535f"/><path d="m2690.72 3505.07 4.4 2.54 103.28-59.62-4.41-2.55z" fill="#33535f"/><path d="m2618.02 3463.56 4.41 2.54 103.27-59.63-4.4-2.54z" fill="#33535f"/><path d="m2578.52 3440.64 4.4 2.55 103.27-59.63-4.4-2.55z" fill="#33535f"/><path d="m2550.54 3423.95 4.4 2.55 103.28-59.63-4.41-2.55z" fill="#33535f"/><path d="m2511.23 3402.12 4.41 2.55 103.27-59.63-4.4-2.55z" fill="#33535f"/><path d="m2742.45 3535.54 8.82 5.09 103.27-59.63-8.81-5.09z" fill="#33535f"/><path d="m3230.2 2615.26-853.02 492.49-.01 281.43 853.03-492.49z" fill="#26b6a6"/><g clip-path="url(#b)"><path d="m2377.17 2615.26h853.027v773.918h-853.027z" fill="#14b099"/></g><path d="m3230.21 2615.26 731.16 422.13v281.43l-731.16-422.14z" fill="#26b6a6"/><path d="m3230.21 2615.26v281.42l731.16 422.14v-281.43l-264.39-152.64-59.15-34.15-383.03-221.15-.03-.01z" fill="#06ab91"/><path d="m3671.63 3060.64-59.13-34.14v91.77l59.13 34.14z" fill="#273e47"/><path d="m3612.5 3118.26-853.03 492.49 59.14 34.15 853.02-492.49z" fill="#33535f"/><path d="m2895.36 2975.95 12.67 2.25-25.58 15.03v-37.75h9.93zm6.1-5.91-3.14-21.44h-15.87v-4.48c0-12.88 8.1-28.43 17.68-33.98 2.53-1.44 6.18-2.81 9.3-1.02 3.13 1.8 4.94 6.41 4.94 12.59v50.64zm-4.77-65.85c-11.83 6.84-21.12 24.38-21.12 39.93v61.11l42.88-25.18 2.8.5v-4.05-.11-54.68c0-8.71-3.06-15.48-8.39-18.56-2.06-1.18-4.31-1.77-6.71-1.77-3.01 0-6.23.95-9.46 2.81" fill="#33535f"/><path d="m2898.41 2857.78c1.91 0 3.44 1.54 3.44 3.44v45.95c0 1.89-1.53 3.43-3.44 3.43-1.89 0-3.44-1.54-3.44-3.43v-45.95c0-1.9 1.55-3.44 3.44-3.44" fill="#33535f"/><path d="m2918.38 2846.26c1.18 0 2.36.62 2.98 1.73.95 1.64.39 3.74-1.26 4.69l-39.94 23.05c-1.61.99-3.74.43-4.69-1.26-.95-1.64-.4-3.74 1.25-4.69l39.94-23.05z" fill="#33535f"/><path d="m3038.06 2775.26c1.35 0 2.62.32 3.77.97 2.62 1.5 4.12 4.51 4.12 8.27v9.42c0 1.9-1.54 3.44-3.45 3.44-1.89 0-3.43-1.54-3.43-3.44v-9.42c0-1.41-.39-2.15-.66-2.31-.27-.14-1.08-.09-2.24.59-3.03 1.79-6.4 8.61-6.4 15.55v61.1c0 1.9-1.53 3.43-3.44 3.43-1.89 0-3.44-1.53-3.44-3.43v-61.1c0-8.96 4.19-18.19 9.77-21.46 1.83-1.08 3.67-1.61 5.4-1.61" fill="#33535f"/><path d="m3000.41 2907.83c-6.48-3.74-10.22-11.66-10.62-22.41l77.29-44.64c-2.54 24.5-19.62 52.2-40.21 64.09-6.12 3.54-11.96 5.33-17.16 5.33-3.42 0-6.55-.78-9.3-2.37zm-17.54-26.36v1.98c0 14.32 5 25.09 14.11 30.34 9.06 5.25 20.91 4.19 33.33-2.96 24.25-14 43.97-48.18 43.97-76.19v-5.97z" fill="#33535f"/><path d="m3176.3 2698.13c1.9 0 3.44 1.54 3.44 3.44v117.02c0 1.9-1.54 3.44-3.44 3.44-1.89 0-3.44-1.54-3.44-3.44v-117.02c0-1.9 1.55-3.44 3.44-3.44" fill="#33535f"/><path d="m3186.35 2791.9 1.36.28c1.76.76 2.55 2.78 1.8 4.53l-12.24 28.26-13.64-15.76c-1.26-1.43-1.11-3.6.33-4.84 1.47-1.24 3.62-1.09 4.85.34l6.49 7.49 7.9-18.23c.55-1.29 1.82-2.07 3.15-2.07" fill="#33535f"/><path d="m3144.5 2716.26c1.89 0 3.43 1.53 3.43 3.43v117.03c0 1.9-1.54 3.44-3.43 3.44-1.91 0-3.45-1.54-3.45-3.44v-117.03c0-1.9 1.54-3.43 3.45-3.43" fill="#33535f"/><path d="m3154.55 2810.03 1.37.29c1.75.75 2.54 2.78 1.79 4.53l-12.24 28.26-13.64-15.76c-1.26-1.44-1.09-3.6.34-4.85 1.47-1.23 3.61-1.09 4.85.35l6.49 7.49 7.9-18.24c.55-1.29 1.83-2.07 3.14-2.07" fill="#33535f"/><path d="m2655.07 3162.44.01-151.48c0-5.84-4.09-8.2-9.15-5.28l-236.49 136.53c-5.05 2.92-9.15 10.01-9.15 15.85l.01 151.57c0 5.84 4.1 8.2 9.15 5.28l236.47-136.62c5.06-2.92 9.15-10.02 9.15-15.85" fill="#fafaf9"/><path d="m2414.94 3293.21 7.64-4.41-.01-137.7-7.63 4.41z" fill="#33535f"/><path d="m2446.02 3275.28 13.17-7.74-.01-137.71-13.16 7.75z" fill="#33535f"/><path d="m2477.1 3257.34 7.65-4.41-.01-137.7-7.64 4.41z" fill="#33535f"/><path d="m2500.54 3244.05 15.29-9.06-.01-137.7-15.28 9.06z" fill="#33535f"/><path d="m2539.27 3221.46 7.65-4.41-.01-137.7-7.64 4.41z" fill="#33535f"/><path d="m2561.65 3208.83 16.34-9.72v-137.7l-16.34 9.71z" fill="#33535f"/><path d="m2601.45 3185.59 7.63-4.42v-137.7l-7.64 4.41z" fill="#33535f"/><path d="m2619.17 3175.5 3.82-2.21v-137.7l-3.82 2.2z" fill="#33535f"/><path d="m2587.27 3193.09 3.82-2.21v-137.7l-3.82 2.2z" fill="#33535f"/><path d="m2524.66 3229.76 3.82-2.2-.01-137.7-3.81 2.2z" fill="#33535f"/><path d="m2490.36 3249.44 3.82-2.21v-137.7l-3.82 2.21z" fill="#33535f"/><path d="m2465.74 3263.04 3.81-2.21v-137.7l-3.81 2.21z" fill="#33535f"/><path d="m2432.34 3283.32 3.82-2.21v-137.7l-3.82 2.2z" fill="#33535f"/><path d="m2632.53 3167.65 7.63-4.41v-137.7l-7.64 4.4z" fill="#33535f"/><path d="m2116.58 1082.92-500.08 289.07 61.01 35.03v-23.34l446.81-257.97v537.81h.01v-537.81l103.2 59.58v-38.39z" fill="#2c4954"/><path d="m1677.51 2603.38 609.3 351.78 446.82-257.97-609.3-351.78z" fill="#26b6a6"/><path d="m2124.33 2345.41-.01.01-446.82 257.97 609.31 351.77 446.82-257.97-150.46-86.87-3.82-2.2-8.83-5.1-15.29-8.83-6.36-3.67-3.82-2.2-5.62-3.25-7.64-4.41-7.55-4.36-3.82-2.2-6.55-3.78-13.16-7.6-9.87-5.7-3.82-2.2-9.76-5.64-3.65-2.11-13.39-7.73-28.36-16.37z" fill="#1db3a0"/><path d="m2280.88 2904.62-187.02-107.74c-3.38-1.96-2.47-5.65 2.05-8.26l211.12-121.89c4.51-2.61 10.91-3.13 14.29-1.18l187.06 107.78c3.38 1.96 2.47 5.65-2.04 8.25l-211.17 121.85c-4.51 2.61-10.91 3.14-14.29 1.19" fill="#fafaf9"/><path d="m2375.34 2721.28c1.32 0 2.63.69 3.34 1.93 1.07 1.86.44 4.22-1.41 5.28l-175.28 101.19c-1.84 1.09-4.21.44-5.28-1.41s-.43-4.21 1.41-5.27l175.28-101.2z" fill="#dadbd8"/><path d="m2355.87 2710.14c1.33 0 2.63.69 3.35 1.93 1.07 1.85.43 4.21-1.42 5.28l-175.27 101.19c-1.84 1.08-4.22.45-5.28-1.41-1.07-1.85-.44-4.21 1.41-5.28l175.28-101.19z" fill="#dadbd8"/><path d="m2336.41 2698.99c1.33 0 2.64.69 3.35 1.93 1.07 1.85.44 4.21-1.41 5.28l-175.28 101.19c-1.84 1.07-4.21.44-5.28-1.41s-.44-4.22 1.41-5.28l175.28-101.19z" fill="#dadbd8"/><path d="m2316.95 2687.83c1.33 0 2.63.7 3.35 1.94 1.07 1.85.43 4.21-1.42 5.28l-175.27 101.19c-1.85 1.08-4.22.44-5.28-1.41-1.08-1.85-.44-4.22 1.41-5.28l175.28-101.19z" fill="#dadbd8"/><path d="m2490.7 2778.21-6.82 3.94-79.85-46.11 6.82-3.93z" fill="#33535f"/><path d="m2462.95 2794.23-11.83 6.74-79.85-46.1 11.83-6.74z" fill="#33535f"/><path d="m2435.2 2810.26-6.82 3.94-79.84-46.11 6.82-3.93z" fill="#33535f"/><path d="m2414.42 2822.42-13.78 7.8-79.85-46.1 13.79-7.8z" fill="#33535f"/><path d="m2379.72 2842.31-6.83 3.94-79.84-46.11 6.82-3.94z" fill="#33535f"/><path d="m2359.9 2853.94-14.75 8.33-79.84-46.11 14.74-8.32z" fill="#33535f"/><path d="m2324.22 2874.36-6.81 3.93-79.85-46.1 6.82-3.94z" fill="#33535f"/><path d="m2308.48 2883.55-3.41 1.96-79.85-46.1 3.41-1.97z" fill="#33535f"/><path d="m2336.48 2866.82-3.41 1.97-79.84-46.1 3.4-1.97z" fill="#33535f"/><path d="m2392.68 2834.73-3.41 1.96-79.84-46.1 3.41-1.97z" fill="#33535f"/><path d="m2423.23 2817.01-3.42 1.97-79.84-46.1 3.41-1.97z" fill="#33535f"/><path d="m2444.86 2804.11-3.42 1.97-79.84-46.11 3.41-1.96z" fill="#33535f"/><path d="m2475.25 2787.23-3.41 1.97-79.85-46.11 3.41-1.96z" fill="#33535f"/><path d="m2296.48 2890.38-6.82 3.93-79.84-46.1 6.81-3.93z" fill="#33535f"/><path d="m2124.32 1125.71-446.81 257.97-.01 1219.71 446.82-257.97z" fill="#26b6a6"/><g clip-path="url(#c)"><path d="m1677.5 1125.71h446.82v1477.68h-446.82z" fill="#14b099"/></g><path d="m2124.33 1125.71 609.31 351.78-.01 1219.7-609.3-351.78z" fill="#26b6a6"/><path d="m2124.33 1125.71v1219.7l609.3 351.78v-745.38l-506.1-292.19v.01-474.34z" fill="#06ab91"/><path d="m2449.29 2441.26-59.14-34.14v91.77l59.14 34.14z" fill="#273e47"/><path d="m2390.15 2498.88-446.81 257.97 59.13 34.15 446.82-257.97z" fill="#33535f"/><path d="m1789.49 1486.4 12.66 2.25-25.57 15.03v-37.76h9.92zm6.09-5.91-3.14-21.45h-15.86v-4.47c0-12.88 8.09-28.43 17.68-33.98 2.52-1.44 6.17-2.81 9.29-1.02 3.13 1.8 4.94 6.41 4.94 12.59v50.63zm-4.77-65.85c-11.84 6.84-21.11 24.38-21.11 39.93v61.11l42.88-25.18 2.79.5v-4.05-.11-54.68c0-8.71-3.06-15.48-8.38-18.56-2.06-1.18-4.32-1.77-6.72-1.77-3.01 0-6.23.95-9.46 2.81" fill="#33535f"/><path d="m1792.54 1368.23c1.89 0 3.44 1.54 3.44 3.44v45.94c0 1.9-1.55 3.44-3.44 3.44-1.91 0-3.44-1.54-3.44-3.44v-45.94c0-1.9 1.53-3.44 3.44-3.44" fill="#33535f"/><path d="m1812.51 1356.71c1.18 0 2.34.62 2.97 1.72.95 1.65.39 3.75-1.25 4.7l-39.95 23.05c-1.61.99-3.74.43-4.69-1.26-.95-1.64-.4-3.74 1.25-4.69l39.95-23.05z" fill="#33535f"/><path d="m1932.19 1285.71c1.34 0 2.61.32 3.76.97 2.61 1.5 4.12 4.51 4.12 8.27v9.42c0 1.9-1.54 3.44-3.44 3.44s-3.44-1.54-3.44-3.44v-9.42c0-1.41-.39-2.15-.66-2.31-.27-.14-1.08-.09-2.24.59-3.03 1.79-6.4 8.61-6.4 15.55v61.09c0 1.9-1.54 3.44-3.43 3.44-1.9 0-3.44-1.54-3.44-3.44v-61.09c0-8.96 4.19-18.19 9.76-21.46 1.83-1.08 3.67-1.61 5.41-1.61" fill="#33535f"/><path d="m1894.53 1418.28c-6.48-3.74-10.22-11.66-10.62-22.41l77.29-44.64c-2.54 24.5-19.61 52.2-40.21 64.08-6.12 3.54-11.96 5.34-17.16 5.34-3.42 0-6.55-.78-9.3-2.37zm-17.53-26.36v1.98c0 14.31 5 25.09 14.1 30.34 9.06 5.24 20.92 4.19 33.33-2.96 24.25-14 43.98-48.18 43.98-76.2v-5.96z" fill="#33535f"/><path d="m2070.42 1208.58c1.9 0 3.45 1.54 3.45 3.44v117.02c0 1.89-1.55 3.44-3.45 3.44s-3.43-1.55-3.43-3.44v-117.02c0-1.9 1.53-3.44 3.43-3.44" fill="#33535f"/><path d="m2080.47 1302.35 1.36.28c1.76.76 2.54 2.78 1.8 4.53l-12.24 28.26-13.65-15.76c-1.25-1.44-1.09-3.6.34-4.84 1.47-1.24 3.62-1.09 4.86.34l6.48 7.49 7.9-18.23c.55-1.29 1.83-2.07 3.15-2.07" fill="#33535f"/><path d="m2038.61 1226.71c1.9 0 3.44 1.53 3.44 3.43v117.03c0 1.9-1.54 3.44-3.44 3.44s-3.44-1.54-3.44-3.44v-117.03c0-1.9 1.54-3.43 3.44-3.43" fill="#33535f"/><path d="m2048.68 1320.48 1.36.29c1.76.75 2.54 2.78 1.79 4.52l-12.23 28.27-13.65-15.77c-1.25-1.43-1.09-3.59.34-4.84 1.47-1.23 3.62-1.09 4.86.35l6.48 7.49 7.9-18.24c.55-1.29 1.82-2.07 3.15-2.07" fill="#33535f"/><path d="m2083.7 1582.06.01-151.48c0-5.83-4.09-8.2-9.15-5.28l-236.49 136.53c-5.05 2.92-9.15 10.02-9.15 15.85l.01 151.57c0 5.83 4.1 8.2 9.15 5.28l236.47-136.62c5.05-2.92 9.15-10.01 9.15-15.85" fill="#fafaf9"/><path d="m1843.57 1712.83 7.63-4.41v-137.7l-7.63 4.41z" fill="#33535f"/><path d="m1874.65 1694.9 13.17-7.74-.01-137.7-13.16 7.73z" fill="#33535f"/><path d="m1905.74 1676.96 7.64-4.41-.01-137.7-7.63 4.4z" fill="#33535f"/><path d="m1929.17 1663.67 15.29-9.06-.01-137.7-15.28 9.06z" fill="#33535f"/><path d="m1967.9 1641.09 7.65-4.41-.01-137.71-7.64 4.41z" fill="#33535f"/><path d="m1990.29 1628.45 16.33-9.71v-137.71l-16.33 9.72z" fill="#33535f"/><path d="m2030.07 1605.21 7.64-4.41-.01-137.7-7.63 4.41z" fill="#33535f"/><path d="m2047.81 1595.12 3.81-2.21v-137.7l-3.82 2.2z" fill="#33535f"/><path d="m2015.9 1612.71 3.82-2.21v-137.7l-3.82 2.21z" fill="#33535f"/><path d="m1953.29 1649.38 3.81-2.2v-137.7l-3.81 2.2z" fill="#33535f"/><path d="m1919 1669.06 3.82-2.2-.01-137.7-3.81 2.2z" fill="#33535f"/><path d="m1894.36 1682.66 3.82-2.2v-137.7l-3.82 2.2z" fill="#33535f"/><path d="m1860.97 1702.94 3.82-2.21-.01-137.7-3.81 2.21z" fill="#33535f"/><path d="m2061.16 1587.27 7.63-4.41v-137.7l-7.63 4.41z" fill="#33535f"/><path d="m2662.93 767.828-512.97 295.422 77.57 44.53v-41.65l446.82-257.97v556.12-556.132l609.31 351.782v20.46l47.39-27.29z" fill="#2c4954"/><path d="m2227.53 1659.62 609.31 351.78 446.82-257.96-609.31-351.79z" fill="#26b6a6"/><path d="m2674.35 1401.66-446.82 257.97 609.31 351.77 446.82-257.96-392.34-226.52-52.06-30.06-164.91-95.21" fill="#4ac2b6"/><path d="m2830.9 1960.85-187.01-107.73c-3.39-1.96-2.47-5.65 2.04-8.25l211.12-121.9c4.52-2.61 10.91-3.14 14.3-1.18l187.05 107.78c3.39 1.95 2.47 5.65-2.04 8.25l-211.16 121.85c-4.51 2.61-10.92 3.13-14.3 1.18" fill="#fafaf9"/><path d="m2925.35 1777.52c1.33 0 2.64.69 3.35 1.93 1.08 1.85.44 4.21-1.41 5.28l-175.27 101.19c-1.85 1.08-4.22.44-5.29-1.41-1.06-1.85-.43-4.21 1.42-5.27l175.27-101.2z" fill="#dadbd8"/><path d="m2905.89 1766.37c1.33 0 2.64.7 3.35 1.94 1.07 1.85.43 4.21-1.41 5.28l-175.28 101.19c-1.83 1.07-4.22.45-5.28-1.41-1.07-1.85-.44-4.21 1.41-5.28l175.28-101.19z" fill="#dadbd8"/><path d="m2886.44 1755.22c1.33 0 2.64.7 3.34 1.94 1.07 1.85.44 4.21-1.41 5.27l-175.28 101.2c-1.84 1.07-4.21.43-5.27-1.41-1.08-1.85-.44-4.22 1.41-5.28l175.28-101.2z" fill="#dadbd8"/><path d="m2866.98 1744.07c1.32 0 2.62.7 3.34 1.93 1.07 1.85.44 4.22-1.41 5.28l-175.28 101.2c-1.84 1.08-4.21.44-5.28-1.41s-.44-4.22 1.41-5.28l175.28-101.2z" fill="#dadbd8"/><path d="m3040.72 1834.45-6.82 3.93-79.84-46.1 6.81-3.93z" fill="#33535f"/><path d="m3012.97 1850.47-11.83 6.74-79.85-46.1 11.84-6.74z" fill="#33535f"/><path d="m2985.23 1866.5-6.83 3.93-79.83-46.1 6.81-3.93z" fill="#33535f"/><path d="m2964.45 1878.66-13.78 7.8-79.85-46.11 13.78-7.79z" fill="#33535f"/><path d="m2929.74 1898.55-6.83 3.93-79.83-46.1 6.81-3.94z" fill="#33535f"/><path d="m2909.93 1910.18-14.76 8.32-79.84-46.1 14.74-8.32z" fill="#33535f"/><path d="m2874.24 1930.59-6.81 3.94-79.85-46.11 6.82-3.93z" fill="#33535f"/><path d="m2858.5 1939.78-3.41 1.97-79.84-46.1 3.41-1.97z" fill="#33535f"/><path d="m2886.51 1923.06-3.42 1.97-79.84-46.1 3.4-1.97z" fill="#33535f"/><path d="m2942.71 1890.96-3.41 1.97-79.84-46.1 3.39-1.96z" fill="#33535f"/><path d="m2973.25 1873.25-3.41 1.97-79.85-46.1 3.41-1.97z" fill="#33535f"/><path d="m2994.88 1860.35-3.41 1.96-79.85-46.1 3.41-1.96z" fill="#33535f"/><path d="m3025.27 1843.46-3.41 1.98-79.84-46.11 3.4-1.96z" fill="#33535f"/><path d="m2846.5 1946.62-6.82 3.93-79.84-46.1 6.81-3.93z" fill="#33535f"/><path d="m2674.35 808.16-446.82 257.97v593.5l446.82-257.97z" fill="#26b6a6"/><path d="m2674.35 808.16-446.82 257.97v593.5l446.82-257.97z" fill="#26b6a6"/><path d="m2674.35 808.148 609.31 351.782v593.51l-609.31-351.79z" fill="#26b6a6"/><path d="m2674.35 808.148v593.502l609.31 351.79v-593.51z" fill="#1db3a0"/><path d="m2999.31 1497.5-59.13-34.14v91.77l59.13 34.14z" fill="#273e47"/><path d="m2940.18 1555.11-446.82 257.97 59.13 34.15 446.82-257.96z" fill="#33535f"/><path d="m3236.38 1252.64h6.53v24.88l-16.85-9.9 8.35-1.49zm-14.49 11.12v-33.36c0-4.07 1.19-7.1 3.25-8.29 2.05-1.19 4.46-.28 6.12.67 6.32 3.66 11.65 13.9 11.65 22.38v2.96h-10.46l-2.06 14.12zm5.41-46.75c-1.58 0-3.07.39-4.43 1.17-3.5 2.03-5.51 6.49-5.51 12.22v36.03.07 2.67l1.83-.34 28.25 16.6v-40.27c0-10.24-6.11-21.79-13.91-26.3-2.12-1.23-4.25-1.85-6.23-1.85" fill="#33535f"/><path d="m3232.4 1188.29c-1.25 0-2.27 1.01-2.27 2.26v30.27c0 1.25 1.02 2.26 2.27 2.26s2.26-1.01 2.26-2.26v-30.27c0-1.25-1.01-2.26-2.26-2.26" fill="#33535f"/><path d="m3219.24 1180.7-1.96 1.13c-.63 1.09-.26 2.47.83 3.09l26.32 15.19c1.05.65 2.46.28 3.08-.83.63-1.08.27-2.46-.82-3.09l-26.32-15.19z" fill="#33535f"/><path d="m3140.39 1133.92-2.48.64c-1.72.98-2.71 2.97-2.71 5.45v6.2c0 1.25 1.01 2.27 2.26 2.27s2.27-1.02 2.27-2.27v-6.2c0-.94.26-1.42.44-1.53l1.47.39c2 1.19 4.22 5.68 4.22 10.25v40.25c0 1.25 1.02 2.26 2.27 2.26s2.26-1.01 2.26-2.26v-40.25c0-5.9-2.76-11.98-6.43-14.14-1.2-.71-2.42-1.06-3.57-1.06" fill="#33535f"/><path d="m3159.08 1222.81c-3.42 0-7.27-1.17-11.31-3.51-13.57-7.82-24.82-26.08-26.49-42.22l50.92 29.41c-.26 7.09-2.72 12.3-7 14.77-1.81 1.04-3.87 1.55-6.12 1.55zm-42.54-53.7v3.92c0 18.46 12.98 40.98 28.96 50.2 8.18 4.72 16 5.41 21.96 1.95 6-3.45 9.29-10.55 9.29-19.98v-1.31z" fill="#33535f"/><path d="m3049.32 1083.11c-1.25 0-2.27 1.01-2.27 2.26v77.09c0 1.25 1.02 2.27 2.27 2.27s2.27-1.02 2.27-2.27v-77.09c0-1.25-1.02-2.26-2.27-2.26" fill="#33535f"/><path d="m3042.71 1144.88-.9.19c-1.16.49-1.68 1.83-1.18 2.98l8.05 18.62 9-10.38c.83-.95.72-2.38-.23-3.2-.96-.81-2.38-.71-3.19.23l-4.28 4.94-5.2-12.01z" fill="#33535f"/><path d="m3070.28 1095.05c-1.25 0-2.27 1.01-2.27 2.26v77.1c0 1.25 1.02 2.27 2.27 2.27 1.26 0 2.26-1.02 2.26-2.27v-77.1c0-1.25-1-2.26-2.26-2.26" fill="#33535f"/><path d="m3063.65 1156.83-.9.19c-1.15.49-1.67 1.83-1.17 2.98l8.05 18.62 9-10.39c.82-.94.71-2.37-.23-3.19-.97-.8-2.38-.72-3.2.23l-4.27 4.94-5.2-12.02z" fill="#33535f"/><path d="m2722.37 1053.4-.01-151.482c0-5.828 4.1-8.199 9.15-5.277l236.49 136.529c5.06 2.92 9.15 10.02 9.15 15.85l-.01 151.57c0 5.84-4.09 8.2-9.15 5.28l-236.47-136.62c-5.05-2.92-9.15-10.01-9.15-15.85" fill="#fafaf9"/><path d="m2962.5 1184.18-7.63-4.41v-137.71l7.63 4.41z" fill="#33535f"/><path d="m2931.42 1166.24-13.16-7.74.01-137.71 13.15 7.75z" fill="#33535f"/><path d="m2900.34 1148.3-7.64-4.41v-137.7l7.64 4.41z" fill="#33535f"/><path d="m2876.9 1135.01-15.29-9.06v-137.7l15.29 9.059z" fill="#33535f"/><path d="m2838.17 1112.42-7.64-4.41.01-137.701 7.63 4.41z" fill="#33535f"/><path d="m2815.78 1099.79-16.33-9.71v-137.709l16.33 9.719z" fill="#33535f"/><path d="m2776 1076.55-7.64-4.41v-137.699l7.64 4.399z" fill="#33535f"/><path d="m2758.27 1066.46-3.82-2.21.01-137.699 3.81 2.207z" fill="#33535f"/><path d="m2790.17 1084.05-3.82-2.21.01-137.699 3.81 2.199z" fill="#33535f"/><path d="m2852.79 1120.72-3.82-2.2v-137.7l3.82 2.2z" fill="#33535f"/><path d="m2887.07 1140.4-3.81-2.2.01-137.7 3.8 2.2z" fill="#33535f"/><path d="m2911.7 1154.01-3.82-2.22.01-137.7 3.82 2.21z" fill="#33535f"/><path d="m2945.1 1174.28-3.82-2.21v-137.7l3.82 2.2z" fill="#33535f"/><path d="m2744.92 1058.61-7.64-4.41v-137.7l7.64 4.41z" fill="#33535f"/><path d="m1323.53 1293.32c3.25 53.06 31.72 588 31.72 588l-259.73-183.35c45.38-305.78 55.33-397.95 57.27-448.97-.39-1.19-1.41-5.54-1.2-13.09 1.39-60.6 73.95-92.25 130.84-131.84 22.48-15.64 87.84-61.83 153.58-92.02 41.14-18.89 123.98-19.472 133.76 5.61-69.23 48.59-149.32 101.63-204.7 157.46-26.45 26.66-45.45 54.53-41.54 118.2" fill="#f6879f"/><path d="m1687.44 954.102c3.51.046 9.49-36.563-9.24-52.434-21.61-18.309-85.5-48.789-170.85-39.527-85.36 9.257-131.94 33.64-166.53 60.269-34.59 26.621-83.07 64.18-121.74 71.699-35.92 7.001-75.07 21.851-86.72 32.211-11.65 10.35-10.95 57.11-10.95 57.11z" fill="#17282f"/><path d="m1151.96 1263.81s-10.69-.27-12.68-11.12c-2.38-12.92-4.51-50.42-9.74-71.64-7.26-29.5-11.36-89.8-6.22-113.68 5.15-23.89 63.79-39.7 101.32-52.66 38.34-13.25 82.91-41.03 122.14-70.78 40.6-30.789 125.38-61.059 180.89-61.039 84.75.019 139.21 22.648 155.6 51.839 20.29 36.122 3.46 56.629-94.71 98.13-18.59 7.85-84.02 43.36-106.33 56.25-60.38 34.87-120.46 83.75-149.12 146.57-3.35 7.34-6.88 15.47-14.37 19.13-5.74 2.8-12.59 2.29-18.96 1.35-16.17-2.39-31.94-7.19-46.6-14.1-12.96-6.11-31.37-13.26-30.78-29.17.2-5.53 1.99-10.9 3.97-16.12 1.23-3.22 2.23-7.53-.73-9.49-2.79-1.86-6.57.15-9.15 2.28-10.36 8.53-18.04 19.56-26.81 29.57-4.7 5.37-9.81 10.5-15.7 14.71-5.34 3.82-12.11 5.67-16.86 10.02-6.03 5.52-4.74 12.49-5.16 19.95" fill="#273e47"/><path d="m1604.39 1026.02c-122.52-9.78-159.78-82.348-164.15-126.981 30.59-9.801 62.06-16.16 87.43-16.148 84.75.019 142.69 22.668 159.09 51.859 19.14 34.07 5.19 61.129-82.37 91.27" fill="#fafaf9"/><path d="m1420.53 1022.21c-1.34-.02-2.68.38-3.82 1.23-2.6 1.96-3.03 5.54-.99 8 16.7 20.12 65.46 47.14 110.12 43.16 3.31-.29 5.75-3.07 5.44-6.19-.29-3.13-3.13-5.43-6.5-5.15-41.7 3.6-86.41-22.94-99.65-38.89-1.15-1.39-2.86-2.13-4.6-2.16" fill="#ededeb"/><path d="m1367.15 1050.72c-1.34-.02-2.68.38-3.82 1.23-2.6 1.95-3.04 5.53-.99 8 16.72 20.14 65.49 47.22 110.12 43.16 3.31-.29 5.74-3.08 5.43-6.2-.28-3.12-3.06-5.42-6.5-5.15-41.69 3.66-86.41-22.93-99.64-38.89-1.15-1.39-2.86-2.13-4.6-2.15" fill="#ededeb"/><path d="m1317.57 1083.44c-1.34-.02-2.68.38-3.82 1.23-2.6 1.95-3.03 5.54-.99 8.01 16.7 20.13 65.65 47.17 110.12 43.15 3.3-.29 5.74-3.07 5.44-6.19-.29-3.13-3.09-5.41-6.51-5.15-41.64 3.62-86.4-22.94-99.64-38.89-1.15-1.39-2.86-2.14-4.6-2.16" fill="#ededeb"/><path d="m1268.98 1116.18c-1.3-.02-2.63.36-3.74 1.19-2.64 1.9-3.13 5.49-1.13 7.98 22.96 28.53 75.71 47.86 120.32 43.87 3.31-.29 5.74-3.07 5.44-6.2-.29-3.12-3.11-5.34-6.5-5.14-40.17 3.57-89.36-14.18-109.74-39.47-1.15-1.45-2.89-2.2-4.65-2.23" fill="#ededeb"/><path d="m895.141 1723.74-270.938 58.58c-7.144-167.74-2.824-394.65-8.555-552.08-1.078-29.64-16.441-229.87-7.921-291.4 12.808-92.442 136.73-86.418 146.968-32.02 10.254 54.41 19.211 286.91 21.235 311.01 5.758 100.85 63.308 270.38 103.672 449.89 1.984 8.82 13.648 47.42 15.539 56.02" fill="#f6879f"/><path d="m798.488 866.352c-1.078-53.891-8.91-89.872-29.09-122.204-20.175-32.32-60.519-43.73-102.261-36.039-41.739 7.7-95.785 30.411-109.754 76.352-13.973 45.918-13.039 77.789-5.945 127.988z" fill="#17282f"/><path d="m616.23 1249.48c-16.968-1.8-18.683-74.16-25.175-146.79-6.969-77.85-31.719-110.862-38.203-174.71-7.411-72.96-1.602-105.21 29.238-148.011 30.832-42.809 134.863-82.059 182.269-17.36 38.641 52.743 37.731 109.602 30.668 181.922-7.304 74.749-13.109 127.309-12.246 184.279.821 54.45 10.211 105.15-4.859 110.65-.766-8.02-1.41-18.19-2.258-26.07-.652-6.04-1.004-35.52-10.527-36.16-1.199 6.91-1.328 13.38-1.129 20.46.176 6.16-.719 12.84-5.465 17.36-4.789 4.54-19.84 7.89-26.793 8.84-16.887 2.31-33.859 4.3-50.941 5.02-8.504.36-17.036.41-25.543.01-6.899-.33-15.008-1.14-21.446-3.52-3.953-1.45-7.55-4.11-8.875-7.71-.98-2.65-.644-5.52-.511-8.32.234-5.01-.254-10.06-1.446-14.97-.527-2.16-2.082-4.84-4.547-4.41-1.992.34-2.875 2.49-2.972 4.28-.465 8.75.5 15.17.496 25.37-.004 4.71.57 11.16.426 15.89-.137 4.65-.305 9.31-.161 13.95" fill="#273e47"/><path d="m550.063 885.762c-.872-45.16 3.46-75.91 27.597-109.422 30.84-42.801 143.086-81.891 190.492-17.199 23.59 32.187 28.598 69.41 30.313 107.238-32.363 47.312-202.754 62.371-248.402 19.383" fill="#fafaf9"/><path d="m751.176 943.648-2.125.442c-.699.262-71.488 26.41-147.442 7.922-3.363-.762-6.824.929-7.769 3.898-.922 2.961 1.07 6.039 4.433 6.86 80.34 19.511 152.715-7.29 155.774-8.418 3.203-1.223 4.687-4.493 3.316-7.321-1.082-2.222-3.609-3.511-6.187-3.383" fill="#ededeb"/><path d="m603.254 1006.24c-2.391.12-4.602 1.45-5.527 3.55-1.235 2.88.378 6.11 3.628 7.22 75.274 25.63 152.25-5.8 155.508-7.16 3.164-1.31 4.504-4.62 3-7.41-1.504-2.772-5.32-3.909-8.402-2.659-.734.299-75.52 30.749-145.551 6.819z" fill="#ededeb"/><path d="m605.293 1057.4c-2.352.12-4.527 1.41-5.477 3.46-1.312 2.86.247 6.11 3.477 7.26 82.727 29.63 155.547-5.13 158.602-6.62 3.054-1.49 4.164-4.87 2.468-7.57-1.695-2.69-5.609-3.68-8.59-2.18-.671.34-70.73 33.6-147.722 6.05-.914-.33-1.852-.45-2.758-.4" fill="#ededeb"/><path d="m607.84 1114.88c-2.313.12-4.477 1.37-5.438 3.38-1.359 2.84.141 6.11 3.352 7.31 77.473 28.89 156.48-6.58 159.801-8.13 3.097-1.4 4.281-4.78 2.66-7.51-1.594-2.74-5.402-3.84-8.516-2.36-.769.34-77.094 34.59-149.027 7.74-.934-.34-1.891-.48-2.832-.43" fill="#e7e8e5"/><path d="m738.012 3097.79c-6.414-305.18-60.973-983.06-60.973-983.06-4.609-37.48-58.867-196.9-60.855-332.46-3.129-212.74-7.668-373.85-7.668-373.85s118.839-47.05 206.125-14.49c0 0 113.562 452.17 145.386 593.28 37.911 168.08 132.583 480.64 132.583 480.64l-6.9-444.26s-18.96-137.03-3.57-268.58c10.48-89.61 46.48-339.12 46.48-339.12s109.38-22.03 204.17 6.05c0 0 57.1 535.78 61.8 618.23 5.36 94 34.4 1039.32 34.4 1039.32z" fill="#33535f"/><path d="m1092.61 2467.85 42.47 283.23s103.7 4.09 174.75 70.6c0 0-8.85-66.41-138.53-106.45l-49.08-238.85-38.05-444.48z" fill="#273e47"/><path d="m1277.72 3987.59c55.09 2.89 157.69 6.39 231.42-84.39 51.82-63.81 193.15-217.31 273.23-318.64 53.67 55.87 183.85 191.27 205.17 230.85 26.59 46.6 40.45 92.54 48.61 116.55 10.43 30.7 14.27 54.57 17.1 72.67 6.74 43.15 1.93 75.32 1.56 91.09-.66 27.55 40.27 13.42 55.94-30.32 11.44-31.95 10.53-55.24 11.97-74.82 15.17 7.28 59.21 28.9 66.09 32.1 23.95 11.11 100.13 37.87 107.41-5.05 1.62-9.62-1.4-20.11 2.79-28.91 2.01-4.2 5.46-7.5 8.34-11.16 10.83-13.77 13.22-33.7 5.95-49.66-3.56-7.81-5.21-14.06-4.16-22.74.99-8.13 3.36-16.56 1.04-24.69-1.84-6.51-6.5-11.77-9.62-17.77-4.05-7.77-5.43-16.61-6.61-25.29s-2.25-17.52-5.78-25.54c-8.36-19.05-31.37-23.4-49.05-29.74-23.51-8.45-54.97-19.44-79.41-31.31-42.47-28-156.91-234.99-272.8-367.64-39.7-45.44-75.33-73.88-112.99-68.91l.35.13c-30.47.69-68.17 28.36-104.5 59.73-115.52 99.75-300.97 295.76-300.97 295.76-78.16 94.03-99.92 254.71-91.08 317.7" fill="#f6879f"/><path d="m1328.89 4003.05c36.61-5.7 61.78-4.64 108.36-31.07 41.02-23.29 55.77-42.92 103.26-96.05 47.49-53.15 161.02-191.11 161.02-191.11s-48.37-115.48-197.97-157.43l-165.54 160.67z" fill="#33535f"/><path d="m2153.38 3986.57c-23.57-8.33-29.63-24.31-27.85-58.55 1.06-20.31-3.78-58.03-25.33-73.77 0 0 18.26 2.32 28.34 13.38 10.09 11.06 12.9 12.37 18.88 6.43 5.98-5.93 15.51-8.27 15.51-8.27s-12.58-14.28-1.41-31.5c11.16-17.23 58.75-16.1 97.05 5.32 0 0-62.63-21.73-77.93-2.09-15.3 19.63 17.4 45.93 42.12 53.54 0 0-60.61-16.52-70.58 3.22s14.76 35.73 50.44 46.05c0 0-50.22-10.78-59.41 6.08-11.18 20.54 3.73 33.09 10.17 40.16" fill="#f47089"/><path d="m766.852 3971.72s-58.664-51.61-73.664-107.39c-7.375-27.42-14.161-50.3 9.042-202.47 22.157-145.3 22.083-188.87 27.114-302.03l5.765-303.54c86.93-101.81 508.701-157.16 711.681-20.02 0 0 1.16 526.16-13.19 699.64-9.75 117.82-45.86 228.4-86.38 264.59-55.17 9.57-108.23 15.99-108.23 15.99l-202.99 11.8z" fill="#26b6a6"/><path d="m1341.09 4393.63c27.05 62.01.57 144.25-31.74 182.88-46.71 55.84-119.4 79.92-228.99 73.12-83.317-5.17-165.278-39.78-180.868-125.3-66.98-19.98-59.344-129.96-42.687-178.47 33.804-98.46 100.277-184.14 101.418-234.49z" fill="#273e47"/><path d="m1341.05 4162.01c-13.16-47.53-40.7-82.37-84.63-89.24-26.27-4.16-69.41-.38-69.41-.38l1.73-60.52c59.14-50.63 37.46-117.12-2-177.05-49.02 54.52-105.14 73.94-154.12 95.52-48.87 21.47-71.464 69.2-71.464 69.2l-6.261 204.38s-26.903-30.55-71.258-1.67c-30.387 19.93-52.231 71.22-30.094 118.44 21.949 46.38 65.973 27.19 79.543 13.13 13.461-14.08 29.305-40.6 40.578-36.89 17.168 5.72 22.863 16.48 27.286 27.84 7.87 19.89 13.53 45.56 14.36 89.89 12.26 6.23 24.03 15.15 34.4 26.55 18.9 20.98 29.05 45.92 29.87 68.77 94.99 29.75 204.26 15.74 243.75-14.81 22.73-40.02 23.56-133.09 27.31-186.69 4.08-58.17 1.47-106.71-9.59-146.47" fill="#f6879f"/><path d="m1187 4072.43c-48.62 2.74-146.4 25.44-172.45 52.58-26.046 27.15-37.116 82.65-37.116 82.65s3.914-70.13 24.036-101.07c20.13-30.93 71.01-44.43 101.89-52.11s84.54-12.83 84.54-12.83z" fill="#f47089"/><path d="m1186.73 3834.78c-25.45 15.62-81.6 79.37-109.52 49.75-27.93-29.63-42.9-37.76-61.34-32.27-18.444 5.49-59.163 45.7-85.792 75.09-26.637 29.39-35.019 71.62-35.019 71.62s25.765 31.26 37.511 52.14c12.645 22.46 9.957 28.76 26.106 29.88l1.449-42.31s10.309-23.08 55.985-54.28c45.67-31.2 137.74-77.69 170.62-149.62" fill="#33535f"/><path d="m1186.73 3834.78c15.14 13.82 39.77 78.38 46.36 76.45 9.71-2.84 27.08-47.26 35.45-36.95 13.32 16.4 9.27 91.27-12.84 118.49-21.28 26.18-51.56 56.13-68.1 59l1.17-39.92s16.6-32.33 16.39-64.38c-.15-22.66-15.3-90.95-18.43-112.69" fill="#33535f"/><path d="m1156.25 4339.59c.04-11.28-8.74-20.42-19.59-20.42-10.86-.01-19.68 9.13-19.71 20.41-.04 11.28 8.73 20.42 19.59 20.43 10.85 0 19.67-9.14 19.71-20.42" fill="#17282f"/><path d="m1128.74 4402.45-39.8-26.87c-7.25 11.48-4.22 26.8 6.77 34.22 10.99 7.41 25.78 4.13 33.03-7.35" fill="#17282f"/><path d="m1319.47 4384.02-43.65 20.87c5.35 12.37 19.47 17.72 31.52 11.96 12.06-5.77 17.49-20.47 12.13-32.83" fill="#17282f"/><path d="m1304.77 4340.82c.03-11.28-8.74-20.42-19.59-20.42-10.86 0-19.68 9.13-19.72 20.41-.03 11.28 8.74 20.42 19.59 20.43 10.86 0 19.68-9.14 19.72-20.42" fill="#17282f"/><path d="m1201.4 4381.88 14.21-141.32 75.83 22.89z" fill="#f47089"/><path d="m1156.14 4207.65 81.34-18c-4.49-23.22-26.35-38.01-48.82-33.05-22.46 4.97-37.02 27.83-32.52 51.05" fill="#c35363"/><path d="m1188.66 4156.6c1.71-.38 3.4-.42 5.09-.58-.52 20.53-17.3 36.87-37.82 36.88 2.51-17.46 15.11-32.4 32.73-36.3" fill="#f47089"/><path d="m1845 3520.59-531.56-103.95-196.13-638.72 506.24 112.27z" fill="#17282f"/><g clip-path="url(#d)"><path d="m1173.09 2944.7h228.648v95.0898h-228.648z" fill="#122026"/></g><path d="m1459.54 3393.15 5.6 19.65c2.67 9.41 29.8 22.05 63.6 30.35 0-.01 0-.02-.01-.02-.22-.9-.54-2.03-.85-3.16-31.87-8.29-57.05-20.23-59.61-29.26l-4.79-16.81zm230.8 67.77c-4.46 2.07-12.03 3.14-21.8 3.14-6.29 0-13.48-.44-21.34-1.34.25.91.46 1.72.69 2.59 6.34.63 12.19.93 17.41.93 12.74 0 21.74-1.83 25.04-5.32" fill="#122026"/><path d="m1727 3509.39c1.96 6.78-10.35 9.39-27.5 5.82l-31.03-6.45s11.87 42.52-56.78 31.82c-68.63-10.71-86.59-58.71-86.59-58.71s-14.84-3.2-33.15-7.15c-18.31-3.94-35.24-12.58-37.8-19.3l-4.65-12.15 273.81 53.52s1.73 5.82 3.69 12.6" fill="#26b6a6"/><path d="m1449.5 3443.27 4.65 12.15c2.56 6.72 19.49 15.36 37.8 19.3 18.31 3.95 33.15 7.15 33.15 7.15s17.96 48 86.59 58.71c7.68 1.2 14.34 1.73 20.13 1.73 32.71 0 37.43-16.96 37.43-26.76 0-3.99-.78-6.79-.78-6.79l31.03 6.45c5.21 1.08 9.97 1.6 14.02 1.6 8.34 0 13.68-2.18 13.68-6.04 0-.44-.07-.9-.2-1.38-1.95-6.75-3.67-12.54-3.69-12.6l-5.29-1.03-49.07-9.6c5.27 1.52 11.7 2.72 19.58 4.09l8.37 7.75-189.79-35.49 1.12-7.7c1.11.22 2.16.4 3.17.56z" fill="#06ab91"/><path d="m1468.27 3410.71c2.56 9.03 27.74 20.97 59.61 29.26.31 1.13.63 2.26.85 3.16 2.46 9.45-1.23 15.47-20.5 11.68l-1.12 7.7 189.79 35.49-8.37-7.75c-25.06-4.36-35.52-6.98-40.3-23.7-.39-1.38-.66-2.51-1.03-3.83 29.77 3.4 49.97.26 47.45-8.62-3.1-10.86-5.6-19.66-5.6-19.66l-226.39-43.38z" fill="#26b6a6"/><path d="m1462.66 3391.06 5.61 19.65c2.56 9.03 27.74 20.97 59.61 29.26.31 1.13.63 2.26.85 3.16.44 1.67.68 3.23.68 4.65 0 4.95-2.98 8.18-11.13 8.18-1.87 0-4.02-.17-6.46-.53-1.13-.16-2.33-.37-3.59-.62l-1.12 7.7 189.79 35.49-8.37-7.75c-25.06-4.36-35.52-6.98-40.3-23.7-.39-1.38-.66-2.51-1.03-3.83 7.86.9 15.05 1.34 21.34 1.34 16.14 0 26.29-2.91 26.32-8.49 0-.47-.07-.96-.21-1.47-3.1-10.86-5.6-19.66-5.6-19.66z" fill="#08917e"/><path d="m1231.34 3149.25c65.07-21.82 130.08-23.39 197.65-23.28 16.51.02 29.02-2.5 33.88-18.26 1.73-5.59 4.02-13.32-17.33-19.63-5.61-1.66-13.4-3.66-16.55-8.59-4.95-7.75-2.49-15.54-3.77-24.64-1.88-13.42-11.26-24.39-20.24-34.53-10.13-11.44-20.46-23.05-33.4-31.19-41.16-25.91-104.66-29.09-151.57-21.51-31.83 5.14-63.46 16.52-93.58 27.65-28.63 10.58-202.934 61.95-223.653 69.18-153.882 53.68-365.527 119.54-377.949 192.46-12.426 72.93 26.66 300.2 54.668 485.45 22.617 149.59 83.281 202.93 181.625 223.47 107.734-122.37 39.641-334.49 39.641-334.49l-39.188-282.56c16.559-13.83 268.366-155.16 311.866-169.25 15.76-5.1 45.31 1.12 60.99 6.47 42.08 14.36 70.91 13.17 111.67 11.32" fill="#f6879f"/><path d="m766.848 3971.72c-104.426-14.33-166.235-67.81-187.352-168.97-17.746-85-50.648-359.48-50.648-359.48 69.445-61.25 183.367-57.94 244.992-36.53l31.848 220.49c25.625 56.43 65.82 224.7-38.84 344.49" fill="#33535f"/><path d="m699.82 3079.98-52.738-29.14c-6.41-3.54-11.797-12.35-12.004-19.67-1.328-47.28-5.129-209.53 2.43-298.42.621-7.3 6.422-16.15 12.808-19.74 30.125-16.9 111.372-61.46 148.672-71.81 7.059-1.96 18.555.06 25.352 2.79l37.586 15.09c6.801 2.72 12.222 10.88 12.254 18.21.347 94.38 16.66 198.1 32.316 300.92 1.106 7.24-3.355 15.68-9.949 18.87l-173.172 83.55c-6.598 3.18-17.141 2.89-23.555-.65" fill="#33535f"/><path d="m637.508 2732.76c-7.559 88.89-3.758 251.11-2.43 298.4.207 7.32 5.715 10.62 12.274 7.36l161.164-80.09c6.558-3.26 11.339-11.83 10.75-19.13-3.418-41.93-13.114-175.73-7.93-287.02.344-7.32-5.297-13.03-12.352-11.07-37.304 10.34-118.535 54.9-148.66 71.8-6.386 3.58-12.195 12.45-12.816 19.75" fill="#273e47"/><path d="m800.965 2640.89c7.078-1.37 17.226.68 23.383 3.13l37.605 15.12c6.817 2.61 11.61 10.9 12.16 18.17 7.356 96.94 16.676 198.1 32.391 300.9.551 3.47-.227 7.03-1.922 10.29l-87.238-39.79c1.418-3 2.191-6.3 1.886-9.36-3.441-42.04-13.128-175.83-7.878-287.12.339-6.62-4.262-11.94-10.387-11.34" fill="#17282f"/><path d="m666.406 2997.65 118.324-57.25-6.3-96.32-115.344 50.78s.824 61.99 3.32 102.79" fill="#17282f"/><path d="m778.91 2851.41-109.234 48.09s.734 54.72 2.887 95.17l112.167-54.27z" fill="#26b6a6"/><path d="m778.91 2851.41-109.234 48.09s.734 54.72 2.887 95.17l112.167-54.27z" fill="#08917e"/><path d="m834.402 3003.76-29.402-14.09-106.008 51.9 28.555 14.34z" fill="#17282f"/><path d="m830 3001.65-25-11.98-101.57 49.74 24.254 12.18z" fill="#26b6a6"/><path d="m805 2989.67-15.332 7.51 25.234 11.84-3.355 1.64-25.098-11.9-41.746 20.44 25.11 11.83 19.035-9.29-25.172-11.83 3.648-1.75 24.875 11.94 37.801-18.45z" fill="#08917e"/><path d="m741.48 3020.77-17.324 8.49 25.133 11.78-2.07 1.02 21.804-10.65-2.562 1.25z" fill="#08917e"/><path d="m720.938 3030.83-17.508 8.58 24.254 12.18 18.25-8.91z" fill="#08917e"/><path d="m789.668 2997.18-3.055 1.5z" fill="#1a2c33"/><path d="m789.668 2997.18-3.055 1.5-.164.08z" fill="#0c1418"/><path d="m789.668 2997.18-3.219 1.58 25.098 11.9 3.355-1.64z" fill="#0b4c41"/><path d="m792.199 3020.1-3.351 1.64.047.02 3.355-1.64z" fill="#0c1418"/><path d="m767.324 3008.16-3.648 1.75 25.172 11.83 3.351-1.64z" fill="#0b4c41"/><path d="m744.668 3019.18-3.219 1.58.031.01 3.219-1.57z" fill="#1a2c33"/><path d="m744.699 3019.2-3.219 1.57 3.223-1.57zm25.114 11.83-.79.38z" fill="#0c1418"/><path d="m744.703 3019.2-3.223 1.57 24.981 11.89 2.562-1.25.79-.38z" fill="#0b4c41"/><path d="m724.152 3029.26-1.656.81z" fill="#1a2c33"/><path d="m724.152 3029.26-1.656.81-1.562.76h.004l3.218-1.57zm23.067 12.8-1.285.62h.004z" fill="#0c1418"/><path d="m724.156 3029.26-3.218 1.57 24.996 11.85 1.285-.62 2.07-1.02z" fill="#0b4c41"/><path d="m783.555 2811.17-.836-11.88c-.254-3.65-3.207-5.49-6.598-4.1l-21.391 8.78c-3.39 1.39-5.96 5.48-5.753 9.14l.711 12.17c.214 3.66 3.128 5.48 6.507 4.07l21.696-9.02c3.382-1.4 5.918-5.5 5.664-9.16" fill="#17282f"/><path d="m783.75 2772.46-.652-11.89c-.2-3.66-3.125-5.54-6.532-4.2l-21.519 8.45c-3.406 1.33-6.043 5.38-5.887 9.04l.52 12.18c.156 3.66 3.043 5.52 6.445 4.17l21.824-8.68c3.403-1.35 6-5.41 5.801-9.07" fill="#17282f"/><path d="m783.949 2733.74-.469-11.9c-.14-3.65-3.039-5.58-6.468-4.29l-21.649 8.11c-3.425 1.29-6.125 5.29-6.023 8.96l.332 12.18c.101 3.66 2.957 5.57 6.383 4.27l21.953-8.34c3.422-1.31 6.082-5.33 5.941-8.99" fill="#17282f"/><path d="m784.145 2695.03-.286-11.91c-.086-3.66-2.953-5.63-6.398-4.4l-21.777 7.79c-3.45 1.23-6.207 5.2-6.164 8.86l.148 12.19c.043 3.66 2.871 5.62 6.312 4.37l22.09-8.01c3.442-1.25 6.16-5.23 6.075-8.89" fill="#17282f"/><path d="m735.637 2833.02-.637-12.39c-.187-3.66-3.082-5.49-6.465-4.09l-21.258 8.8c-3.382 1.41-6.004 5.51-5.859 9.16l.508 12.69c.148 3.66 3.008 5.47 6.383 4.06l21.554-9.04c3.379-1.42 5.961-5.53 5.774-9.19" fill="#17282f"/><path d="m735.473 2794.57-.578-12.39c-.168-3.66-3.055-5.5-6.45-4.11l-21.293 8.69c-3.39 1.39-6.031 5.48-5.902 9.14l.453 12.69c.125 3.65 2.977 5.48 6.363 4.08l21.59-8.94c3.387-1.4 5.989-5.5 5.817-9.16" fill="#17282f"/><path d="m735.313 2756.13-.524-12.4c-.156-3.65-3.031-5.51-6.43-4.14l-21.336 8.6c-3.39 1.37-6.058 5.44-5.941 9.11l.391 12.68c.113 3.66 2.953 5.51 6.343 4.12l21.629-8.84c3.395-1.38 6.016-5.47 5.868-9.13" fill="#17282f"/><path d="m735.145 2717.68-.465-12.39c-.137-3.66-3-5.53-6.407-4.18l-21.375 8.5c-3.402 1.35-6.085 5.42-5.988 9.08l.332 12.69c.094 3.66 2.926 5.52 6.324 4.15l21.676-8.74c3.399-1.37 6.039-5.45 5.903-9.11" fill="#17282f"/><path d="m687.719 2854.87-.43-12.91c-.121-3.65-2.965-5.48-6.344-4.06l-21.113 8.82c-3.379 1.41-6.055 5.52-5.973 9.18l.305 13.2c.086 3.66 2.887 5.47 6.258 4.04l21.414-9.06c3.367-1.43 6.004-5.55 5.883-9.21" fill="#17282f"/><path d="m687.855 2817.47-.429-12.9c-.121-3.65-2.965-5.48-6.344-4.07l-21.113 8.82c-3.379 1.41-6.055 5.53-5.969 9.18l.301 13.21c.082 3.65 2.887 5.46 6.258 4.04l21.414-9.06c3.367-1.43 6.004-5.56 5.882-9.22" fill="#17282f"/><path d="m687.992 2780.08-.433-12.9c-.125-3.66-2.961-5.48-6.34-4.07l-21.114 8.82c-3.378 1.41-6.054 5.52-5.972 9.18l.305 13.2c.082 3.66 2.886 5.47 6.257 4.05l21.414-9.07c3.368-1.43 6.004-5.55 5.883-9.21" fill="#17282f"/><path d="m688.129 2742.69-.434-12.9c-.125-3.67-2.961-5.49-6.34-4.08l-21.113 8.82c-3.383 1.41-6.054 5.53-5.972 9.19l.304 13.2c.082 3.66 2.887 5.47 6.262 4.04l21.41-9.06c3.367-1.43 6.004-5.56 5.883-9.21" fill="#17282f"/><path d="m2829.64 4024.98-123.68-71.61 49.13-110.42c1.08-2.41 2.75-4.15 4.7-5.26 5.87-3.33 40.57-23.42 42.49-24.53 5.87-3.4 14.33-1.01 16.59 6.6l53.34 180.64z" fill="#26b6a6"/><path d="m2807.98 3811.64c-1.98 0-3.95.5-5.7 1.52-1.92 1.11-36.62 21.2-42.49 24.53-1.95 1.11-3.62 2.85-4.7 5.26l-25.86 58.12 137 79.09-47.36-160.4c-1.58-5.34-6.23-8.12-10.89-8.12" fill="#19b19d"/><path d="m2748.53 3928.79 49.13-110.42c4.28-9.62 18.22-8.71 21.21 1.39l53.34 180.64z" fill="#26b6a6"/><path d="m2985.34 4720.61-466.38-269.25c-5.92-3.41-10.71-11.72-10.71-18.54v-578.75c0-6.83 4.82-15.09 10.77-18.44l38.35-21.5c5.94-3.36 15.55-3.31 21.46.1l466.39 269.26c5.92 3.41 10.71 11.71 10.71 18.54v578.75c0 6.83-4.82 15.08-10.77 18.44l-38.35 21.5c-5.95 3.35-15.56 3.3-21.47-.11" fill="#26b6a6"/><path d="m2511.6 4443.74v.01c1.88 3.13 4.37 5.84 7.15 7.49-2.77-1.66-5.28-4.38-7.15-7.5m183.16 109.12 290.6 167.77c2.98 1.73 6.9 2.59 10.82 2.59 3.84 0 7.68-.83 10.64-2.49l38.33-21.49c1.42-.81 2.78-1.89 4.02-3.17-1.24 1.27-2.59 2.35-4.01 3.15l-38.35 21.5c-2.94 1.66-6.77 2.48-10.61 2.48-3.93 0-7.87-.86-10.86-2.59zm354.45 143.17c-.01.01-.02.02-.04.04.02-.02.03-.03.04-.04" fill="#fff"/><path d="m2571.26 4409.71-59.61 34.04c0-.01-.01-.02-.01-.03l-.04.02c1.87 3.12 4.38 5.84 7.15 7.5.07.04.15.08.22.12l175.79 101.5 290.58 167.75c2.99 1.73 6.93 2.59 10.86 2.59 3.84 0 7.67-.82 10.61-2.48l38.35-21.5c1.42-.8 2.77-1.88 4.01-3.15.02-.02.03-.03.04-.04 3.44-3.55 6-8.57 6.56-13.22-.21 1.3-.63 2.39-1.23 3.26 0 0 0 .01-.01.02 0 0-.01.01-.02.02-1.05 1.51-2.62 2.32-4.52 2.32-1.44 0-3.07-.47-4.79-1.46l-323.75-186.92-142.62-82.34c-2.95-1.71-5.63-4.64-7.57-8" fill="#70cec3"/><path d="m2568.13 3820.42v578.74c0 6.83 4.79 15.13 10.7 18.55l466.39 269.25c5.92 3.41 10.71.65 10.71-6.18v-578.75c0-6.83-4.79-15.13-10.71-18.54l-466.39-269.26c-5.91-3.41-10.7-.64-10.7 6.19" fill="#26b6a6"/><path d="m2563.84 3811.97c-2.47.36-4.75 1.07-6.49 2.14l-23.36 13.13 23.38-13.11c1.87-1.06 4.1-1.77 6.47-2.16m-49.09 27.08c-3.83 4.04-6.51 9.91-6.51 14.99v578.78c0 1.14.13 2.33.39 3.52-.25-1.2-.38-2.38-.38-3.52v-578.75c0-5.09 2.67-10.97 6.5-15.02" fill="#d2d4d1"/><path d="m2567.76 3811.7c-1.33 0-2.65.09-3.92.27-2.37.39-4.6 1.1-6.47 2.16l-23.38 13.11-14.97 8.41c-1.52.85-2.96 2.01-4.27 3.4-3.83 4.05-6.5 9.93-6.5 15.02v578.75c0 1.14.13 2.32.38 3.52.54 2.5 1.61 5.04 3.01 7.38l59.62-34.01c-.61-1.05-1.15-2.16-1.6-3.28-.98-2.41-1.53-4.93-1.53-7.27v-578.74c0-4.78 2.35-7.58 5.79-7.65h.18c1.04 0 2.19.25 3.43.8-2.77-1.24-6.29-1.87-9.77-1.87" fill="#19b19d"/><path d="m2571.26 4409.71-59.62 34.01c0 .01.01.02.01.03z" fill="#5cc7b3"/><path d="m2578.08 3813.83c.13.07.26.13.39.2.07.04.15.08.22.13-.2-.12-.41-.23-.61-.33" fill="#d2d4d1"/><path d="m2577.53 3813.57c.32.14.63.3.94.46-.13-.07-.26-.13-.39-.2-.18-.09-.37-.18-.55-.26" fill="#19b19d"/><path d="m2578.69 3814.16c.01 0 .01 0 .02.01-.01-.01-.01-.01-.02-.01m.02.01c.02.01.03.01.05.02-.02-.01-.03-.01-.05-.02m.05.02c.02.02.05.03.07.04-.02-.01-.05-.02-.07-.04" fill="#d2d4d1"/><path d="m2573.92 3812.77c-3.44.07-5.79 2.87-5.79 7.65v578.74-578.72c0-4.45 2.23-7.56 5.79-7.67m-4.26 593.66c.45 1.12.99 2.23 1.6 3.28l.03-.01c-.63-1.05-1.17-2.15-1.63-3.27" fill="#19b19d"/><path d="m2623.44 4341.03v-88.37l76.53 44.18-.01 88.36zm-5.38-103.05c-.92 0-1.85.25-2.69.72-1.66.96-2.68 2.73-2.68 4.65v100.78c0 1.92 1.02 3.68 2.68 4.64l87.28 50.38c1.66.96 3.71.96 5.37 0s2.69-2.73 2.69-4.65l.01-100.76c0-1.92-1.03-3.69-2.69-4.65l-87.27-50.39c-.84-.47-1.77-.72-2.7-.72" fill="#fafaf9"/><path d="m2715.57 4419.77c-5.39 2.26-11.61-.28-13.86-5.65l-40.01-95.19-9.53 9.27c-4.16 4.05-10.88 3.96-14.96-.22-4.06-4.18-3.96-10.9.22-14.96l20.65-20.08c1.98-1.93 4.6-2.99 7.37-2.99l2.11.2c3.44.71 6.3 3.05 7.65 6.28l46.01 109.48c2.26 5.39-.27 11.61-5.65 13.86" fill="#33535f"/><path d="m2779.51 4402.13 222.58 128.53c7.71 4.45 13.96 1.25 13.96-7.14s-6.25-18.8-13.96-23.25l-222.58-128.52c-7.71-4.44-13.96-1.25-13.96 7.13 0 8.4 6.25 18.8 13.96 23.25" fill="#33535f"/><path d="m2623.42 4189.86v-88.35l76.54 44.17v88.37zm-5.37-103.03c-.93 0-1.86.24-2.69.72-1.66.96-2.68 2.74-2.68 4.65v100.76c0 1.93 1.02 3.69 2.68 4.65l87.29 50.39c1.66.96 3.71.96 5.37 0s2.69-2.73 2.69-4.65v-100.77c0-1.92-1.03-3.69-2.69-4.65l-87.28-50.38c-.83-.48-1.76-.72-2.69-.72" fill="#fafaf9"/><path d="m2715.57 4268.62c-5.39 2.26-11.61-.28-13.86-5.66l-40.01-95.19-9.53 9.27c-4.16 4.06-10.88 3.97-14.96-.22-4.06-4.18-3.96-10.89.22-14.96l20.65-20.07c1.98-1.93 4.6-2.99 7.37-2.99l2.11.2c3.44.7 6.3 3.05 7.65 6.27l46.01 109.49c2.26 5.38-.27 11.6-5.65 13.86" fill="#33535f"/><path d="m2779.51 4251.44 222.58 128.53c7.71 4.45 13.96 1.26 13.96-7.14 0-8.39-6.25-18.8-13.96-23.25l-222.58-128.51c-7.71-4.45-13.96-1.26-13.96 7.13s6.25 18.79 13.96 23.24" fill="#33535f"/><path d="m2623.42 4038.71v-88.36l76.54 44.18v88.35zm-5.37-103.05c-.93 0-1.86.25-2.69.73-1.66.96-2.68 2.73-2.68 4.65v100.77c0 1.92 1.02 3.69 2.68 4.65l87.29 50.38c1.66.96 3.71.96 5.37 0s2.69-2.73 2.69-4.65v-100.76c0-1.92-1.03-3.69-2.69-4.65l-87.28-50.39c-.83-.48-1.76-.73-2.69-.73" fill="#fafaf9"/><path d="m2715.57 4117.47c-5.39 2.25-11.61-.28-13.86-5.66l-40.01-95.19-9.53 9.27c-4.16 4.06-10.88 3.97-14.96-.22-4.06-4.19-3.96-10.89.22-14.97l20.65-20.07c1.98-1.93 4.6-2.99 7.37-2.99l2.11.21c3.44.7 6.3 3.04 7.65 6.27l46.01 109.49c2.26 5.38-.27 11.6-5.65 13.86" fill="#33535f"/><path d="m2779.51 4100.76 222.58 128.53c7.71 4.45 13.96 1.25 13.96-7.14s-6.25-18.8-13.96-23.25l-222.58-128.52c-7.71-4.45-13.96-1.26-13.96 7.13s6.25 18.8 13.96 23.25" fill="#33535f"/></g></svg>