<svg height="571.62665" viewBox="0 0 635.17334 571.62665" width="635.17334" xmlns="http://www.w3.org/2000/svg" xmlns:xlink="http://www.w3.org/1999/xlink"><clipPath id="a"><path d="m1722.23 665.398-108.38-62.566c-8.11-4.684-21.25-4.684-29.36 0l-132.27 75.367c-8.11 4.68-8.11 12.27 0 16.949l108.39 62.571c8.11 4.679 21.26 4.679 29.37 0 35.86-20.707 96.39-54.66 132.25-75.367 8.11-4.672 8.11-12.274 0-16.954"/></clipPath><g transform="matrix(.13333333 0 0 -.13333333 0 571.62667)"><path d="m4066.16 2347.6c930.19-537.04 930.19-1407.76-.01-1944.811-930.19-537.051-2438.32-537.051-3368.509-.008-930.192 537.047-930.188 1407.769.004 1944.809 930.195 537.05 2438.325 537.05 3368.515.01" fill="#f3f2f1"/><path d="m4099.03 1131.1c-.41.93-.93 1.76-1.55 2.59l-1.35 1.66-1.56 1.87-1.76 1.66c-1.77 1.56-3.94 3.11-6.43 4.56l-2226.92 1285.55c-19.82 11.41-51.99 11.41-71.81 0l-1158.716-667.15c-1.555-.94-3.008-1.77-4.254-2.7l-1.45-1.15c-2.597-2.17-4.566-4.35-6.019-6.74l-1.035-1.76c-.524-.93-.938-1.87-1.145-2.81l-.519-2.17c-.309-1.25-.418-2.39-.418-3.63l.211-2.5c.207-.93.414-1.87.726-2.8.313-.93.727-1.86 1.145-2.69 2.277-4.57 6.531-8.83 12.758-12.46l2226.926-1285.539c6.12-3.532 13.59-5.911 21.37-7.262 4.67-.828 9.65-1.149 14.53-1.25 4.88 0 9.75.422 14.42 1.152 1.66.199 3.22.508 4.67.93 4.57 1.039 8.92 2.488 12.97 4.348 1.35.632 2.59 1.363 3.84 2.082l1158.72 667.149c13.59 7.89 17.84 19.09 12.65 29.06" fill="#dadbd8"/><path d="m4307.15 1558.98c-193.43-111.67-507.03-111.67-700.46 0-193.43 111.68-193.43 292.73 0 404.41 193.42 111.67 507.03 111.67 700.45-.01 193.42-111.67 193.42-292.73.01-404.4" fill="#dadbd8"/><path d="m1351.84 279.91c-21.29 0-41.77 5.059-57.66 14.262l-991.95 572.68-.937.64c-19.289 11.528-30.625 29.629-30.477 49.278.153 19.789 11.954 37.91 32.399 49.71l654.375 377.8c15.816 9.14 36.242 14.17 57.51 14.17 21.3 0 41.79-5.03 57.7-14.16l991.25-572.208c20.46-11.883 32.22-30.051 32.32-49.883.1-18.859-10.37-36.258-28.83-48.051-1.26-.937-2.61-1.808-4.03-2.589l-495.17-285.7-158.88-91.73c-15.89-9.18-36.35-14.219-57.61-14.219z" fill="#dadbd8"/><path d="m3769.12 1322.88-67.97-39.22-904.86-522.058c-2.39-1.34-4.77-2.59-7.26-3.633-14.95-6.117-31.65-6.117-46.59 0-2.49 1.043-4.99 2.293-7.37 3.633l-1718.09 991.918-83.121 47.94c-3.218 1.87-5.808 3.95-7.781 6.12-8.609 9.45-5.914 21.48 7.781 29.48l972.411 561.38c12.35 7.06 25.12 12.14 37.78 10.48 3.11-.41 6.12-1.24 9.23-2.49 1.56-.62 3.22-1.35 4.77-2.28l1811.07-1045.67c13.69-7.89 13.69-27.71 0-35.6m233.27-44.41c-.42.94-.94 1.77-1.56 2.6l-1.35 1.66-1.55 1.86-1.77 1.66c-1.76 1.56-3.95 3.12-6.44 4.57l-2166.26 1250.71c-19.81 11.42-51.98 11.42-71.8 0l-1062.07-613.16c-1.555-.93-3.004-1.76-4.254-2.7l-1.453-1.14c-2.594-2.18-4.563-4.36-6.02-6.74l-1.035-1.77c-.515-.93-.937-1.87-1.14-2.8l-.52-2.18c-.313-1.24-.414-2.39-.414-3.63l.207-2.49c.207-.93.414-1.87.727-2.81.312-.93.726-1.86 1.14-2.69 2.281-4.57 6.539-8.82 12.762-12.45l2166.27-1250.72c6.12-3.531 13.59-5.91 21.37-7.262 4.67-.84 9.65-1.148 14.53-1.25 4.88 0 9.75.41 14.42 1.141 1.66.211 3.22.519 4.67.941 4.57 1.039 8.92 2.489 12.97 4.36 1.35.621 2.59 1.34 3.84 2.07l1062.06 613.16c13.6 7.89 17.86 19.1 12.67 29.06" fill="#33535f"/><path d="m685.379 1925.63c-17.891-12.67-31.691-38.17-31.777-59.48l.023-47.44c-.023-22.99 15.953-50.79 35.898-62.31l2166.107-1250.599c7.55-4.36 16.71-6.992 26.37-8.039 3.16-.391 6.34-.582 9.6-.621l.13.031-.02 130.508.05.07c-4.91.059-9.82.43-14.52 1.191-7.84 1.348-15.26 3.789-21.42 7.348l-2166.269 1250.691c-18.25 10.54-19.719 27.2-4.172 38.65" fill="#273e47"/><path d="m3428.65 1023.82c-34.76 20.03-93.39 20.03-128.15 0-8.93-5.19-15.57-11.2-19.19-17.53-11.53-19.931 9.54-34.97 19.19-40.579 34.76-20.031 93.39-20.031 128.15 0 8.83 5.187 15.47 11.211 19.2 17.539 11.52 19.92-9.65 34.97-19.2 40.57" fill="#26b6a6"/><path d="m1307.53 2178.74c9.69 5.59 9.69 14.67 0 20.26-9.7 5.6-25.41 5.6-35.11 0-9.69-5.59-9.69-14.67 0-20.26 9.7-5.6 25.41-5.6 35.11 0" fill="#17282f"/><path d="m1252.35 2082.72c8.6 4.96 8.6 13.01 0 17.97-8.6 4.97-22.55 4.97-31.15 0-8.6-4.96-8.6-13.01 0-17.97 8.6-4.97 22.55-4.97 31.15 0" fill="#17282f"/><path d="m1305.09 2112.44 174.37 100.67c9.56 5.52 10.03 14.19 1.07 19.36-8.96 5.18-23.97 4.9-33.53-.62l-174.37-100.67c-9.56-5.52-10.03-14.19-1.07-19.36 8.97-5.17 23.97-4.9 33.53.62" fill="#17282f"/><path d="m3994.45 1287.66c14.88-11.57 13.27-27.88-4.73-38.24l-1062.09-613.221c-9.86-5.711-22.9-8.551-35.92-8.519l.02-130.508c13.06.058 25.9 2.906 35.81 8.687l1062.08 613.031c19.8 11.36 35.9 39.23 35.92 62.21l.15 47.56c-.1 21-13.6 46.15-31.24 59" fill="#17282f"/><path d="m1196.19 1557.85c10.25-5.92 18.56-19.72 18.56-30.83 0-5.36-1.94-9.07-5.11-10.82-2.24-1.24-10.68-6.29-13.01-7.58-3.37-1.88-8.12-1.51-13.39 1.53l-241.506 139.44c-10.246 5.91-18.558 19.71-18.562 30.82 0 5.12 1.777 8.74 4.695 10.58 2.297 1.45 11.086 6.52 13.399 7.81 3.375 1.89 8.136 1.53 13.418-1.52z" fill="#33535f"/><path d="m1183.24 1550.37-241.506 139.43c-10.246 5.92-18.562 1.71-18.562-9.39 0-11.11 8.316-24.91 18.562-30.82l241.506-139.44c10.25-5.92 18.56-1.72 18.56 9.39s-8.31 24.91-18.56 30.83" fill="#17282f"/><path d="m872.918 1744.49c10.254-5.92 18.562-19.72 18.562-30.83 0-5.36-1.945-9.07-5.109-10.82-2.238-1.24-10.68-6.29-13.004-7.58-3.375-1.88-8.125-1.51-13.394 1.53l-113.852 65.74c-10.254 5.91-18.566 19.71-18.566 30.82 0 5.12 1.781 8.74 4.695 10.58 2.293 1.45 11.09 6.52 13.398 7.81 3.379 1.89 8.137 1.53 13.422-1.52z" fill="#33535f"/><path d="m859.973 1737.01-113.852 65.73c-10.254 5.92-18.566 1.71-18.566-9.39 0-11.11 8.312-24.91 18.566-30.83l113.852-65.73c10.25-5.92 18.566-1.72 18.566 9.39s-8.316 24.9-18.566 30.83" fill="#17282f"/><path d="m3769.12 1323.4-67.97-39.22-904.86-522.059c-2.39-1.351-4.77-2.601-7.26-3.641-14.95-6.121-31.65-6.121-46.59 0-2.49 1.04-4.99 2.29-7.37 3.641l-1718.09 991.909-83.121 47.95c-3.218 1.86-5.808 3.94-7.781 6.12-8.609 9.44-5.914 21.48 7.781 29.47l972.411 561.39c12.35 7.05 25.12 12.13 37.78 10.47 3.11-.41 6.12-1.24 9.23-2.49 1.56-.62 3.22-1.34 4.77-2.28l1811.07-1045.67c13.69-7.89 13.69-27.7 0-35.59" fill="#26b6a6"/><path d="m2765.73 753.891c-7.91 0-15.82 1.531-23.29 4.589-2.49 1.04-4.99 2.29-7.37 3.641l-1718.09 991.909-83.121 47.95c-3.218 1.86-5.808 3.94-7.781 6.12-3.226 3.53-4.863 7.44-4.933 11.35v.26c0 6.45 4.261 12.93 12.714 17.86l642.101 370.69 16.65-204.03 9.23-213.86c2.66-47.14 45.41-96.98 83.52-116.14l630.44-363.15c17.44-8.76 39.23-13.03 61.38-13.03 3.26 0 6.52.09 9.79.28 25.6 1.44 50.9 8.54 69.73 20.91l420.42 242.21c20.99 13.81 32.38 32.95 31.25 52.55-1.15 19.72-14.15 36.81-36.7 48.15l-5.89 3.42c-.28 33.53-18.59 72.52-44.21 98.1l123.33 71.21 824.22-475.89c6.84-3.94 10.27-10.87 10.27-17.8 0-.08 0-.17 0-.25-.09-6.84-3.51-13.65-10.27-17.54l-67.97-39.22-904.86-522.059c-2.39-1.351-4.77-2.601-7.26-3.641-7.47-3.058-15.39-4.589-23.3-4.589m-217.3 188.328c4.02-7.938 10.1-15.028 16.9-18.949l171.56-98.981c6.05-3.488 13.98-5.238 21.92-5.238 7.93 0 15.86 1.75 21.91 5.238l845.67 488.561c6.34 3.66 12.05 10.06 16.05 17.34 2.69 4.88 4.6 10.15 5.42 15.24v.03c.01.01.01.01.01.02.29 1.81.44 3.59.44 5.33v8.73.01.01c-.01 13.97-9.82 30.96-21.92 37.94l-171.57 98.98c-6.05 3.49-13.98 5.24-21.91 5.24s-15.87-1.75-21.92-5.24l-845.66-488.55c-12.11-6.99-21.91-23.989-21.91-37.961v-3.809l-.04-4.98c.01-6.11 1.91-12.789 5.05-18.961m-171.22 390.921c-16.72 0-33.07 3.06-45.65 9.38l-630.45 363.15c-28.79 14.47-62.35 54.62-64.16 86.68l-8.25 191.05 786.73-454.22 272.85 157.53c9.23-35.22 33.72-70.84 62.63-87.77 10.86-6.37 21.14-9.38 30.26-9.38 7.01 0 13.34 1.79 18.7 5.21l.01-.03 45.16 25.6-.07.12c4.41 2.35 8.25 5.71 11.4 10.02 10.37-5.31 16.52-12.04 16.89-18.52.39-6.61-5.39-14.51-15.44-21.12l-420.42-242.2c-15.49-10.19-38.16-15.5-60.19-15.5" fill="#bee9e1"/><g fill="#33535f"><path d="m1129.74 1881.45-11.89 6.87 3.55-11.69zm9.48-5.99-1.4.45-4.78 2.75-11.48-6.64-1.97.05-1.71.98-.79.59-.37.67-4.87 16.93-.05.7.63.56 1.61.92 1.42.39 1.5-.49 16.67-9.63 2.54 1.47 1.36.38 1.45-.5 1.13-.65.8-.8-.68-.78-2.53-1.46 4.77-2.76.78-.81-.73-.81-1.94-1.11z"/><path d="m1149.99 1885.01c-4.82.19-9.62 1.66-14.39 4.41-4.75 2.75-7.29 5.52-7.61 8.31-.32 2.8 1.57 5.38 5.66 7.73 1.63.96 3.36 1.73 5.19 2.33 1.82.6 3.56.96 5.23 1.09l.87-.13.35-.37 1.05-1.82-.05-.47-.69-.15c-2.71-.34-5.2-1.16-7.47-2.48-2.75-1.59-4.03-3.36-3.8-5.3.24-1.96 2.18-3.98 5.84-6.09 3.69-2.13 7.19-3.28 10.5-3.42 3.3-.16 6.29.54 8.95 2.07.97.56 1.82 1.15 2.56 1.79l1.48 1.75-7.75 4.47-4.79-2.76-1.38-.38-1.44.49-1.09.63-.81.81.69.77 7.65 4.42 1.6.4 1.7-.58 11.06-6.39.83-.61.1-.59c-.6-2.22-2.83-4.44-6.64-6.64-4.12-2.38-8.58-3.47-13.4-3.29"/><path d="m1245.14 1941.97c3.69-2.12 3.69-5.57 0-7.7s-9.66-2.13-13.35 0c-3.68 2.13-3.68 5.57 0 7.7 3.69 2.13 9.66 2.13 13.35 0"/><path d="m1220.87 1948.28c-6.72-3.88-8.79-9.44-6.21-14.34.52-.99 2.22-1.62 4.01-1.5h.02c2.25.16 3.76 1.45 3.09 2.71-1.87 3.46-.4 7.38 4.33 10.1 4.74 2.74 11.52 3.58 17.51 2.5 2.17-.39 4.42.48 4.69 1.79v.01c.21 1.03-.88 2.01-2.6 2.31-8.5 1.5-18.11.3-24.84-3.58"/><path d="m1210.18 1954.44c-9.99-5.76-13.56-13.86-10.73-21.31.42-1.09 2.15-1.85 4.08-1.72h.03c2.19.15 3.63 1.36 3.15 2.6-2.36 6.08.54 12.69 8.71 17.41s19.66 6.41 30.19 5.05c2.15-.28 4.24.55 4.5 1.81.23 1.11-1.07 2.11-2.97 2.36-12.87 1.65-26.94-.41-36.96-6.2"/><path d="m1406.94 2049.62-1.13.37-.33.72 2.02 9.89.23.71.57.62 3.45 1.99 1.2.28 1.17-.29 28.52-16.46.5-.69-.49-.68-3.58-2.07-1.19-.28-1.2.28-21.8 12.59-1.37-6.45-.62-.64-1.28-.2z"/><path d="m1429.27 2062.52-1.12.37-.34.72 2.04 9.89.22.71.58.62 3.43 1.98 1.2.28 1.18-.28 28.52-16.46.49-.69-.49-.69-3.57-2.06-1.2-.28-1.18.28-21.81 12.59-1.37-6.45-.62-.64-1.28-.2z"/><path d="m1472.8 2071.23 1.19.28 1.19-.28 4.32-2.5.49-.69-.49-.69-4.1-2.36-1.2-.29-1.18.28-4.33 2.5-.49.69.49.69zm-15.45 8.92 1.19.28 1.19-.28 4.33-2.5.48-.69-.49-.68-4.1-2.37-1.2-.29-1.18.28-4.33 2.5-.49.69.49.69z"/><path d="m1489.84 2087.24-9.45 5.45 1.89-9.81zm13.24-6.27-1.19-.29-1.19.29-5.35 3.08-13.68-7.9-1.19-.28-1.2.28-3.13 1.81-.8.79-.3.96-3.35 17.54.7 1.68 3.35 1.94 1.2.28 1.18-.28 17.66-10.2 3.8 2.2 1.19.28 1.19-.28 3.14-1.81.49-.69-.49-.69-3.8-2.19 5.34-3.08.5-.69-.5-.69z"/><path d="m1491.11 2108.36-.48.69.48.69 16.6 9.58 1.19.28 1.2-.28 3.14-1.81.47-.69-.48-.69-12.41-7.15 5.17-3.55 1.79 1.69 1.83 1.17c1.65.94 3.4 1.7 5.25 2.26s3.74.89 5.63.99c1.9.09 3.78-.06 5.63-.46 1.85-.38 3.6-1.05 5.25-2.01 1.88-1.09 3.2-2.19 3.93-3.31s1.02-2.23.84-3.34c-.18-1.1-.77-2.18-1.79-3.22-1.02-1.05-2.32-2.03-3.91-2.94-2.03-1.18-4.01-2.05-5.93-2.62-1.93-.57-3.78-.9-5.55-.98-1.76-.08-3.42.04-4.93.36-1.54.32-2.91.8-4.11 1.43l-.53.68.52.69 3.59 2.07 1.07.29 1.26-.16 2.5-.48 2.33.18 2.19.67 2.07 1.05c1.68.97 2.58 2.01 2.7 3.13.11 1.13-.62 2.14-2.21 3.06-1.33.77-2.95 1.11-4.86 1.02-1.91-.08-3.71-.6-5.43-1.55l-1.89-1.32-.8-1-.42-.78-.82-.7-4.06-2.34-1.18-.28-1.2.28z"/><path d="m1015.76 1800.08-9.2 5.31 12.27 7.09 9.2-5.32z"/><path d="m1034.17 1810.7-18.4 10.63 12.26 7.08 18.41-10.62z"/><path d="m1052.58 1821.33-27.61 15.94 12.27 7.08 27.61-15.94z"/><path d="m1070.98 1831.96-36.81 21.25 12.27 7.08 36.81-21.25z"/><path d="m1875.83 2301.74c-1.09.09-2.36.51-3.46 1.15l-16.73 9.66c-2.91 1.68-3.53 4.16-1.34 5.43l45.9 26.41 1.87.6 1.15.01c1.1-.09 2.36-.51 3.46-1.14l16.73-9.65c2.92-1.69 3.54-4.18 1.34-5.44l-45.89-26.42c-.83-.48-1.91-.7-3.03-.61m26.98 44.96c-3.02.24-5.57-.14-7.22-1.09l-45.89-26.42c-2.98-1.71-2.21-4.85 1.74-7.13l16.73-9.66c2.21-1.27 5.08-2.11 8.08-2.35 1.29-.11 2.51-.1 3.64.03 1.45.17 2.65.52 3.58 1.06l45.89 26.41c2.97 1.72 2.21 4.85-1.75 7.14l-16.73 9.65c-2.2 1.27-5.07 2.11-8.07 2.36"/><path d="m1865.91 2321.32 19.79-11.43-7.22-4.14-2.45-.21-14.71 8.49c-2.11 1.22-2.58 3.11-1.03 4.04z"/><path d="m1869.29 2323.21 8.59 4.99 19.79-11.43-8.64-4.95z"/><path d="m1881.27 2330.09 8.58 4.98 19.85-11.46-8.64-4.94z"/><path d="m1903.13 2341.2 14.26-8.24c2.62-1.51 2.06-3.72-1.46-5.74l-2.9-1.68-19.79 11.43 6.85 3.95z"/><path d="m1912.7 2345.26c1.26.75 5.06-.26 8.49-2.25l3.11-1.79c3.44-1.98 5.25-4.23 4.05-5.02l-2.18-1.43-15.75 9.16s1.02.6 2.28 1.33"/><path d="m1785.94 2269.53 35.58 30.91 18.75-26.7-24.59 6.7z"/></g><path d="m2543.42 969.969v-8.739c0-13.98 9.81-30.968 21.91-37.96l171.56-98.981c12.1-6.98 31.73-6.98 43.83 0l845.67 488.561c12.1 6.99 21.92 23.98 21.92 37.96v8.73c0 13.98-9.82 30.97-21.92 37.96l-171.57 98.98c-12.1 6.99-31.73 6.99-43.83 0l-845.66-488.55c-12.11-6.99-21.91-23.989-21.91-37.961" fill="#26b6a6"/><path d="m3642.44 1330.19c2.68 4.87 4.6 10.14 5.42 15.24-.82-5.09-2.73-10.36-5.42-15.24m5.42 15.27c.01.01.01.01.01.02 0-.01 0-.01-.01-.02m.45 14.08v.02-.01z" fill="#9bd8c7"/><path d="m2759.21 819.121c-.14 0-.28 0-.41 0l.01 59.238c7.87.09 15.84 1.719 21.85 5.262l845.78 488.549c10.98 6.39 11.98 16.41 2.89 23.38 10.74-7.79 18.92-23.24 18.98-35.99 0-.01 0-.01 0-.02l-.01-8.73c0-1.74-.15-3.52-.43-5.33 0-.01 0-.01-.01-.02 0-.01 0-.02 0-.03-.82-5.1-2.74-10.37-5.42-15.24-4-7.27-9.71-13.67-16.07-17.35l-845.61-488.508c-6.02-3.422-13.77-5.211-21.55-5.211" fill="#19b19d"/><path d="m2548.43 942.219c-3.14 6.172-5.04 12.851-5.05 18.961l.04 4.98v-4.93c0-6.121 1.88-12.832 5.01-19.011" fill="#7daca2"/><path d="m2758.22 819.121c-7.68 0-15.41 1.809-21.32 5.219l-171.53 98.961c-6.81 3.937-12.9 11.008-16.94 18.918-3.13 6.179-5.01 12.89-5.01 19.011v4.93l.03 3.86c-.02 12.601 8.03 27.699 18.53 35.55-8.64-6.941-7.54-16.718 3.3-22.98l171.62-99.02c5.97-3.441 13.99-5.148 21.91-5.211l-.01-59.238c-.19 0-.39 0-.58 0" fill="#06ab91"/><path d="m2845.09 1031.29 17.18 9.92-34.07 9.75zm-29.19 36.7c1.41.81 2.88 1.21 4.4 1.19 1.52-.01 2.81-.17 3.89-.46l89.99-25.24c.97-.25 1.67-.47 2.01-.68l.96-1.34-.96-1.35-13.37-7.72c-1.42-.82-2.73-1.22-3.93-1.22-1.21-.01-2.16.12-2.87.36l-11.77 3.37-28.24-16.3 5.83-6.8.65-1.65c-.01-.69-.71-1.45-2.12-2.27l-13.38-7.71c-.62-.369-1.41-.561-2.33-.549-.91-.012-1.69.18-2.34.549l-1.16 1.15-43.72 51.96-.8 2.24c-.04.87.64 1.73 2.07 2.54z" fill="#33535f"/><path d="m2926.9 1098.37c-8.55 4.46-17.44 4.04-26.63-1.27l-10.82-6.25 40.32-23.29 11.35 6.55c8.92 5.15 9.48 10.18 1.71 15.08-1.43.9-2.77 1.72-4.09 2.49-1.3.74-2.58 1.48-3.82 2.19-1.24.73-2.5 1.44-3.77 2.19-1.27.72-2.7 1.5-4.25 2.31zm-43.08 8.83c4.88 2.82 10.06 4.97 15.54 6.47 5.49 1.49 11.01 2.33 16.57 2.51 5.55.18 10.97-.3 16.29-1.44 5.3-1.15 10.21-2.9 14.74-5.27 1.56-.82 2.95-1.58 4.19-2.3 1.24-.71 2.43-1.4 3.55-2.05 1.14-.66 2.32-1.33 3.51-2.02 1.2-.7 2.48-1.47 3.82-2.33 4.17-2.66 7.25-5.5 9.24-8.52 1.97-3.03 2.85-6.12 2.6-9.28-.25-3.17-1.63-6.31-4.15-9.43-2.51-3.13-6.2-6.1-11.08-8.92l-28.66-16.54c-.77-.45-1.73-.68-2.85-.68-1.14 0-2.09.23-2.87.68l-68.57 39.58-1.17 1.65 1.17 1.65z" fill="#33535f"/><path d="m3003.64 1142.68c-8.56 4.45-17.44 4.02-26.64-1.28l-10.82-6.25 40.32-23.29 11.35 6.55c8.92 5.15 9.48 10.17 1.71 15.08-1.43.9-2.78 1.73-4.1 2.48-1.3.75-2.58 1.49-3.81 2.2-1.24.72-2.5 1.45-3.77 2.18s-2.7 1.51-4.24 2.33zm-43.1 8.82c4.89 2.82 10.07 4.97 15.55 6.47 5.49 1.49 11 2.32 16.55 2.51 5.56.18 10.99-.3 16.3-1.44 5.31-1.15 10.22-2.9 14.75-5.27 1.56-.82 2.96-1.59 4.19-2.29 1.24-.73 2.43-1.41 3.55-2.06 1.14-.65 2.31-1.33 3.51-2.02 1.21-.7 2.48-1.47 3.83-2.34 4.16-2.65 7.24-5.48 9.24-8.51 1.97-3.02 2.84-6.11 2.59-9.28s-1.63-6.32-4.16-9.44c-2.5-3.13-6.2-6.1-11.07-8.91l-28.65-16.55c-.78-.44-1.74-.67-2.86-.67-1.14 0-2.1.23-2.88.67l-68.56 39.59-1.17 1.65 1.17 1.65z" fill="#33535f"/><path d="m3080.79 1220.92c.78.45 1.73.67 2.85.68 1.15-.01 2.1-.23 2.88-.68l11.25-6.49 1.17-1.66-1.17-1.66-18.68-10.78 54.44-31.43 1.17-1.65-1.17-1.66-13.9-8.02c-.77-.45-1.74-.68-2.85-.68-1.15 0-2.1.23-2.88.68l-54.44 31.43-18.68-10.79c-.78-.44-1.74-.67-2.85-.67-1.15 0-2.1.23-2.88.67l-11.25 6.5-1.18 1.66 1.18 1.65z" fill="#33535f"/><path d="m3182.14 1226.26c-1.2.78-2.55 1.63-4.03 2.57-1.49.94-3.04 1.87-4.66 2.81-1.64.94-3.25 1.83-4.84 2.68-1.6.83-3.02 1.57-4.31 2.22-1.9.94-3.9 1.67-5.98 2.19-2.1.51-4.24.76-6.43.75-2.19 0-4.41-.28-6.68-.85s-4.49-1.49-6.69-2.76c-2.18-1.26-3.79-2.55-4.76-3.86-1.01-1.31-1.51-2.59-1.51-3.85 0-1.27.44-2.51 1.33-3.72.89-1.2 2.15-2.35 3.78-3.45 1.06-.78 2.33-1.61 3.81-2.52 1.49-.9 3.06-1.82 4.69-2.76 1.62-.93 3.22-1.85 4.81-2.72 1.59-.88 3.09-1.65 4.51-2.29 3.82-1.89 7.99-2.89 12.48-2.98 4.49-.1 8.92 1.12 13.31 3.65s6.47 5.09 6.26 7.65c-.2 2.57-1.9 4.99-5.09 7.24zm-64.94-16.3c-3.75 2.4-6.62 5.06-8.6 7.97-1.99 2.9-2.87 5.89-2.65 9 .2 3.1 1.54 6.25 4.03 9.43 2.48 3.19 6.33 6.29 11.56 9.31 5.16 2.99 10.53 5.2 16.08 6.65 5.55 1.46 11.02 2.24 16.4 2.36 5.37.13 10.57-.38 15.61-1.52 5.01-1.15 9.62-2.81 13.79-4.97 3.18-1.68 6.43-3.47 9.75-5.39 3.33-1.92 6.38-3.76 9.14-5.51 3.73-2.41 6.6-5.07 8.59-7.97 1.98-2.9 2.89-5.92 2.7-9.04-.16-3.13-1.53-6.28-4.07-9.47-2.56-3.18-6.41-6.26-11.57-9.24-5.25-3.03-10.6-5.27-16.09-6.72s-10.92-2.22-16.34-2.32c-5.41-.11-10.63.41-15.66 1.56-5.02 1.15-9.62 2.8-13.78 4.96-3.06 1.59-6.23 3.34-9.57 5.28-3.32 1.91-6.43 3.79-9.32 5.63" fill="#33535f"/><path d="m3235.94 1277.91c.84-.58 2.08-1.34 3.66-2.3s3.26-1.94 5-2.94c1.73-1 3.44-1.97 5.13-2.91 1.7-.94 3.04-1.66 4.04-2.14 1.76-.87 3.65-1.57 5.63-2.16 1.98-.57 4.06-.87 6.25-.9 2.21-.05 4.45.2 6.75.75s4.66 1.53 7.05 2.91c2.41 1.4 4.11 2.7 5.1 3.93.98 1.22 1.58 2.36 1.75 3.39.17 1.05.04 2-.43 2.89l-1.55 2.3-1.2 2.05c-.04.51.54 1.11 1.75 1.8l13.9 8.03c.63.37 1.42.55 2.34.55s1.69-.18 2.33-.55c3.54-2.12 6.05-4.6 7.54-7.41 1.48-2.82 1.9-5.76 1.27-8.83-.63-3.05-2.26-6.14-4.88-9.25-2.62-3.1-6.26-6-10.93-8.7-5.09-2.94-10.4-5.13-15.92-6.55-5.52-1.43-11-2.21-16.46-2.33-5.43-.13-10.67.38-15.7 1.53-5.02 1.14-9.58 2.77-13.68 4.9-3.05 1.58-6.24 3.35-9.57 5.28-3.32 1.91-6.43 3.79-9.34 5.63-3.73 2.32-6.58 4.95-8.53 7.87-1.96 2.92-2.83 5.94-2.65 9.07.16 3.12 1.51 6.29 4.03 9.49 2.52 3.21 6.31 6.29 11.4 9.23 4.67 2.69 9.7 4.79 15.08 6.31 5.38 1.51 10.71 2.45 16.02 2.82 5.3.36 10.4.12 15.28-.73 4.89-.86 9.16-2.32 12.85-4.36l.94-1.35-.94-1.35-13.91-8.02c-1.2-.7-2.25-1.04-3.14-1.01-.86.02-2.06.25-3.55.7-1.13.33-2.46.63-3.97.89-1.52.27-3.2.35-4.99.25-1.81-.11-3.77-.45-5.9-1.02-2.11-.57-4.38-1.55-6.78-2.93-2.4-1.4-4.08-2.75-5.04-4.08s-1.41-2.62-1.33-3.89c.07-1.27.6-2.47 1.59-3.61.99-1.15 2.23-2.23 3.71-3.25" fill="#33535f"/><path d="m3332.3 1312.59 17.2 9.93-34.06 9.74zm-29.18 36.7c1.42.82 2.88 1.21 4.41 1.2 1.51-.03 2.8-.18 3.87-.46l89.99-25.25c.99-.24 1.67-.47 2.03-.68l.94-1.35-.94-1.34-13.37-7.72c-1.43-.82-2.73-1.22-3.94-1.22-1.2 0-2.15.12-2.86.37l-11.79 3.36-28.22-16.3 5.84-6.79.63-1.66c0-.7-.7-1.45-2.12-2.27l-13.37-7.72c-.64-.37-1.41-.55-2.34-.55-.92 0-1.69.18-2.32.55l-1.18 1.17-43.71 51.95-.81 2.24c-.03.88.66 1.73 2.07 2.55z" fill="#33535f"/><path d="m3391.84 1363.38 12 6.92c2.96 1.72 4.85 3.47 5.66 5.25.83 1.77-.24 3.51-3.22 5.23-2.97 1.72-6 2.35-9.09 1.87-3.07-.47-6.09-1.57-9.06-3.27l-11.99-6.93zm-20.16 25.49c4.67 2.69 9.34 4.83 14.01 6.37 4.66 1.55 9.29 2.5 13.85 2.86 4.56.34 9.07.03 13.53-.96 4.46-.98 8.73-2.66 12.84-5.03 5.31-3.06 8.61-6.23 9.93-9.53 1.31-3.28.87-6.61-1.33-10.01l38.42-6.99 1.48-.48.96-1.35-.96-1.35-14.43-8.33c-1.42-.82-2.75-1.22-3.99-1.2-1.23.03-2.35.11-3.34.28l-34.49 6.31-9.76-5.64 22.71-13.11 1.17-1.66-1.17-1.65-13.9-8.03c-.79-.44-1.73-.67-2.86-.67-1.14 0-2.1.23-2.88.67l-68.54 39.59-1.18 1.66 1.18 1.65z" fill="#33535f"/><path d="m3467.72 1444.32c.78.46 1.74.67 2.86.67 1.15 0 2.09-.21 2.86-.67l11.27-6.5 1.17-1.65-1.18-1.65-18.68-10.78 54.45-31.44 1.18-1.65-1.18-1.66-13.9-8.03c-.78-.44-1.74-.67-2.86-.67-1.13 0-2.1.23-2.88.67l-54.45 31.43-18.66-10.78c-.79-.44-1.74-.67-2.87-.67s-2.09.23-2.87.67l-11.24 6.5-1.18 1.66 1.18 1.65z" fill="#33535f"/><path d="m2763.03 991.898-18.04-10.41 18.04-10.41c3.3-1.898 3.3-5 0-6.898-3.31-1.899-8.66-1.899-11.96 0l-18.04 10.41-18.02-10.41c-3.3-1.899-8.65-1.899-11.96 0-3.3 1.898-3.3 5 0 6.898l18.03 10.41-18.03 10.41c-3.3 1.911-3.3 5 0 6.903 3.31 1.909 8.66 1.909 11.96 0l18.02-10.41 18.04 10.41c3.3 1.909 8.65 1.909 11.96 0 3.3-1.903 3.3-4.992 0-6.903zm-79.77 18.342c-26.82-15.478-26.82-40.58 0-56.06 26.82-15.481 70.28-15.481 97.1 0 26.82 15.48 26.82 40.582 0 56.06-26.82 15.48-70.28 15.48-97.1 0" fill="#33535f"/><path d="m2865.78 1664.2c.27 42.93-29.52 95.31-66.56 117.01-19.44 11.39-36.93 11.95-49.27 3.8l-45.56-25.62 95.49-164.65 45.16 25.6-.07.12c12.66 6.75 20.67 21.84 20.81 43.74" fill="#273e47"/><path d="m2751.89 1754.38c37.04-21.7 66.84-74.09 66.57-117.01-.28-42.92-30.52-60.13-67.55-38.43-37.05 21.7-66.84 74.08-66.57 117.01.28 42.92 30.52 60.12 67.55 38.43" fill="#33535f"/><path d="m2728.73 1689.94c.11 16.78 10.36 24.43 22.9 17.08s22.61-26.9 22.5-43.68-10.35-24.43-22.89-17.08c-12.54 7.34-22.62 26.91-22.51 43.68" fill="#17282f"/><path d="m2818.46 1637.37v.18c0-.06 0-.12 0-.18z" fill="#1f3239"/><path d="m2818.42 1636.54-44.31 25.73c.01.35.02.71.02 1.07.03 5.37-.97 11.02-2.77 16.46l45.91-26.65c.8-5.29 1.21-10.51 1.19-15.6 0-.06 0-.12 0-.18zm-89.68 52.06-18.54 10.77 13.76 7.95 7.64-4.44c-1.8-3.28-2.84-7.66-2.87-12.94-.01-.44 0-.89.01-1.34" fill="#29444e"/><path d="m2774.11 1662.27-45.37 26.33c-.01.45-.02.9-.01 1.34.03 5.28 1.07 9.66 2.87 12.94l39.76-23.08c1.8-5.44 2.8-11.09 2.77-16.46 0-.36-.01-.72-.02-1.07" fill="#122026"/><path d="m2386.97 1298.33c-25.43-1.44-51.16 2.7-71.17 12.75l-630.44 363.15c-38.11 19.16-80.86 69-83.52 116.14l-19.39 449.11 35.11 1.99 19.39-449.12c1.81-32.06 35.37-72.21 64.16-86.68l630.45-363.15c29.16-14.65 78.59-11.79 105.84 6.12l420.42 242.2c10.05 6.61 15.83 14.51 15.44 21.12-.37 6.57-6.69 13.39-17.32 18.74l-674.93 391.82c-38.02 19.13-80.64 68.97-83.31 116.19l-9.42 249.06 35.11 1.98 9.42-249.06c1.82-32.14 35.25-72.3 63.94-86.72l674.92-391.82c22.55-11.34 35.55-28.43 36.7-48.15 1.13-19.6-10.26-38.74-31.25-52.55l-420.42-242.21c-18.83-12.37-44.13-19.47-69.73-20.91" fill="#33535f"/><path d="m2273.59 1308.42c.28 42.92-29.52 95.3-66.56 117-19.44 11.39-36.93 11.94-49.27 3.8l-45.56-25.62 95.49-164.64 45.15 25.6-.06.11c12.67 6.76 20.67 21.84 20.81 43.75" fill="#273e47"/><path d="m2159.73 1398.57c37.04-21.7 66.84-74.08 66.57-117.01-.28-42.92-30.52-60.12-67.56-38.42-37.03 21.69-66.83 74.08-66.55 117 .27 42.92 30.51 60.12 67.54 38.43" fill="#33535f"/><path d="m2136.54 1334.15c.11 16.78 10.36 24.43 22.9 17.08 12.54-7.34 22.61-26.9 22.5-43.68s-10.36-24.42-22.89-17.08c-12.54 7.35-22.62 26.9-22.51 43.68" fill="#17282f"/><path d="m1808 1576.9c.36 42.92-29.35 95.35-66.35 117.12-19.42 11.43-36.9 12.01-49.26 3.89l-45.61-25.54 95.19-164.82 45.21 25.52-.07.11c12.68 6.74 20.72 21.81 20.89 43.72" fill="#273e47"/><path d="m1694.31 1667.26c37-21.77 66.7-74.21 66.35-117.13s-30.63-60.08-67.63-38.31c-36.99 21.77-66.69 74.21-66.34 117.13s30.63 60.07 67.62 38.31" fill="#33535f"/><path d="m1671 1602.88c.14 16.78 10.4 24.41 22.93 17.04 12.52-7.37 22.56-26.95 22.42-43.72-.14-16.78-10.4-24.41-22.92-17.04-12.53 7.37-22.57 26.94-22.43 43.72" fill="#17282f"/><path d="m1507.62 2783.75c-13.41 43.54 6.79 99.6 44.91 124.57l419.1 236.88c38.11 24.97 79.78 7.62 93.2-35.92l29.06-94.31-28.75-16.77-31.13 95.28c-7.42 23.06-30 30.96-50.19 17.58l-408.11-230.76c-24.36-16.17-37.57-52.36-29.35-80.43l24.62-90.47-34.29-19.96z" fill="#33535f"/><path d="m2155.59 2329.27-562.98-325.04 822.82-475.05 562.97 325.14z" fill="#26b6a6"/><path d="m2415.43 1529.18 129.91 575.07-15.88 9.21 15.92-9.19-.04-.02zm-54.35 241.37c-18.58 0-36.88 12.82-44.73 33.19l-135.97 352.89c-2.52 6.56-3.72 13.26-3.73 19.75-.01 18.87 10.06 35.96 26.96 42.47 4.65 1.79 9.45 2.64 14.24 2.64 18.58 0 36.87-12.82 44.73-33.19l135.96-352.89c2.53-6.56 3.72-13.26 3.73-19.75.01-18.87-10.06-35.96-26.95-42.47-4.65-1.79-9.45-2.64-14.24-2.64m-256.91 120.88c-18.58 0-36.89 12.82-44.74 33.19l-110.04 285.61 77.22 44.58 115.01-298.52c2.53-6.56 3.73-13.26 3.73-19.75.02-18.87-10.06-35.96-26.95-42.47-4.65-1.79-9.45-2.64-14.23-2.64m-256.92 120.88c-18.58 0-36.89 12.81-44.73 33.19l-25.19 65.38 77.21 44.58 30.16-78.29c2.53-6.56 3.73-13.26 3.74-19.75.01-18.88-10.07-35.97-26.96-42.47-4.64-1.79-9.45-2.64-14.23-2.64" fill="#0b7465"/><path d="m1536.69 2689.44 557.2 325.53 61.7-685.7-562.98-325.04z" fill="#26b6a6"/><path d="m1777.33 2110.88-110.78 287.51c-2.53 6.56-3.72 13.26-3.73 19.75-.02 18.87 10.06 35.96 26.95 42.47 4.65 1.79 9.46 2.64 14.24 2.64 18.58 0 36.88-12.82 44.73-33.19l105.8-274.6zm172.06 99.35-25.92 67.28c-2.53 6.56-3.73 13.26-3.73 19.75-.02 18.87 10.06 35.96 26.95 42.47 4.65 1.79 9.45 2.64 14.24 2.64 18.58 0 36.88-12.82 44.73-33.19l20.95-54.37zm206.09 120.2-618.79 359.01 557.2 325.53v-.01z" fill="#06a088"/><path d="m2895.39 2113.99c-22.7-8.74-49.1 4.94-58.97 30.56l-135.97 352.89c-9.87 25.62.52 53.48 23.23 62.22 22.7 8.74 49.09-4.93 58.96-30.55l135.97-352.89c9.87-25.62-.53-53.47-23.22-62.23m-256.93 120.89c-22.69-8.75-49.09 4.93-58.96 30.55l-135.97 352.89c-9.87 25.62.53 53.48 23.23 62.22 22.69 8.75 49.09-4.93 58.96-30.55l135.97-352.89c9.87-25.62-.52-53.48-23.23-62.22m-256.91 120.87c-22.69-8.74-49.09 4.94-58.96 30.55l-135.97 352.9c-9.87 25.62.52 53.48 23.22 62.22 22.7 8.75 49.1-4.93 58.97-30.55l135.96-352.89c9.88-25.62-.52-53.48-23.22-62.23m-287.66 659.21 61.69-685.69 822.82-474.95 129.91 575.07z" fill="#26b6a6"/><path d="m2545.38 2104.27-15.92 9.19-373.98 216.97-61.59 684.53 1014.42-585.57-.03-.13-234.91-135.62-90.73 235.47c-7.85 20.37-26.15 33.19-44.73 33.19-4.78 0-9.58-.85-14.23-2.64-16.9-6.5-26.97-23.6-26.96-42.47.01-6.49 1.2-13.19 3.73-19.75l95.7-248.38zm-105.58 533.8c.01-6.49 1.21-13.19 3.73-19.75l135.97-352.89c7.85-20.37 26.15-33.19 44.73-33.19 4.78 0 9.59.85 14.23 2.64 16.9 6.51 26.98 23.59 26.96 42.47-.01 6.49-1.21 13.19-3.73 19.75l-135.97 352.89c-7.85 20.37-26.15 33.19-44.73 33.19-4.78 0-9.59-.85-14.23-2.64-16.89-6.51-26.97-23.6-26.96-42.47m-256.91 120.88c0-6.49 1.2-13.2 3.73-19.75l135.97-352.9c7.85-20.37 26.15-33.19 44.73-33.19 4.78 0 9.58.85 14.23 2.64 16.89 6.51 26.97 23.61 26.95 42.48 0 6.49-1.2 13.19-3.73 19.75l-135.96 352.89c-7.85 20.37-26.15 33.19-44.73 33.19-4.78 0-9.59-.85-14.24-2.64-16.89-6.51-26.97-23.6-26.95-42.47" fill="#10ae97"/><path d="m2375.32 1773.19c-22.7-8.75-49.1 4.93-58.97 30.55l-135.97 352.89c-9.87 25.62.53 53.48 23.23 62.22 22.69 8.75 49.09-4.93 58.97-30.55l135.96-352.89c9.87-25.62-.52-53.48-23.22-62.22m-256.92 120.88c-22.69-8.75-49.1 4.94-58.97 30.55l-135.96 352.89c-9.87 25.62.53 53.48 23.22 62.22 22.7 8.75 49.09-4.93 58.97-30.55l135.96-352.89c9.88-25.62-.52-53.48-23.22-62.22m-256.92 120.88c-22.69-8.75-49.09 4.93-58.96 30.55l-135.97 352.89c-9.87 25.62.53 53.48 23.22 62.22 22.7 8.75 49.1-4.93 58.97-30.55l135.96-352.89c9.88-25.62-.52-53.48-23.22-62.22m-324.79 674.49 55.92-685.21 822.82-475.05 129.91 575.07z" fill="#26b6a6"/><path d="m1628.7 1983.4-36.09 20.83z" fill="#29444e"/><path d="m2415.43 1529.18-786.73 454.22-36.09 20.83-55.92 685.21 1008.65-585.19zm-238.78 647.2c.01-6.49 1.21-13.19 3.73-19.75l135.97-352.89c7.85-20.37 26.15-33.19 44.73-33.19 4.79 0 9.59.85 14.24 2.64 16.89 6.51 26.96 23.6 26.95 42.47-.01 6.49-1.2 13.19-3.73 19.75l-135.96 352.89c-7.86 20.37-26.15 33.19-44.73 33.19-4.79 0-9.59-.85-14.24-2.64-16.9-6.51-26.97-23.6-26.96-42.47m-256.91 120.88c0-6.49 1.2-13.19 3.73-19.75l135.96-352.89c7.85-20.37 26.16-33.19 44.74-33.19 4.78 0 9.58.85 14.23 2.64 16.89 6.51 26.97 23.6 26.95 42.47 0 6.49-1.2 13.19-3.73 19.75l-115.01 298.52-20.95 54.37c-7.85 20.37-26.15 33.19-44.73 33.19-4.79 0-9.59-.85-14.24-2.64-16.89-6.51-26.97-23.6-26.95-42.47m-256.92 120.88c.01-6.49 1.2-13.19 3.73-19.75l135.97-352.89c7.84-20.38 26.15-33.19 44.73-33.19 4.78 0 9.59.85 14.23 2.64 16.89 6.5 26.97 23.59 26.96 42.47-.01 6.49-1.21 13.19-3.74 19.75l-30.16 78.29-105.8 274.6c-7.85 20.37-26.15 33.19-44.73 33.19-4.78 0-9.59-.85-14.24-2.64-16.89-6.51-26.97-23.6-26.95-42.47" fill="#19b19d"/><path d="m2545.34 2104.25 562.98 325.03-129.91-575.06-562.98-325.04z" fill="#26b6a6"/><path d="m2415.43 1529.18 129.91 575.07 562.98 325.03-129.91-575.06-219.4-126.67-35.05-20.23-13.76-7.95-21.92-12.66z" fill="#08917e"/><path d="m2748.08 3345.75-65.01-38.14.22 196.86-39.39 22.74-178.38-102.99-.31-242.87-104.03-58.98 232.86-150.92 193.43 351.57z" fill="#273e47"/><path d="m2504.9 3401.48-.3-242.87-104.04-58.98 193.48-128.18 193.43 351.56-104.48-61.4.3 242.86z" fill="#33535f"/><path d="m2465.52 3424.22 39.38-22.74-.3-242.87-39.39 22.74z" fill="#17282f"/><path d="m1659.46 3192.81 563.83 325.52-46.99 678.17-516.84-298.39z" fill="#26b6a6"/><path d="m1659.46 3192.81v705.3l516.84 298.39 46.99-678.17z" fill="#87d6cb"/><path d="m1659.46 3898.11v54.25l-140.96 27.13 516.84 298.4 46.99-81.39h93.97z" fill="#26b6a6"/><path d="m1659.46 3898.11v54.25l-140.96 27.13 516.84 298.4 46.99-81.39h93.97-93.97l-.01-54.25 93.98 54.25zm375.88 379.78v-162.77l46.98 27.13.01 54.25z" fill="#4ac2b6"/><path d="m2035.34 4277.89v-162.77l46.98 27.13.01 54.25z" fill="#26b6a6"/><path d="m2035.34 4115.12v162.77l46.99-81.39-.01-54.25z" fill="#1db3a0"/><path d="m2176.3 4196.5h-93.97l-.01-54.25z" fill="#26b6a6"/><path d="m2082.32 4142.25.01 54.25h93.97z" fill="#14b099"/><path d="m1518.5 3979.49-46.98-678.18 187.94-108.5v759.55z" fill="#26b6a6"/><path d="m1659.46 3192.81-187.94 108.5 46.98 678.18 140.96-27.13-93.96-705.29z" fill="#1db3a0"/><path d="m1659.46 3952.36-93.96-705.29 93.96-54.26z" fill="#26b6a6"/><path d="m1659.46 3192.81-93.96 54.26 93.96 705.29z" fill="#14b099"/><path d="m1659.46 3192.81-86.13 113.06-101.81-4.56z" fill="#26b6a6"/><path d="m1670.87 3986.71c0-9.23 6.48-12.96 14.46-8.35 8 4.61 14.47 15.83 14.47 25.06 0 9.22-6.47 12.96-14.47 8.35-7.98-4.62-14.46-15.83-14.46-25.06" fill="#273e47"/><path d="m1863.24 4095.22c0-9.22 6.48-12.96 14.47-8.35s14.47 15.83 14.47 25.06c0 9.22-6.48 12.96-14.47 8.34-7.99-4.61-14.47-15.82-14.47-25.05" fill="#273e47"/><path d="m1685.33 3997.2c-2.68 0-4.85 2.17-4.85 4.85v118.5c0 51.62 44.24 119.16 98.62 150.56 30.26 17.48 59.02 20.9 78.93 9.42 15.82-9.14 24.53-26.96 24.53-50.19v-119.78c0-2.68-2.17-4.85-4.85-4.85-2.69 0-4.86 2.17-4.86 4.85v119.78c0 19.9-6.8 34.34-19.68 41.78-16.8 9.7-42.04 6.27-69.22-9.42-51.7-29.85-93.76-93.62-93.76-142.15v-118.5c0-2.68-2.17-4.85-4.86-4.85" fill="#273e47"/><path d="m1814.04 3905.33c0-9.22 6.48-12.96 14.47-8.35s14.47 15.83 14.47 25.06-6.48 12.96-14.47 8.35-14.47-15.83-14.47-25.06" fill="#33535f"/><path d="m2006.41 4013.84c0-9.23 6.48-12.96 14.47-8.35s14.47 15.83 14.47 25.06c0 9.22-6.48 12.96-14.47 8.35s-14.47-15.83-14.47-25.06" fill="#33535f"/><path d="m1828.51 3915.82c-2.69 0-4.85 2.18-4.85 4.86v118.5c0 51.62 44.22 119.16 98.6 150.55 30.26 17.48 59.04 20.91 78.94 9.43 15.82-9.14 24.54-26.97 24.54-50.19v-119.78c0-2.69-2.17-4.85-4.86-4.85-2.68 0-4.85 2.16-4.85 4.85v119.78c0 19.89-6.81 34.34-19.68 41.77-16.81 9.71-42.04 6.27-69.23-9.42-51.7-29.85-93.76-93.61-93.76-142.14v-118.5c0-2.68-2.17-4.86-4.85-4.86" fill="#33535f"/><path d="m1395.05 328.57 654.37 377.809c12.92 7.461 17.61 17.242 17.69 27.051.13 10.031.18 46.422.18 46.422l-17.79-25.204-495.71-286.007-158.89-91.731c-23.83-13.762-62.3-13.769-86.14.031l-990.963 572.118-17.156 19.761s-.918-34.211-.453-45.621c.199-8.301 6.917-16.277 17.617-22.551l991.105-572.046c23.71-13.872 62.31-13.793 86.14-.032" fill="#26b6a6"/><path d="m1351.88 318.23c-14.12 0-28.22 2.829-39.55 8.508 11.33-5.679 25.43-8.508 39.55-8.508 3.89 0 7.77.211 11.61.641v48.367c11.5 1.293 22.48 4.512 31.41 9.672l158.89 91.731 495.71 286.007.92.723c11.35 6.75 16.95 15.578 16.82 24.418l.05.063s-.05-36.391-.18-46.422c-.08-9.809-4.77-19.59-17.69-27.051l-654.37-377.809c-11.93-6.879-27.56-10.351-43.17-10.34" fill="#19b19d"/><path d="m1308.91 328.602-991.105 572.046c-9.696 5.68-16.121 12.774-17.391 20.231 1.27-7.457 7.695-14.551 17.391-20.231z" fill="#19b19d"/><path d="m1331.21 368.672c-8.19 1.699-15.88 4.457-22.45 8.258l-990.963 572.129 990.963-572.118c6.57-3.812 14.26-6.562 22.45-8.269m-1031.038 555.008c-.082 2.261-.113 5.289-.113 8.711 0-3.422.031-6.45.113-8.711" fill="#19b19d"/><path d="m1860.84 645.801v-48.301l188.58 108.879c12.92 7.461 17.61 17.242 17.69 27.051.14 10.031.18 46.422.18 46.422l-17.8-25.204z" fill="#273e47"/><path d="m2049.5 754.648.92.723c22.8 13.551 22.37 35.508-.94 49.027l-991.19 572.192c-23.76 13.65-62.31 13.78-86.134.03l-654.379-377.811c-23.539-13.59-23.707-35.5-.91-49.137l.93-.613 990.963-572.118c23.84-13.8 62.31-13.793 86.14-.031l158.89 91.731z" fill="#26b6a6"/><path d="m1860.84 645.801 188.65 108.847.93.731c22.8 13.543 22.37 35.492-.94 49.019l-991.19 572.192c-23.76 13.65-62.31 13.78-86.134.03l-188.558-108.87z" fill="#33535f"/><path d="m1312.33 326.738c-1.17.59-2.31 1.211-3.42 1.864 1.11-.653 2.25-1.274 3.42-1.864m39.52 39.852h.04c-.01 0-.03 0-.04 0" fill="#b4b6b4"/><path d="m1351.81 366.59c-6.98 0-13.95.699-20.6 2.082.66-.141 1.34-.274 2.01-.402 6.04-1.122 12.31-1.68 18.59-1.68" fill="#b4b6b4"/><path d="m300.543 964.871c.047 1.961.082 3.301.094 3.77-.012-.461-.047-1.809-.094-3.77z" fill="#c7c9c7"/><path d="m300.059 932.391c-.004 10.789.316 25.519.484 32.48-.168-6.961-.488-21.691-.484-32.48" fill="#b4b6b4"/><path d="m1351.88 318.23c-14.12 0-28.22 2.829-39.55 8.508-1.17.59-2.31 1.211-3.42 1.864l-991.105 572.046c-9.696 5.68-16.121 12.774-17.391 20.231-.133.769-.207 1.551-.226 2.32-.004.16-.012.321-.016.481-.082 2.261-.113 5.289-.113 8.711-.004 13.82.523 34.129.578 36.25 1.824-6.93 7.242-13.59 16.23-18.969l.93-.613 990.963-572.129c6.57-3.801 14.26-6.559 22.45-8.258 6.65-1.383 13.62-2.082 20.6-2.082h.04.04c3.89 0 7.77.219 11.6.648v-48.367c-3.84-.43-7.72-.641-11.61-.641" fill="#0aac94"/><path d="m1351.85 366.59c-.01 0-.03 0-.04 0-6.28 0-12.55.558-18.59 1.68 6.05-1.122 12.34-1.68 18.63-1.68 3.9 0 7.8.219 11.64.648-3.83-.429-7.71-.648-11.6-.648-.01 0-.03 0-.04 0zm-1034.053 582.469-.93.613c-8.988 5.379-14.406 12.039-16.23 18.969.004.129.004.187.004.187z" fill="#19b19d"/><path d="m621.363 1033.6-19.164 11.08-1.433 1.75.996 1.66c.761.45 1.73.64 2.914.59 1.168-.04 2.187-.31 3.051-.81l6.386-3.68 27.653 15.96c1.523.88 2.214 1.97 2.05 3.3-.168 1.32-1.109 2.51-2.808 3.52l-.098.06-1.469 1.76 1.028 1.65c.765.44 1.722.65 2.883.61 1.164-.04 2.199-.32 3.086-.83l-.043-.02.043.02c3.535-2.05 5.464-4.41 5.792-7.08.34-2.7-1.015-4.93-4.074-6.69l-27.644-15.97 6.386-3.68 1.442-1.78-1.047-1.66c-.762-.44-1.73-.63-2.883-.59-1.164.06-2.18.34-3.047.83" fill="#fff"/><path d="m679.512 1019.19-12.785 7.39c-1.75 1-3.801 1.57-6.129 1.66-2.328.1-4.246-.3-5.77-1.18l-4.152-2.39-.5-.83.707-.88 27.187-15.7 1.43-1.78-1.016-1.68c-.761-.44-1.726-.64-2.89-.58-1.176.07-2.192.35-3.059.85l-31.976 18.46-1.446 1.76 1.032 1.67 8.296 4.79c3.051 1.76 6.903 2.55 11.547 2.37 4.668-.21 8.754-1.33 12.27-3.35l12.777-7.39c1.77-1.01 3.82-1.57 6.164-1.68 2.344-.1 4.278.28 5.805 1.16l5.531 3.19c1.524.89 2.199 2.01 2.031 3.35-.164 1.35-1.148 2.54-2.937 3.56l-12.777 7.39c-1.754 1.01-3.805 1.57-6.133 1.67-2.324.09-4.25-.31-5.774-1.19-.781-.45-1.746-.64-2.894-.6-1.149.05-2.164.33-3.043.84l-1.481 1.78 1.032 1.67c3.05 1.76 6.906 2.55 11.546 2.36 4.668-.2 8.758-1.31 12.274-3.34l12.781-7.38c3.547-2.04 5.504-4.43 5.836-7.12.328-2.67-1.019-4.91-4.078-6.67l-5.527-3.19c-3.051-1.76-6.918-2.54-11.563-2.36-4.652.2-8.769 1.33-12.316 3.37" fill="#fff"/><path d="m740.59 980.738-2.766-1.59c-3.051-1.769-6.906-2.546-11.562-2.359-4.653.199-8.746 1.313-12.27 3.352l-12.773 7.371c-3.52 2.039-5.449 4.398-5.785 7.078-.332 2.691 1.023 4.922 4.078 6.68.75.43 1.707.62 2.871.58 1.16-.04 2.18-.32 3.062-.82l1.446-1.78-.985-1.68c-1.527-.879-2.211-1.988-2.047-3.34.172-1.339 1.141-2.531 2.891-3.531l12.773-7.367c1.762-1.023 3.809-1.582 6.137-1.684 2.324-.097 4.25.301 5.778 1.184l2.765 1.598c1.527.879 2.211 1.992 2.047 3.332-.168 1.34-1.141 2.527-2.902 3.547l-3.196 1.851-1.468 1.762 1.019 1.66c.766.438 1.731.629 2.891.59 1.168-.043 2.195-.301 3.094-.82l3.187-1.852c1.766-1.012 3.813-1.578 6.141-1.68 2.328-.09 4.25.309 5.777 1.192l2.766 1.597c1.527.879 2.207 1.981 2.039 3.332-.164 1.339-1.133 2.529-2.895 3.549l-12.773 7.36c-1.754 1.01-3.797 1.58-6.133 1.67-2.324.1-4.242-.3-5.774-1.18-.773-.45-1.757-.63-2.921-.58-1.164.06-2.184.34-3.063.85l-1.445 1.75 1.039 1.68c3.051 1.76 6.906 2.55 11.558 2.35 4.653-.19 8.747-1.31 12.27-3.34l12.769-7.37c3.532-2.04 5.458-4.4 5.79-7.09.332-2.692-1.024-4.91-4.075-6.668l-2.765-1.602c-1.617-.929-3.532-1.59-5.75-1.968-2.223-.383-4.52-.481-6.887-.313.293-1.367.113-2.699-.539-3.98-.664-1.289-1.805-2.379-3.414-3.321" fill="#fff"/><path d="m777.727 944.281c-1.184.059-2.211.328-3.09.84l-1.449 1.758 1.046 1.66 15.34 8.852c-3.004.57-5.636 1.507-7.898 2.82l-12.781 7.379c-3.516 2.031-5.446 4.39-5.793 7.09-.321 2.672 1.043 4.902 4.093 6.66l13.825 7.98c.746.43 1.699.641 2.859.602 1.164-.043 2.184-.313 3.066-.82l1.457-1.793-.996-1.668-13.824-7.993c-1.527-.878-2.211-1.988-2.047-3.328.172-1.34 1.141-2.531 2.891-3.531l12.777-7.391c1.766-1.019 3.805-1.566 6.137-1.668 2.32-.089 4.254.301 5.777 1.18l13.828 7.981c.75.429 1.7.629 2.864.597 1.16-.039 2.183-.316 3.066-.828l1.449-1.789-.988-1.672-38.711-22.347c-.75-.43-1.715-.622-2.898-.571" fill="#fff"/><path d="m877.129 919.469-.504-.828.707-.879 17.566-10.153c3.528-2.039 5.461-4.398 5.793-7.089.321-2.668-1.023-4.911-4.078-6.668l-5.531-3.192c-3.051-1.769-6.914-2.539-11.562-2.359-4.653.199-8.743 1.308-12.266 3.347l-12.785 7.383c-3.516 2.028-5.442 4.379-5.789 7.078-.325 2.68 1.039 4.903 4.09 6.661.777.449 1.75.652 2.902.609 1.168-.059 2.191-.348 3.078-.859l1.441-1.758-1.035-1.672c-1.527-.879-2.211-1.988-2.043-3.328.168-1.352 1.137-2.532 2.891-3.543l12.777-7.391c1.762-1.008 3.805-1.558 6.133-1.656 2.324-.09 4.258.289 5.785 1.168l5.528 3.199c1.531.883 2.203 2 2.035 3.34-.164 1.34-1.125 2.519-2.887 3.531l-19.156 11.059c-1.766 1.019-2.735 2.211-2.903 3.551-.171 1.351.52 2.46 2.047 3.332l13.825 7.988c.777.449 1.734.648 2.878.601 1.149-.05 2.18-.332 3.067-.839l31.926-18.43 1.453-1.774-.992-1.668c-.766-.441-1.727-.628-2.895-.582-1.172.082-2.187.352-3.051.852l-27.14 15.672-1.528.398-1.484-.32z" fill="#fff"/><path d="m910.238 879.602c-1.523-.883-2.215-1.993-2.047-3.332.172-1.348 1.137-2.528 2.891-3.54l12.773-7.371c1.793-1.039 3.864-1.609 6.188-1.711 2.328-.089 4.254.313 5.781 1.18l5.528 3.203c1.527.879 2.207 1.989 2.039 3.328-.164 1.34-1.153 2.539-2.95 3.582l-12.765 7.368c-1.754 1-3.805 1.57-6.133 1.66-2.324.101-4.25-.297-5.773-1.18zm22.961 5.898 12.774-7.371c3.562-2.051 5.515-4.438 5.84-7.109.332-2.688-1.012-4.93-4.067-6.688l-5.531-3.203c-3.051-1.758-6.918-2.527-11.574-2.34-4.641.191-8.758 1.32-12.317 3.371l-12.769 7.379c-3.528 2.031-5.453 4.402-5.793 7.082-.332 2.688 1.027 4.91 4.082 6.68l22.121 12.769c3.051 1.762 6.902 2.539 11.558 2.352 4.657-.192 8.743-1.301 12.27-3.344l12.77-7.367c3.558-2.063 5.515-4.441 5.839-7.121.336-2.68-1.015-4.918-4.066-6.68-.777-.449-1.75-.648-2.922-.578-1.168.059-2.187.328-3.066.848l-1.446 1.75 1.036 1.672c1.527.886 2.21 1.988 2.046 3.328-.168 1.351-1.16 2.55-2.949 3.582l-12.773 7.379c-1.754 1-3.801 1.57-6.129 1.66-2.328.097-4.246-.301-5.778-1.18l-7.039-4.07c2.993-.563 5.625-1.492 7.883-2.801" fill="#fff"/><path d="m1006.86 841.371-37.868-5.269-.504-.063-.668-.078-.742-.102-.828-.078-.836.02-.871.07-.781.188-.731.281-1.621 1.699c-.187.602.215 1.18 1.195 1.75.575.332 2.032.551 4.36.672 12.16 1.699 23.859 3.437 35.095 5.23 1.09.168 2.21.469 3.36.879 1.15.418 2.03.789 2.65 1.09l.91.469c1.53.883 2.2 2 2.04 3.34-.17 1.351-1.13 2.519-2.89 3.543l-6.39 3.679-3.193 1.848-12.77 7.371-1.472 1.781 1.023 1.649c.766.441 1.723.64 2.887.609 1.16-.039 2.199-.328 3.09-.847l12.775-7.372 3.19-1.839 6.39-3.692c3.53-2.027 5.45-4.398 5.79-7.09.32-2.668-1.03-4.898-4.08-6.668-1.15-.66-2.64-1.293-4.45-1.91-1.79-.633-3.15-1.019-4.06-1.16" fill="#fff"/><path d="m1040.7 807.48c1.53.879 2.21 1.981 2.04 3.329-.16 1.339-1.13 2.531-2.89 3.543l-12.78 7.367c-1.75 1.011-3.8 1.582-6.12 1.672-2.33.097-4.25-.301-5.78-1.18l-2.76-1.602c-1.53-.879-2.22-1.988-2.05-3.328s1.14-2.531 2.89-3.531l12.77-7.379c1.77-1.019 3.81-1.582 6.14-1.68 2.33-.089 4.25.309 5.78 1.188zm19.36 11.168c1.52.883 2.2 1.993 2.04 3.332-.17 1.34-1.14 2.532-2.9 3.551l-12.77 7.367c-1.75 1.012-3.81 1.571-6.13 1.672-2.33.09-4.25-.308-5.78-1.191l-2.76-1.59c-1.53-.891-2.22-1.988-2.05-3.34.17-1.34 1.14-2.527 2.89-3.527l12.77-7.383c1.77-1.008 3.82-1.578 6.14-1.668 2.33-.101 4.25.301 5.78 1.18zm-12.96-14.867-2.77-1.601c-3.05-1.758-6.92-2.539-11.57-2.352-4.64.192-8.73 1.301-12.27 3.352l-12.77 7.371c-3.52 2.039-5.46 4.398-5.79 7.09-.34 2.679 1.03 4.91 4.08 6.668l2.76 1.601c1.62.93 3.53 1.59 5.73 1.981 2.21.39 4.51.488 6.92.289-.34 1.402-.17 2.718.51 4 .68 1.269 1.82 2.379 3.43 3.3l2.77 1.602c3.05 1.758 6.91 2.547 11.56 2.348 4.65-.192 8.75-1.301 12.27-3.34l12.77-7.371c3.53-2.047 5.46-4.41 5.79-7.078.33-2.692-1.02-4.93-4.07-6.692l-2.77-1.597c-1.61-.93-3.53-1.582-5.75-1.961s-4.51-.493-6.89-.313c.31-1.379.12-2.699-.54-3.976-.66-1.282-1.79-2.391-3.4-3.321" fill="#fff"/><path d="m1162.28 759.621c1.53.879 2.2 2 2.03 3.34-.16 1.348-1.15 2.539-2.95 3.578l-12.77 7.383c-1.75 1-3.8 1.558-6.13 1.66-2.33.09-4.24-.301-5.77-1.184l-5.53-3.199c-1.53-.879-2.21-1.988-2.05-3.328.17-1.34 1.14-2.531 2.89-3.531l12.77-7.379c1.77-1.012 3.82-1.57 6.18-1.699 2.33-.09 4.27.289 5.8 1.168zm-39.62-15.422-12.77 7.371c-3.53 2.032-5.46 4.391-5.8 7.078-.33 2.692 1.03 4.922 4.09 6.684.74.43 1.72.609 2.89.566 1.17-.046 2.21-.328 3.09-.839l1.42-1.77-1.01-1.66c-1.53-.891-2.21-1.988-2.05-3.34.17-1.34 1.14-2.527 2.89-3.527l12.78-7.371c1.76-1.02 3.81-1.582 6.17-1.7 2.33-.089 4.28.278 5.8 1.161l7.04 4.058c-3 .578-5.65 1.52-7.95 2.86l-12.78 7.371c-3.52 2.039-5.45 4.398-5.78 7.089-.34 2.692 1.02 4.911 4.07 6.668l5.54 3.204c3.05 1.757 6.9 2.546 11.55 2.347 4.66-.187 8.75-1.301 12.27-3.34l12.78-7.371c3.55-2.058 5.51-4.437 5.84-7.117.33-2.691-1.02-4.922-4.08-6.691l-22.11-12.77c-3.06-1.762-6.92-2.531-11.58-2.34-4.64.18-8.76 1.321-12.31 3.379" fill="#fff"/><path d="m1170.51 716.559-19.16 11.062-1.44 1.758.99 1.672c.77.437 1.73.64 2.92.59 1.17-.051 2.19-.332 3.06-.832l6.38-3.688 27.66 15.969c1.52.879 2.2 1.98 2.04 3.308-.16 1.332-1.11 2.512-2.8 3.512l-.1.059-1.47 1.781 1.02 1.641c.76.449 1.73.648 2.89.609 1.16-.031 2.2-.32 3.09-.84l-.05-.019.05.019c3.52-2.031 5.46-4.39 5.79-7.082.34-2.687-1.03-4.906-4.08-6.68l-27.65-15.957 6.39-3.691 1.44-1.781-1.04-1.668c-.76-.442-1.73-.629-2.89-.571-1.16.051-2.18.329-3.04.829" fill="#fff"/><path d="m1250.77 714.922-12.77 7.367c-1.06.621-2.31 1.07-3.73 1.359l-4.29-28.109 21.65 12.5c1.53.883 2.2 2 2.03 3.34-.17 1.351-1.12 2.519-2.89 3.543zm-45.95-11.781 12.77-7.379c1.03-.59 2.28-1.051 3.74-1.352l4.28 28.102-21.64-12.492c-1.53-.891-2.21-1.989-2.05-3.34.17-1.34 1.14-2.532 2.9-3.539zm7.24-10.571-12.77 7.371c-3.53 2.039-5.45 4.399-5.79 7.079-.33 2.691 1.03 4.921 4.08 6.679l22.12 12.77c3.05 1.761 6.9 2.551 11.56 2.351 4.66-.191 8.75-1.3 12.27-3.34l12.77-7.371c3.53-2.031 5.46-4.39 5.79-7.078.32-2.679-1.02-4.922-4.07-6.679l-22.12-12.77c-3.06-1.762-6.92-2.531-11.57-2.363-4.65.203-8.74 1.312-12.27 3.351" fill="#fff"/><path d="m1259.9 664.949-19.16 11.071-1.44 1.742 1 1.668c.76.441 1.73.64 2.91.59 1.17-.028 2.19-.309 3.06-.809l6.38-3.68 27.65 15.957c1.53.883 2.22 1.973 2.05 3.301-.16 1.32-1.11 2.512-2.81 3.52l-.09.062-1.47 1.758 1.03 1.652c.76.438 1.72.649 2.88.61s2.2-.321 3.08-.832l-.04-.02.04.02c3.54-2.047 5.47-4.411 5.79-7.079.35-2.699-1.01-4.929-4.06-6.691l-27.65-15.957 6.38-3.691 1.45-1.782-1.05-1.66c-.76-.437-1.73-.629-2.88-.59-1.17.063-2.19.34-3.05.84" fill="#fff"/><path d="m1349.3 613.34-19.16 11.058-1.44 1.75.99 1.672c.77.442 1.74.641 2.92.59s2.2-.32 3.06-.82l6.39-3.692 27.64 15.961c1.53.891 2.22 1.993 2.05 3.313-.17 1.328-1.1 2.5-2.8 3.519l-.1.047-1.47 1.782 1.02 1.652c.77.437 1.72.648 2.89.609 1.16-.043 2.19-.332 3.09-.84l-.04-.031.04.031c3.53-2.043 5.46-4.402 5.79-7.089.34-2.68-1.03-4.911-4.08-6.672l-27.65-15.961 6.39-3.688 1.44-1.781-1.03-1.668c-.77-.441-1.73-.641-2.89-.582-1.17.059-2.19.34-3.05.84" fill="#fff"/><path d="m1407.44 598.922-12.77 7.367c-1.76 1.031-3.81 1.59-6.14 1.68-2.33.101-4.25-.297-5.77-1.18l-4.15-2.391-.5-.828.71-.89 27.19-15.7 1.42-1.769-1.01-1.68c-.76-.441-1.73-.633-2.9-.582-1.16.063-2.17.34-3.04.84l-31.98 18.461-1.44 1.75 1.02 1.691 8.29 4.778c3.06 1.769 6.91 2.551 11.56 2.363 4.66-.191 8.75-1.312 12.27-3.344l12.77-7.367c1.77-1.019 3.82-1.582 6.16-1.691 2.35-.11 4.28.281 5.81 1.16l5.53 3.199c1.52.883 2.2 2 2.03 3.34-.16 1.34-1.14 2.531-2.94 3.57l-12.77 7.36c-1.76 1.019-3.81 1.589-6.14 1.679-2.32.102-4.25-.297-5.77-1.179-.78-.45-1.75-.637-2.9-.59-1.14.043-2.16.32-3.04.832l-1.47 1.758 1.02 1.691c3.06 1.762 6.91 2.551 11.56 2.352 4.66-.192 8.75-1.301 12.27-3.34l12.77-7.371c3.56-2.059 5.51-4.43 5.84-7.121.33-2.692-1.02-4.911-4.08-6.668l-5.52-3.192c-3.06-1.769-6.91-2.551-11.57-2.359-4.65.199-8.76 1.32-12.32 3.371" fill="#fff"/><path d="m1438.69 561.719-19.16 11.062-1.44 1.758 1 1.672c.76.437 1.73.641 2.91.59s2.2-.321 3.07-.832l6.38-3.68 27.65 15.961c1.53.879 2.21 1.988 2.05 3.309-.17 1.332-1.11 2.511-2.81 3.511l-.1.059-1.47 1.781 1.03 1.649c.76.441 1.72.652 2.88.613 1.16-.043 2.2-.332 3.09-.852l-.04-.019.04.019c3.53-2.031 5.46-4.39 5.79-7.078.34-2.683-1.02-4.914-4.07-6.672l-27.65-15.968 6.38-3.68 1.45-1.781-1.04-1.672c-.77-.449-1.73-.637-2.89-.578-1.17.058-2.18.339-3.05.828" fill="#fff"/><path d="m1506.84 538.34-2.76-1.602c-3.05-1.758-6.92-2.527-11.56-2.347-4.66.199-8.75 1.308-12.27 3.339l-12.78 7.372c-3.52 2.039-5.45 4.398-5.78 7.089-.33 2.68 1.02 4.911 4.07 6.668.76.442 1.7.641 2.87.602 1.16-.039 2.18-.313 3.07-.82l1.45-1.789-1-1.672c-1.52-.879-2.21-1.989-2.04-3.328.17-1.352 1.14-2.532 2.9-3.551l12.77-7.379c1.76-1.012 3.8-1.563 6.13-1.66 2.33-.09 4.25.289 5.78 1.168l2.77 1.601c1.53.879 2.2 2 2.03 3.34-.16 1.34-1.13 2.52-2.89 3.539l-3.19 1.84-1.48 1.781 1.03 1.649c.76.441 1.72.648 2.89.609 1.16-.039 2.19-.328 3.09-.848l3.19-1.839c1.77-1.024 3.81-1.571 6.13-1.661 2.33-.101 4.26.278 5.79 1.168l2.76 1.59c1.53.883 2.2 2 2.04 3.34-.17 1.352-1.13 2.52-2.89 3.539l-12.78 7.371c-1.75 1.02-3.8 1.59-6.13 1.68-2.33.101-4.25-.301-5.78-1.18-.78-.449-1.75-.64-2.91-.59-1.17.063-2.2.352-3.08.86l-1.44 1.75 1.05 1.672c3.05 1.757 6.9 2.539 11.56 2.347 4.65-.199 8.74-1.308 12.27-3.34l12.77-7.378c3.53-2.028 5.45-4.391 5.79-7.079.32-2.671-1.03-4.91-4.08-6.671l-2.76-1.598c-1.62-.934-3.54-1.582-5.76-1.961s-4.51-.5-6.88-.32c.29-1.371.11-2.692-.55-3.969-.66-1.281-1.79-2.402-3.41-3.332" fill="#fff"/><path d="m1297.88 540.422-11.19 6.469-.84 1.019.58.981 1.71.328 1.78-.469 3.73-2.148 16.14 9.32 1.2 1.93c-.1.769-.65 1.457-1.64 2.046l-.06.032-.85 1.039.59.961 1.69.359 1.8-.488-.02-.02.02.02c2.06-1.192 3.19-2.571 3.39-4.141.19-1.57-.6-2.871-2.39-3.89l-16.14-9.329 3.73-2.152.85-1.039-.61-.98-1.69-.329z" fill="#fff"/><path d="m1331.83 532.012-7.46 4.297c-1.02.601-2.22.921-3.58.98-1.36.063-2.48-.168-3.37-.687l-2.42-1.403-.3-.48.41-.52 15.88-9.16.83-1.039-.59-.98-1.69-.329-1.78.481-18.67 10.777-.84 1.031.6.981 4.84 2.789c1.78 1.031 4.03 1.488 6.75 1.379s5.1-.758 7.16-1.949l7.46-4.309c1.03-.59 2.22-.922 3.59-.98 1.37-.059 2.5.16 3.39.679l3.24 1.86 1.18 1.949c-.09.781-.67 1.48-1.72 2.09l-7.45 4.301c-1.03.589-2.22.921-3.59.98-1.35.059-2.48-.18-3.37-.691l-1.69-.348-1.77.48-.87 1.039.6.981c1.79 1.027 4.03 1.488 6.75 1.379 2.72-.121 5.11-.77 7.17-1.949l7.45-4.313c2.08-1.199 3.22-2.578 3.41-4.148.19-1.571-.6-2.871-2.38-3.899l-3.23-1.871c-1.78-1.019-4.03-1.48-6.75-1.371-2.71.109-5.12.77-7.19 1.973" fill="#fff"/><path d="m1376.57 506.18-7.46 4.3c-1.03.598-2.22.918-3.58.981-1.36.059-2.48-.172-3.37-.691l-2.43-1.399-.29-.48.42-.52 15.88-9.172.83-1.027-.6-.981-1.69-.339-1.78.488-18.67 10.781-.84 1.027.6.981 4.84 2.801c1.78 1.019 4.03 1.48 6.74 1.371 2.72-.11 5.12-.762 7.17-1.949l7.46-4.313c1.03-.59 2.23-.918 3.6-.98 1.36-.071 2.49.16 3.38.679l3.23 1.864 1.19 1.949c-.09.777-.67 1.48-1.71 2.078l-7.47 4.312c-1.02.59-2.21.918-3.58.981-1.36.058-2.48-.18-3.37-.692l-1.69-.351-1.77.48-.87 1.039.61.981c1.78 1.031 4.02 1.492 6.74 1.383 2.72-.121 5.11-.774 7.16-1.953l7.46-4.309c2.08-1.199 3.22-2.578 3.41-4.16.2-1.559-.59-2.86-2.38-3.891l-3.22-1.867c-1.79-1.023-4.04-1.48-6.76-1.371-2.71.109-5.11.769-7.19 1.969" fill="#fff"/><path d="m1412.24 483.719-1.62-.93c-1.78-1.027-4.04-1.488-6.75-1.367-2.72.098-5.1.75-7.16 1.949l-7.46 4.301c-2.06 1.187-3.19 2.566-3.38 4.137-.19 1.57.6 2.871 2.38 3.902l1.67.34 1.8-.481.84-1.039-.58-.98-1.19-1.949c.1-.782.66-1.473 1.69-2.063l7.45-4.309c1.03-.589 2.23-.921 3.59-.968 1.36-.063 2.48.168 3.37.679l1.62.93 1.18 1.949c-.09.789-.65 1.481-1.68 2.071l-1.86 1.078-.87 1.031.6.969 1.69.351 1.8-.488 1.87-1.07c1.02-.602 2.22-.922 3.58-.981 1.35-.062 2.48.168 3.37.688l1.62.929 1.19 1.954c-.1.777-.67 1.468-1.7 2.07l-7.45 4.297c-1.03.59-2.22.922-3.58.98-1.36.051-2.48-.179-3.37-.687l-1.71-.34-1.79.488-.85 1.031.61.969c1.79 1.031 4.04 1.488 6.75 1.379 2.72-.117 5.11-.758 7.17-1.961l7.46-4.297c2.06-1.191 3.19-2.57 3.38-4.133.19-1.578-.6-2.867-2.38-3.91l-1.62-.929c-.94-.539-2.06-.918-3.36-1.137-1.3-.223-2.63-.293-4.02-.192l-.32-2.32c-.38-.75-1.04-1.398-1.98-1.941" fill="#fff"/><path d="m1334.3 514.871-.07.149.67 1.621 32.4 13.461 1.63-.672-.67-1.621-32.41-13.457z" fill="#fff"/><path d="m1722.23 665.398-108.38-62.566c-8.11-4.684-21.25-4.684-29.36 0l-132.27 75.367c-8.11 4.68-8.11 12.27 0 16.949l108.39 62.571c8.11 4.679 21.26 4.679 29.37 0 35.86-20.707 96.39-54.66 132.25-75.367 8.11-4.672 8.11-12.274 0-16.954" fill="#26b6a6"/><g clip-path="url(#a)"><path d="m1599.17 599.32c-5.32 0-10.63 1.168-14.68 3.512l-132.27 75.367c-4.05 2.34-6.08 5.403-6.08 8.473 0 3.066 2.03 6.137 6.08 8.476l108.39 62.571c4.05 2.34 9.37 3.511 14.68 3.511 5.32 0 10.63-1.171 14.69-3.511 35.86-20.707 96.39-54.66 132.25-75.367 4.05-2.332 6.08-5.403 6.08-8.473s-2.03-6.141-6.08-8.481l-108.38-62.566c-4.05-2.344-9.37-3.512-14.68-3.512" fill="#bee9e1"/><g fill="#26b6a6"><path d="m1718.17 633.16 9.96 1.91-216.73 124.129-9.96-1.91z"/><path d="m1580.3 650.91 9.96-1.922 55.21 31.883-9.96 1.918z"/><path d="m1528.73 679.531 9.96-1.922 55.13 31.821-9.96 1.922z"/><path d="m1662.84 601.211 9.96 1.918-216.72 124.133-9.96-1.922z"/></g></g><path d="m1030.72 678.969-517.853 298.98c-8.996 5.199-23.597 5.199-32.597 0l-2.262-1.308c-9.004-5.192-9.004-13.621-.008-18.821l517.863-298.98c8.997-5.199 23.597-5.199 32.587 0l2.28 1.308c8.99 5.204 8.99 13.622-.01 18.821" fill="#33535f"/><path d="m982.613 1252.77c1.008.41 2.016.59 3.016.52 1.023-.09 1.859-.32 2.523-.71l8.172-4.71 1.211-1.58-1.191-1.56c-2.977-1.48-6.43-2.68-10.356-3.59-3.945-.91-8.226-1.31-12.875-1.19-4.625.11-9.504.83-14.621 2.15-5.101 1.32-10.277 3.5-15.531 6.52-4.648 2.68-8.063 5.45-10.238 8.3-2.203 2.86-3.301 5.71-3.34 8.57-.039 2.85.965 5.67 3.039 8.45 2.023 2.78 4.945 5.41 8.719 7.9 2.406 1.54 5.175 3.21 8.265 5.01 3.094 1.78 5.996 3.37 8.688 4.77 4.304 2.17 8.855 3.85 13.672 5.04 4.8 1.18 9.691 1.76 14.625 1.74 4.945-.02 9.875-.65 14.849-1.92 4.92-1.26 9.72-3.24 14.35-5.92 5.25-3.02 9.03-6.01 11.3-8.97 2.3-2.95 3.55-5.76 3.74-8.44.21-2.68-.5-5.17-2.13-7.46-1.61-2.29-3.65-4.27-6.12-5.94-.76-.5-1.67-.74-2.73-.71-1.08.05-1.99.29-2.73.71l-8.17 4.72-1.28 1.49.88 1.77c1.12.89 1.97 1.92 2.52 3.09.53 1.16.67 2.41.4 3.74-.27 1.31-1.06 2.72-2.37 4.21-1.33 1.49-3.3 3-5.92 4.51-2.62 1.52-5.304 2.6-8.058 3.27-2.75.65-5.461.98-8.137.96-2.652-.02-5.269-.37-7.867-1.04-2.582-.69-4.988-1.59-7.207-2.71-2.695-1.41-5.594-3-8.664-4.78-3.113-1.79-5.863-3.46-8.289-5.01-2.031-1.33-3.582-2.72-4.742-4.2-1.137-1.47-1.727-2.98-1.762-4.51-.039-1.53.527-3.11 1.668-4.69 1.137-1.6 3.016-3.15 5.652-4.67 2.614-1.5 5.231-2.64 7.813-3.4 2.597-.76 5.043-1.23 7.359-1.4 2.328-.17 4.492-.1 6.524.2 2.003.31 3.789.81 5.343 1.47" fill="#26b6a6"/><path d="m1038.31 1239.6 14.62-8.45c3.83-2.22 7.57-3.6 11.21-4.14 3.62-.54 7.34.27 11.09 2.45 3.78 2.17 5.16 4.29 4.14 6.35-1.01 2.05-3.43 4.2-7.27 6.41l-14.62 8.44zm46.94 9.6c8.4-4.84 12.83-9.67 13.29-14.44.49-4.78-2.75-9.17-9.69-13.17-4.91-2.83-10.22-4.61-15.93-5.29-5.71-.7-11.61-.28-17.66 1.27l-10.99-22.42-.82-.83-2.22-.51-2.22.52-8.57 4.95c-1.35.78-2.03 1.54-2.03 2.28l.42 1.81 10.29 21.2-13.42 7.75-23.51-13.57c-.75-.44-1.66-.65-2.733-.65-1.066 0-1.973.21-2.715.64l-8.176 4.72-1.117 1.57 1.117 1.58 65.184 37.63c.74.43 1.65.64 2.73.63 1.06.01 1.99-.2 2.73-.63z" fill="#26b6a6"/><path d="m1113.08 1166.13 1.1-1.56-1.12-1.58-7.14-4.13c-.75-.44-1.65-.65-2.73-.65-1.09 0-1.98.21-2.72.64l-44.3 25.57-1.11 1.58 1.11 1.57 65.18 37.65c.74.41 1.65.63 2.73.62 1.06.01 1.99-.21 2.73-.62l43.49-25.12 1.09-1.58-1.09-1.56-7.17-4.15c-.74-.42-1.65-.63-2.73-.63-1.09 0-1.99.21-2.73.64l-32.58 18.82-16.04-9.27 30.36-17.53 1.12-1.58-1.11-1.57-7.17-4.13c-.73-.44-1.65-.65-2.73-.65-1.07 0-1.99.21-2.73.65l-30.36 17.53-16.76-9.67z" fill="#26b6a6"/><path d="m1202.67 1149.24c2.01 1.32 3.6 2.72 4.74 4.2s1.72 3.01 1.72 4.6c0 1.6-.66 3.21-1.97 4.86s-3.41 3.32-6.31 4.99l-13.52 7.81-45.4-26.23 14.01-8.09c2.77-1.6 5.54-2.76 8.33-3.47 2.8-.73 5.53-1.08 8.23-1.08 2.69 0 5.32.34 7.92 1.02 2.58.68 5.03 1.61 7.32 2.77 5.24 2.73 10.23 5.59 14.93 8.62zm11.3 25.64c4.99-2.88 8.64-5.75 11-8.62 2.35-2.89 3.54-5.72 3.58-8.54s-1-5.59-3.13-8.33c-2.12-2.74-5.15-5.41-9.14-8.01-4.7-3.03-9.67-5.9-14.92-8.63-4.52-2.29-9.14-4.04-13.86-5.26-4.76-1.23-9.54-1.83-14.38-1.83-4.85 0-9.73.65-14.64 1.97-4.91 1.33-9.78 3.37-14.64 6.18l-25.43 14.68-1.1 1.57 1.1 1.58 65.18 37.63c.74.42 1.67.63 2.73.63 1.08 0 1.99-.21 2.73-.63z" fill="#26b6a6"/><path d="m1189.45 1107.47-1.1 1.57 1.1 1.58 65.18 37.64c.74.42 1.67.63 2.73.62 1.08.01 1.99-.2 2.73-.62l8.17-4.72 1.1-1.58-1.1-1.57-65.18-37.64c-.73-.42-1.65-.64-2.73-.64-1.08.01-1.99.22-2.73.63z" fill="#26b6a6"/><path d="m1333.76 1105.72 1.1-1.57-1.12-1.58-7.17-4.13c-.73-.43-1.63-.64-2.71-.64s-1.99.21-2.73.64l-18.16 10.49-55.28-31.93c-.74-.42-1.65-.63-2.74-.64-1.08.01-1.98.22-2.73.64l-8.17 4.71-1.12 1.58 1.14 1.57 55.28 31.94-18.17 10.49-1.1 1.56 1.1 1.58 7.17 4.14c.74.42 1.65.63 2.73.62 1.06.01 1.99-.2 2.73-.62z" fill="#26b6a6"/><path d="m1362.21 1033.6c1 .42 2.01.6 3.01.54 1.01-.09 1.86-.33 2.53-.72l8.17-4.71 1.21-1.57-1.21-1.58c-2.96-1.47-6.41-2.67-10.34-3.58-3.94-.91-8.23-1.31-12.87-1.19-4.63.11-9.5.83-14.63 2.16-5.11 1.31-10.29 3.49-15.52 6.52-4.65 2.67-8.07 5.44-10.25 8.3-2.2 2.85-3.31 5.71-3.33 8.56-.04 2.86.96 5.67 3.03 8.46 2.03 2.76 4.95 5.4 8.73 7.89 2.4 1.55 5.17 3.22 8.26 5s5.99 3.38 8.69 4.78c4.3 2.17 8.86 3.85 13.67 5.05 4.8 1.17 9.69 1.76 14.62 1.74 4.95-.02 9.88-.67 14.85-1.92 4.93-1.26 9.73-3.24 14.35-5.92 5.26-3.03 9.03-6.02 11.31-8.97 2.29-2.95 3.54-5.77 3.73-8.45.21-2.67-.51-5.16-2.12-7.45-1.61-2.3-3.66-4.28-6.14-5.95-.75-.5-1.65-.73-2.71-.7-1.09.05-2 .28-2.74.7l-8.17 4.71-1.27 1.5.87 1.78c1.12.89 1.97 1.92 2.52 3.08.53 1.16.67 2.41.4 3.74-.27 1.31-1.06 2.73-2.37 4.22-1.32 1.48-3.3 3-5.91 4.51-2.62 1.52-5.32 2.6-8.07 3.27-2.74.65-5.47.97-8.13.96-2.66-.03-5.27-.38-7.87-1.05-2.58-.69-4.99-1.58-7.21-2.72-2.69-1.39-5.59-2.99-8.66-4.78-3.11-1.78-5.86-3.45-8.29-5-2.03-1.32-3.59-2.71-4.74-4.19-1.14-1.48-1.73-2.98-1.77-4.52-.03-1.53.54-3.1 1.67-4.68 1.14-1.6 3.02-3.15 5.65-4.67 2.62-1.51 5.24-2.65 7.82-3.41 2.6-.76 5.04-1.22 7.35-1.4 2.34-.18 4.5-.1 6.53.2 2.01.32 3.79.8 5.35 1.46" fill="#26b6a6"/><path d="m1429.79 999.109 17.66 23.021-39.84-10.2zm38.76 28.791c1.09-.63 1.6-1.25 1.56-1.9l-1.16-2.29-39.04-51.101-.61-.468c-.74-.422-1.65-.641-2.73-.641-1.06 0-1.97.219-2.71.641l-7.29 4.187c-1.32.781-1.99 1.492-1.97 2.133l.57 1.609 6.87 8.969-31.9 18.411-15.53-3.96c-.74-.2-1.67-.3-2.79-.32-1.1-.02-2.33.36-3.68 1.14l-7.24 4.19-1.12 1.57 1.12 1.58.8.34 88.5 22.55c1.54.42 2.86.64 3.98.66 1.1.03 2.2-.27 3.28-.89z" fill="#26b6a6"/><path d="m1488.22 979.84 14.62-8.449c3.85-2.211 7.59-3.59 11.21-4.141s7.34.281 11.09 2.449c3.77 2.18 5.16 4.289 4.15 6.352-1 2.058-3.43 4.187-7.28 6.41l-14.62 8.449zm46.93 9.609c8.41-4.84 12.85-9.668 13.3-14.437.49-4.782-2.75-9.18-9.69-13.18-4.91-2.832-10.2-4.602-15.93-5.293-5.71-.699-11.61-.277-17.66 1.281l-11-22.429-.79-.821-2.24-.519-2.22.531-8.57 4.949c-1.35.77-2.01 1.539-2.03 2.27l.42 1.801 10.3 21.207-13.43 7.75-23.52-13.571c-.73-.429-1.64-.648-2.73-.648-1.06 0-1.97.211-2.71.648l-8.17 4.723-1.12 1.559 1.12 1.582 65.17 37.628c.75.43 1.66.64 2.74.64 1.06 0 1.99-.21 2.73-.64z" fill="#26b6a6"/><path d="m1591.42 924.5c2.02 1.32 3.59 2.73 4.74 4.199 1.14 1.473 1.71 3 1.71 4.602 0 1.59-.65 3.219-1.97 4.871-1.31 1.648-3.42 3.308-6.3 4.976l-13.52 7.801-45.42-26.211 14.03-8.09c2.76-1.597 5.55-2.757 8.33-3.476 2.79-.723 5.54-1.082 8.23-1.082s5.33.34 7.93 1.031c2.58.668 5.02 1.59 7.3 2.75 5.25 2.731 10.22 5.609 14.94 8.629zm11.31 25.629c4.98-2.867 8.64-5.738 10.99-8.617 2.36-2.871 3.55-5.711 3.59-8.543.04-2.797-1.02-5.578-3.13-8.328-2.14-2.731-5.18-5.403-9.14-7.993-4.71-3.039-9.69-5.91-14.94-8.636-4.5-2.293-9.15-4.043-13.87-5.274-4.74-1.218-9.52-1.84-14.37-1.84-4.84 0-9.73.672-14.64 2-4.91 1.301-9.79 3.372-14.62 6.161l-25.43 14.691-1.12 1.559 1.12 1.589 65.18 37.633c.73.418 1.65.641 2.73.629 1.06.012 1.99-.211 2.73-.629z" fill="#26b6a6"/><path d="m3756.2 3529.5c-29.1-62.59-78.89-166.15-106.16-223.58l-106.83 125.75h-89.74s108.01-230.27 172.42-283.79c24.15-20.07 54.61-17.68 73.69 4.44 19.08 22.11 43.35 54.95 72.31 99.64 51.04 78.75 73.78 112.78 73.78 112.78l64.28 270.12c-56.34 4.49-113.36-18.47-153.75-105.36" fill="#f6879f"/><path d="m3920.32 3635.39c-34.35 1.34-71.6 5.59-104.36-22.97-21.53-18.78-49.16-48.41-71.31-100.4-22.15-51.98-56.36-117.87-56.36-117.87s23.89-37.11 64.06-66.84c40.17-29.72 76.84-32.34 76.84-32.34z" fill="#26b6a6"/><path d="m3803.38 3300.77c-13.91 4.53-32.08 12.52-51.03 26.54-40.17 29.73-64.06 66.84-64.06 66.84s34.21 65.89 56.36 117.87c22.15 51.99 49.78 81.62 71.31 100.4 23.21 20.23 48.66 24 73.75 24 8.85 0 17.66-.47 26.3-.85-34.58-3.42-49.01-14.49-70.95-42.16-29.62-37.34-35.81-107.58-39.18-187.14-.93-21.91-1.77-60.74-2.5-105.5" fill="#0a8372"/><path d="m3650.04 3305.92s25.88-30.89 32.84-44.82c0 0-11.47 42.42-27.09 56.9z" fill="#f47089"/><path d="m3426.45 3598.85-.17-.04 8.51 8.93.02-.11c1.94 1.89 5.14 2.73 9.47 2l103.43-17.57c9.59-1.63 20.66-10.11 24.72-18.94l92.95-202.14c2.16-4.68 1.84-8.48-.29-10.82l.08-.02-8.79-9.2-.01.12c-1.91-1.95-5.16-2.82-9.54-2.08l-103.44 17.56c-9.59 1.62-20.66 10.11-24.71 18.94-18.26 39.74-74.71 162.42-92.96 202.15-2.28 4.98-1.79 8.94.73 11.22" fill="#33535f"/><path d="m3656.83 3362.03-92.95 202.14c-4.06 8.83-15.12 17.32-24.71 18.95l-103.44 17.56c-9.59 1.62-14.07-4.22-10.01-13.05 18.25-39.73 74.7-162.41 92.96-202.14 4.05-8.84 15.12-17.33 24.71-18.95l103.44-17.56c9.58-1.62 14.07 4.22 10 13.05" fill="#17282f"/><path d="m3550.71 3578.38c5.66-3.63 10.72-8.9 13.19-14.24l92.97-202.07c2.02-4.53 1.93-8.26.01-10.59l8.27 8.62-.1.08c2.18 2.36 2.48 6.1.34 10.82l-92.98 202.16c-2.26 4.98-6.9 9.82-12.2 13.48z" fill="#273e47"/><path d="m3475.41 3398.92c-42.79 49.14-41.6 110.63-21.94 128.35l13.05-28.39s65.48-14.56 96.96-12.15c31.5 2.41 57.24 9.88 65.86 3.81 18.28-12.88 23.52-67.75-28.82-87.68-44.52-16.94-125.11-3.94-125.11-3.94" fill="#f6879f"/><path d="m4227.87 1785.4c-27.64-14.84-61.32-13.64-94.2 0l-13.64 179.21 107.85-14.23z" fill="#f6879f"/><path d="m3897.2 1892.52c-23.34-50.47-65.48-36.5-112.97-4.17l8.34 180.09h114.52z" fill="#f6879f"/><path d="m4026.06 1615.8c-3.04-2.85-2.13-22.41 1.23-27.68 3.6-5.65 24.26-23.27 61.61-25.94 35.71-2.56 67.58 2.25 88.54 15.56s31.1 27.99 33.08 48.32c1.97 20.34-.3 39.96 9.4 55.61 8.95 14.45 23.21 30.74 26.32 38.57 6.76 17.05.24 41.42.24 41.42z" fill="#17282f"/><path d="m4124.01 1793.3c-.6-7.54-1.87-15.04-4.36-22.61-5.17-15.77-13.04-30.61-21.86-44.73-4.55-7.27-9.34-14.41-14.89-21-10.79-12.85-24.21-23.4-35.64-35.72s-21.14-27.27-22.04-43.82c-1.52-28 28.87-37.51 52.27-41.68 24.98-4.45 51.64-3.11 76.02 3.82 27.13 7.71 46.71 28.73 51.21 55.79 1.29 7.77.81 15.72 1.73 23.55 2.1 17.84 11.34 34.15 21.78 48.98 6.05 8.61 12.64 17.01 16.71 26.66 7.29 17.33 1.44 36.84-3.22 54.1-4.04 14.9-8.6 31.78-13.84 30.37-.03-3.01.2-6.22-1.24-8.95-1.72-3.25-3.05-5.05-4.13-8.83-1.14-3.94-2.42-7.84-4.25-11.52-2.78-5.62-6.89-10.78-12.42-13.72-.35 10.57-.71 21.14-1.06 31.71-.1 3.28-.31 6.82-2.43 9.31-2.16 2.53-5.68 3.28-8.94 3.89-19.78 3.68-39.94 7.37-59.91 4.96-2.98-.36-6.3-1.06-8.03-3.52-1.44-2.02-1.41-4.68-1.34-7.16.31-10.19.66-20.07-.12-29.88" fill="#273e47"/><path d="m4094.01 1720.09c10.43 7.81 33.79 7.91 46.56 6.55 16-1.72 28.96-7.33 36.31-12.75 3.26-2.4 7.82-1.98 10.7.85 3.44 3.4 3.13 9.01-.8 11.89-7.79 5.74-21.9 13.81-40.85 15.14-31.44 2.22-40.66-3.17-40.66-3.17s-14.33-9.23-11.26-18.51" fill="#f3f2f1"/><path d="m4070.04 1691.4c13.11 7.75 38.81 6.64 51.58 5.27 16-1.72 27.95-8.01 35.31-13.43 3.26-2.4 7.82-1.99 10.69.84 3.45 3.41 3.13 9.01-.79 11.9-7.8 5.73-22.78 15.01-41.73 16.34-31.44 2.22-39.63-4.2-39.63-4.2s-13.27-5.14-15.43-16.72" fill="#f3f2f1"/><path d="m4158.45 1771.86c-21.73 2.24-30.94-.19-39.53-3.31-5.53-3.11-9.18-11.86-5.61-14.08 6.99 3.89 19.59 5.5 35.03 4.81 10.35-.46 23.4-4.65 33.99-9.34 2.69-1.19 5.87-2.86 8.65-4.41 3.76-2.08 8.55-.6 10.35 3.22 1.53 3.24.4 7.1-2.73 8.98-7.6 4.6-22.61 12.31-40.15 14.13" fill="#f3f2f1"/><path d="m3596.63 1777.32c-2.94-6.14-2.09-17.64 1.4-24.93 3.47-7.29 41.56-28.77 92.93-25.3s86.66 24.16 106.24 37.13 39.98 15.39 65.42 16.85 58.84 14.14 64.43 26.04c5.57 11.89-.84 32.39-.84 32.39z" fill="#17282f"/><path d="m3803.08 1935.3c-4.44 1.62-8.88 3.26-13.33 4.88-2.45.9-5.15 1.8-7.59.88-3.29-1.23-4.57-5.11-5.45-8.51-1.79-6.94-2.52-15.95-5.61-22.32-2.79-5.78-9.62-11.08-14.41-15.14-12.46-10.54-26.78-18.8-41.12-26.5-16.77-9.02-33.22-16.02-50.54-23.81-17.68-7.95-41.15-12.81-54.97-22.13-20.17-13.59-22.77-47.73.2-61.21 19.82-11.63 71.94-24.23 126.63-8.75 29.79 8.44 62.84 40.27 101.95 43.33 24.86 1.94 71.87 8.93 87.88 27.81 5.91 8.37-1.99 34.92-8.47 57.83-7.08 25.01-9.78 64.13-18.06 61.93-.58-8.32-7.78-13.14-12.15-20.11-3.85-6.16-6.02-13.21-8.92-19.87-2.9-6.67-6.81-13.27-12.98-17.11s-15.07-4.07-20.14 1.15c-7.32 7.55-2.98 20.83-8.32 29.9-3.61 6.16-10.83 9.03-17.53 11.49-5.69 2.08-11.38 4.17-17.07 6.26" fill="#273e47"/><path d="m3738.8 1882.11s3.57 9.54 18.36 12.29c11.31 2.1 31.29-6.23 43.71-16.46 5.08-4.19 4.42-12.15-1.34-15.33-3.43-1.9-7.64-1.4-10.6 1.18-8.13 7.08-26.39 19.96-50.13 18.32" fill="#f3f2f1"/><path d="m3703.74 1862.48s7.3 11.42 21.75 11.2c0 0 29.54-.85 47.83-17.89 4.66-4.35 4.33-11.75-1.25-14.82-3.32-1.82-7.37-1.34-10.21 1.18-8.23 7.36-24.74 22.82-58.12 20.33" fill="#f3f2f1"/><path d="m3665.03 1844.78s8.13 10.34 22.59 10.12c0 0 27.52-1.03 45.81-18.07 4.65-4.35 4.34-11.75-1.25-14.82-3.32-1.82-7.38-1.34-10.21 1.18-8.23 7.36-23.56 24.08-56.94 21.59" fill="#f3f2f1"/><path d="m4214.16 3134.31c6.46-196.09 5.97-670.48 5.97-670.48 2.07-24.4 11.98-74.49 20.11-172.15 10.58-127.02-12.36-406.38-12.36-406.38s-46.6-23.8-102.36-.56c0 0-61.33 398.18-80.78 523.82-17.07 110.39-50.57 358.34-50.57 358.34l-38.63-322.43s9.24-76.26-3.95-161.11c-8.99-57.8-49.03-295.45-49.03-295.45s-52.81-16.2-113.52 4.31c0 0-3.78 411.7-4.81 465.23-1.18 61.03 27.03 725.25 27.03 725.25z" fill="#273e47"/><path d="m3994.17 2766.91-29.01 160.68s-80.39 7.03-124.79 51.85c0 0 7.91-43.94 108.97-70.31l28.99-162.59-22.79-302.07z" fill="#17282f"/><path d="m3821.15 3484.43c8.66 62.79 16.94 147.18 114.27 151.05l125.54-5.98c30.92-8.04 151.16-22.31 151.16-22.31l2.23-272.39s7.69-196.36 5.32-301.48c-89.92-57.02-285.5-75.5-408.41 17.76-3.65 86.78 1.32 371.18 9.89 433.35" fill="#fafaf9"/><path d="m3837.34 3958.65c-9.62-16.97-15.45-36.41-16.12-57.26-1.66-51.08 27.72-95.93 71.13-116.53l-22.65-15.51 225.83-20.24-2.92-54.36s15.95 3.67 24.08 18.15c8.13 14.49 30.12 103.53 30.12 103.53 21.18 48.61 31.58 98.61 16.39 115.18-7.25 7.9-15.59 11.46-22.46 13.03l30.31 15.04c-5.78 12.68-20.39 18.05-32.63 11.98-2.64-1.31-4.89-3.11-6.84-5.15.73 3.17 1.34 6.38 1.54 9.67.63 9.88-1.11 20.21-6.75 28.34-4.05 5.8-9.83 10.17-15.84 13.92-25.42 15.85-55.56 21.8-83.81 31.8-16.03 5.67-31.54 12.69-47.31 19.05-10.59 4.26-22.02 8.3-33.22 6.06-11.2-2.23-21.42-13.27-18.55-24.32-14.6 11.45-29.73 14.4-46.67 7.07-13.98-6.05-24.81-21.15-22.78-36.77-10.24 2.06-21.35 1.87-30.61-2.97-9.27-4.83-16.16-15.06-14.88-25.44 1.55-12.51 12.65-24.66 24.64-34.27" fill="#273e47"/><path d="m3996.32 3926.85c20.75 2.47 41.37 5.82 62.02 9.08 1.86.29 3.99.52 5.45-.68.92-.77 1.36-1.96 1.75-3.1 13.55-39.52 13.2-82.5 23.95-122.87.98-3.65 3.27-9.92 7.75-10.44 8-.93 13.45 6.19 16.88 12.37 2.56 4.62 5.12 9.25 7.68 13.88 1.63 2.93 3.55 4.81 5.65 7.13 9.68 8.94 38.34 19.83 51.61-10.64 13.74-31.56-15.13-71.74-38.2-78.17-39.78-11.08-44.87 14.36-44.87 14.36l-7.62-141.92c-35.16-36.81-150.91-23.99-127.98 7.92l1.51 43.22s-35.85-4.26-53.16-1c-28.81 5.41-46.29 28.85-54.05 60.48-12.48 50.8-11.13 112.96-1.32 190.24 1.24 9.8 3.92 18.58 7.09 26.58 40.5-22.32 89.79-21.93 135.86-16.44" fill="#f6879f"/><path d="m3961.9 3666.98s65.06 10.93 88.05 22.2c15.39 7.55 28.3 21.09 32.25 29.9 0 0-4.87-19.04-18.93-35.88-17.22-20.59-101.92-33.41-101.92-33.41z" fill="#f47089"/><path d="m3971.19 3827.22c-.25-7.95 5.75-14.59 13.41-14.82s14.08 6.03 14.33 14c.27 7.96-5.74 14.59-13.4 14.82s-14.08-6.04-14.34-14" fill="#17282f"/><path d="m3990.54 3885 29.09-12.53c3.29 8.32-.55 17.88-8.58 21.34s-17.21-.49-20.51-8.81" fill="#17282f"/><path d="m3988.01 3751.68-45.61-15.44c4.03-13.06 17.52-20.19 30.12-15.93 12.6 4.27 19.53 18.32 15.49 31.37" fill="#c35363"/><path d="m3972.52 3720.31c8.05 2.73 13.75 9.47 15.78 17.38-2.54 1.13-5.34 1.8-8.3 1.8-11.03 0-19.94-8.75-20.33-19.67 4.11-1.01 8.52-.97 12.85.49" fill="#f47089"/><path d="m3855.64 3873.3 28.97 11.1c-2.84 7.92-11.62 11.86-19.63 8.8-8-3.07-12.18-11.98-9.34-19.9" fill="#17282f"/><path d="m3865.81 3827.22c-.27-8.01 5.78-14.69 13.49-14.92s14.17 6.08 14.44 14.09c.25 8.02-5.78 14.7-13.5 14.92-7.71.23-14.18-6.08-14.43-14.09" fill="#17282f"/><path d="m3933.62 3831.48-2.09-76.72-42.82 12.35 39.91 65c1.86.19 3.5-.08 5-.63" fill="#f47089"/><path d="m3805.88 3406.27c3.37 79.56 9.56 149.8 39.18 187.14 29.6 37.34 45.54 44.45 115.77 43.32l-.2-4.8c-8.16-.73-15.32-4.72-19.87-11.54-12.88-19.34-39.07-63.24-54.01-120-20.36-77.31-23.86-249.89-24.92-342.9-1.04-93.01 0-167.86 0-167.86s-46.99 10.97-61.55 34.51c0 0 2.24 302.57 5.6 382.13" fill="#26b6a6"/><path d="m3861.83 2989.63s-46.99 10.97-61.55 34.51c0 0 2.24 302.57 5.6 382.13 3.37 79.56 9.56 149.8 39.18 187.14 27.74 34.99 43.48 43.43 103.14 43.43 4 0 8.21-.04 12.63-.11l-.2-4.8c-8.16-.73-15.32-4.72-19.87-11.54-12.88-19.34-39.07-63.24-54.01-120-20.36-77.31-23.86-249.89-24.92-342.9-.35-31.06-.46-60.1-.46-85 0-49.66.46-82.86.46-82.86" fill="#06a088"/><path d="m4048.62 3532.91c10 42.38 30.69 70.33 39.96 91.93l87.8-12.42c32.33-14.91 74.36-50.53 71.23-85.99l-22.99-260.63 6.38-246.74c-50.15-77.96-199.75-63.57-199.75-63.57s-4.25 111.02.56 325.46c2.7 120.2 4.05 197.91 16.81 251.96" fill="#26b6a6"/><path d="m4058.99 2954.44c-16.87 0-27.74 1.05-27.74 1.05s-.39 10.19-.8 30.37c-.45 22.28-.93 56.75-.93 103.1 0 50.18.55 114.3 2.29 191.99 2.7 120.2 4.05 197.91 16.81 251.96 10 42.38 30.69 70.33 39.96 91.93l82.51-11.67c-4.03-.35-6.36-.75-6.36-.75s-10.82-28.62-10.83-81.54c-.01-7.56.21-15.61.72-24.15.66-11.17 2.39-21.98 4.84-32.27-42.2 7.13-81.64 12.42-118.12 15.84-.3-2.39-.58-4.85-.84-7.32 37.28-3.48 77.68-8.94 120.98-16.32 13.55-48.64 41.62-83.59 41.62-83.59l26.53-60.44-5.01-56.83 6.38-246.74c-36.63-56.94-126.31-64.62-172.01-64.62" fill="#06a088"/><path d="m4044.5 3512.02c5.78 27.24 8.92 77.84 13.66 88 4.75 10.18 30.89 30.49 31.91 44.12l.46 8.9s10.58-1.24 21.94-11.33c8.18-7.28 32.45-24.24 32.45-24.24s-2.4-24-18.21-46.79c-14.37-20.71-34.45-34.22-37.55-29.11-2.91 4.79-2.58 12.93-7.86 24.99-6.6 15.1-8.16 21.48-15.18 6.57-5.62-11.95-21.62-61.11-21.62-61.11" fill="#273e47"/><path d="m3894.77 3526.87c-7.13-22.93 11.67 79.42 23.82 97.42 12.15 18.01 43.21 25.1 43.21 25.1l-1.33-22.12s-10.12-1.23-19.81-13.78c-7.82-10.11-36.13-55.22-45.89-86.62" fill="#273e47"/><path d="m4041.34 3490.3c59.25-5.55 126.29-16.04 200.32-31.33l-.66-7.38c-74.16 15.34-141.26 25.85-200.5 31.39.26 2.47.54 4.93.84 7.32" fill="#26b6a6"/><path d="m3812.12 3491.94c21.87 2.56 46.75 4.84 74.06 6.16-.61-2.41-1.2-4.9-1.79-7.47-26.96-1.35-51.57-3.64-73.13-6.2.28 2.52.55 5.04.86 7.51" fill="#26b6a6"/><path d="m4411.44 3261.1c-93.81 238.17-114.38 312.34-180.51 339.74-25.47 10.54-54.55 11.58-54.55 11.58-16.25-29.83-40.24-145.22 38.18-225.36 0 0 56.79-140.16 85.43-206.27-.94-66.53 3.91-122.06-16.39-212.08-2.15-9.5-13.67-25.38-22.63-30.32-23.78-13.11-27.74-27.88-45.33-44.79-13.75-13.22-25.77-16.25-23.73-20.65 2.62-5.65 13.14-15 30.43-10.66 8.7 2.18 22.97 11.48 36.83 19.32 2.29-2.69-19.9-38.22-43.12-64.1-34.22-38.14-42.54-65.64 25.95-68.3 42.91-1.66 89.22 33.47 118.28 118.96 5.75 16.92 11.72 41.39 17.8 65.13 4.44 10.24 35.77 170.65 42.41 219.63 8.38 62.02 6.18 69.5-9.05 108.17" fill="#f6879f"/><path d="m4164.73 3612.42s45.91 7.77 83.05-14.61c37.13-22.36 49.95-41.96 94.71-146.22 44.74-104.25 53.52-124.28 53.52-124.28s-20.19-59.36-139.38-66.21l-53.53 121.97s-44.45 55.35-48.48 123.66 10.11 105.69 10.11 105.69" fill="#26b6a6"/><path d="m4256.63 3261.1-27 61.53-26.53 60.44s-28.07 34.95-41.62 83.59c-3.5 12.56-6.04 26.04-6.86 40.07-.51 8.54-.73 16.59-.72 24.15.01 52.92 10.83 81.54 10.83 81.54s7.71 1.31 19.36 1.31c16.79 0 41.77-2.71 63.69-15.92 37.13-22.36 49.95-41.96 94.71-146.22 44.74-104.25 53.52-124.28 53.52-124.28s-1.51-4.45-6.16-11.05c-11.87-16.88-44.19-47.82-123.95-54.5-3.02-.26-6.11-.47-9.27-.66" fill="#0a8372"/></g></svg>