<svg height="457.62851" viewBox="0 0 435.67534 457.62853" width="435.67532" xmlns="http://www.w3.org/2000/svg" xmlns:xlink="http://www.w3.org/1999/xlink"><clipPath id="a"><path d="m0 1000h1000v-1000h-1000z"/></clipPath><g clip-path="url(#a)" fill="#4caf50" transform="matrix(1.3333333 0 0 -1.3333333 -448.82882 1058.2673)"><path d="m0 0-15.245-86.967-5.446-26.651c-5.604-27.428-33.367-47.44-65.819-47.44h-151.743c-32.453 0-60.216 20.012-65.819 47.44l-5.474 26.788-15.222 86.83c-6.978 39.827 23.664 76.306 64.093 76.306h62.208c-.602-.21-1.193-.424-1.791-.647-.19-.068-.376-.141-.566-.21-.404-.154-.801-.307-1.205-.461-8.251-3.21-16.006-7.398-23.129-12.42-.963-.671-1.908-1.362-2.846-2.069-1.872-1.408-3.7-2.879-5.483-4.407-1.112-.954-2.199-1.925-3.271-2.924-1.071-.998-2.126-2.013-3.157-3.056-2.058-2.078-4.039-4.237-5.923-6.477-.76-.889-1.5-1.803-2.227-2.717-.728-.921-1.444-1.851-2.135-2.797-.696-.942-1.379-1.896-2.05-2.858-.675-.967-1.326-1.945-1.961-2.936-.635-.986-1.253-1.985-1.864-2.988-.299-.509-.602-1.018-.897-1.524v-.008c-1.419-2.446-2.749-4.956-3.97-7.524-6.825-14.251-10.641-30.221-10.641-47.067 0-60.313 48.891-109.203 109.203-109.203 55.529 0 101.368 41.439 108.29 95.081.283 2.183.501 4.378.651 6.594.088 1.322.158 2.648.202 3.982 0 .093.005.186.008.279-2.786 1.023-5.68 1.791-8.635 2.329-6.696 1.273-13.71 1.124-20.542-.291-1.655-.299-3.599-.805-5.443-1.241-1.872-.413-3.731-.846-5.619-1.225-3.74-.781-7.524-1.428-11.301-2.006-7.58-1.059-15.229-1.754-22.886-1.492-3.824.098-7.637.522-11.389 1.157-3.739.752-7.407 1.791-10.859 3.307 3.618-1.055 7.322-1.617 11.037-1.888 3.72-.142 7.439-.098 11.135.291 7.37.699 14.647 2.292 21.783 4.241 3.565 1.023 7.102 2.098 10.6 3.323 1.754.574 3.497 1.229 5.24 1.852 1.742.655 3.387 1.314 5.38 1.969 7.618 2.616 13.168 3.95 21.42 3.464 3.254-.169 6.505-.586 9.74-1.257v.008c-.074.081-.138.142-.203.235-12.986 18.431-26.453 26.117-38.884 29.303-4.347 1.112-8.778 1.665-13.189 1.665-10.034 0-19.951-2.866-28.462-8.514-.068-.044-.137-.089-.206-.137-10.483-7.023-23.494-14.579-36.403-19.083-8.292-2.891-16.539-4.52-24.055-3.942-1.289.101-2.563.231-3.832.376.44-.889.881-1.775 1.338-2.652 15.597-29.845 49.072-43.813 80.256-37.158-9.824-14.458-26.413-23.971-45.172-23.971-30.108 0-54.599 24.496-54.599 54.604 0 20.024 10.834 37.567 26.954 47.067 7.863 4.63 16.968 7.355 26.707 7.524.307.008.623.008.938.008h56.104c1.091 0 2.179.029 3.258.093.356.025.716.049 1.072.073.36.033.712.065 1.067.101.712.069 1.419.158 2.123.259 1.047.15 2.094.331 3.125.534 1.03.214 2.054.453 3.065.719.331.089.67.186 1.003.279.663.194 1.33.397 1.98.615.873.287 1.738.602 2.596.934.424.165.853.339 1.273.513.425.186.841.368 1.253.554 1.747.792 3.433 1.662 5.07 2.624.817.485 1.621.986 2.414 1.508.789.517 1.561 1.063 2.321 1.625 11.659 8.652 19.644 21.978 21.192 37.203 35-5.717 59.816-39.2 53.464-75.449" transform="translate(662.3838 611.5371)"/><path d="m0 0c35.009 0 63.49-28.481 63.49-63.49h28.242c0 50.58-41.151 91.731-91.732 91.731s-91.732-41.151-91.732-91.731h28.242c0 35.009 28.481 63.49 63.49 63.49" transform="translate(499.999 765.4595)"/></g></svg>