<svg height="62mm" viewBox="0 0 201 62" width="201mm" xmlns="http://www.w3.org/2000/svg"><g fill="#4caf50" transform="matrix(.26458 0 0 .26458 -307.4510958 -35.15144636)"><path d="m1381.5 256.91-9.98 56.95-3.57 17.45c-3.67 17.96-21.85 31.07-43.1 31.07h-99.37c-21.25 0-39.43-13.11-43.1-31.07l-3.58-17.54-9.97-56.86c-4.57-26.08 15.5-49.97 41.97-49.97h40.74l-1.17.42c-.12.04-.25.09-.37.14-.26.1-.52.2-.79.3-5.4 2.1-10.48 4.84-15.15 8.13-.63.44-1.25.89-1.86 1.36-1.23.92-2.42 1.89-3.59 2.89-.73.62-1.44 1.26-2.14 1.91s-1.39 1.32-2.07 2c-1.35 1.36-2.64 2.77-3.88 4.24-.5.58-.98 1.18-1.46 1.78s-.95 1.21-1.4 1.83c-.46.62-.9 1.24-1.34 1.87s-.87 1.27-1.28 1.92c-.42.65-.82 1.3-1.22 1.96-.2.33-.39.67-.59 1v.01c-.93 1.6-1.8 3.25-2.6 4.93-4.47 9.33-6.97 19.79-6.97 30.82 0 39.5 32.02 71.51 71.51 71.51 36.36 0 66.38-27.14 70.91-62.26.19-1.43.33-2.87.43-4.32.06-.87.1-1.73.13-2.61 0-.06 0-.12.01-.18-1.82-.67-3.72-1.17-5.66-1.52-4.38-.83-8.98-.74-13.45.19-1.08.2-2.36.53-3.56.81-1.23.27-2.44.55-3.68.8-2.45.51-4.93.93-7.4 1.31-4.96.69-9.97 1.15-14.99.98-2.5-.06-5-.34-7.46-.76-2.45-.49-4.85-1.17-7.11-2.17 2.37.69 4.79 1.06 7.23 1.24 2.44.09 4.87.06 7.29-.19 4.83-.46 9.59-1.5 14.26-2.78 2.33-.67 4.65-1.37 6.94-2.18 1.15-.38 2.29-.8 3.43-1.21 1.14-.43 2.22-.86 3.52-1.29 4.99-1.71 8.62-2.59 14.03-2.27 2.13.11 4.26.38 6.38.82v-.01c-.05-.05-.09-.09-.13-.15-8.5-12.07-17.32-17.1-25.46-19.19-2.85-.73-5.75-1.09-8.64-1.09-6.57 0-13.07 1.88-18.64 5.58-.04.03-.09.06-.14.09-6.86 4.6-15.38 9.55-23.84 12.5-5.43 1.89-10.83 2.96-15.75 2.58-.84-.07-1.68-.15-2.51-.25.29.58.58 1.16.88 1.74 10.21 19.54 32.14 28.69 52.55 24.33-6.43 9.47-17.3 15.7-29.58 15.7-19.72 0-35.75-16.04-35.75-35.76 0-13.11 7.1-24.6 17.65-30.82 5.15-3.03 11.11-4.82 17.49-4.93.2-.01.41-.01.61-.01h36.74c.71 0 1.43-.02 2.13-.06.23-.02.47-.03.7-.05.24-.02.47-.04.7-.07.47-.04.93-.1 1.39-.17.69-.1 1.37-.22 2.05-.35.68-.14 1.34-.3 2.01-.47.22-.06.44-.12.66-.18.43-.13.87-.26 1.3-.4.57-.19 1.14-.39 1.7-.61.28-.11.56-.22.83-.34.28-.12.55-.24.82-.36 1.14-.52 2.25-1.09 3.32-1.72.53-.32 1.06-.65 1.58-.99s1.02-.7 1.52-1.06c7.64-5.67 12.86-14.39 13.88-24.36 22.91 3.76 39.16 25.68 35.01 49.42z"/><path d="m1275.1 156.12c22.93 0 41.58 18.65 41.58 41.58h18.49c0-33.12-26.95-60.07-60.07-60.07s-60.07 26.95-60.07 60.07h18.49c0-22.93 18.65-41.58 41.58-41.58z"/><path d="m1536.8 332.52c-5.85-3.08-10.43-7.35-13.73-12.82s-4.94-11.67-4.94-18.61 1.65-13.14 4.94-18.61c3.3-5.46 7.87-9.74 13.73-12.82 5.85-3.08 12.47-4.62 19.84-4.62s13.96 1.54 19.78 4.62c5.81 3.08 10.36 7.35 13.66 12.82s4.94 11.67 4.94 18.61-1.65 13.14-4.94 18.61c-3.3 5.46-7.85 9.74-13.66 12.82s-12.41 4.62-19.78 4.62-13.99-1.54-19.84-4.62zm32.66-17.31c3.34-3.51 5.01-8.22 5.01-14.12s-1.67-10.6-5.01-14.12c-3.34-3.51-7.61-5.27-12.82-5.27-5.2 0-9.5 1.76-12.88 5.27s-5.07 8.22-5.07 14.12 1.69 10.6 5.07 14.12c3.38 3.51 7.68 5.27 12.88 5.27s9.48-1.75 12.82-5.27z"/><path d="m1622.3 332.52c-5.94-3.08-10.58-7.35-13.92-12.82s-5.01-11.67-5.01-18.61 1.67-13.14 5.01-18.61c3.34-5.46 7.98-9.74 13.92-12.82s12.64-4.62 20.1-4.62c7.37 0 13.81 1.54 19.32 4.62s9.52 7.48 12.04 13.21l-15.74 8.46c-3.64-6.42-8.89-9.63-15.74-9.63-5.29 0-9.67 1.74-13.14 5.2-3.47 3.47-5.2 8.2-5.2 14.18 0 5.99 1.73 10.71 5.2 14.18s7.85 5.2 13.14 5.2c6.94 0 12.19-3.21 15.74-9.63l15.74 8.59c-2.52 5.55-6.53 9.89-12.04 13.01s-11.95 4.68-19.32 4.68c-7.46.03-14.16-1.51-20.1-4.59z"/><path d="m1752.7 306.82h-52.95c.95 4.34 3.21 7.76 6.77 10.28s7.98 3.77 13.27 3.77c3.64 0 6.87-.54 9.69-1.63 2.82-1.08 5.44-2.8 7.87-5.14l10.8 11.71c-6.59 7.55-16.22 11.32-28.88 11.32-7.89 0-14.88-1.54-20.95-4.62s-10.76-7.35-14.05-12.82c-3.3-5.47-4.94-11.67-4.94-18.61 0-6.85 1.63-13.03 4.88-18.54s7.72-9.8 13.4-12.88 12.03-4.62 19.06-4.62c6.85 0 13.05 1.48 18.61 4.42 5.55 2.95 9.91 7.18 13.08 12.69s4.75 11.91 4.75 19.19c-.02.28-.15 2.1-.41 5.48zm-47.49-22.51c-3.12 2.6-5.03 6.16-5.73 10.67h34.48c-.7-4.42-2.6-7.96-5.72-10.6-3.12-2.65-6.94-3.97-11.45-3.97-4.59 0-8.45 1.3-11.58 3.9z"/><path d="m1795.8 267.66c4.12-1.73 8.87-2.6 14.25-2.6v18.74c-2.26-.17-3.77-.26-4.55-.26-5.81 0-10.37 1.63-13.66 4.88-3.3 3.25-4.94 8.13-4.94 14.64v33.05h-20.3v-70h19.39v9.24c2.42-3.4 5.69-5.96 9.81-7.69z"/><path d="m1894.1 266.1-31.62 74.29c-3.21 8.07-7.18 13.75-11.91 17.04-4.73 3.3-10.43 4.94-17.11 4.94-3.64 0-7.24-.57-10.8-1.69-3.56-1.13-6.46-2.69-8.72-4.68l7.42-14.44c1.56 1.39 3.36 2.47 5.4 3.25s4.05 1.17 6.05 1.17c2.77 0 5.03-.67 6.77-2.02 1.73-1.35 3.3-3.58 4.68-6.7l.26-.65-30.32-70.52h20.95l19.65 47.49 12.27-29.47c4.55-10.91 15.21-18.01 27.03-18.01z"/><path d="m1505.2 283.66v42.41c-4.94 3.73-10.66 6.6-17.17 8.59-6.51 2-13.06 3-19.65 3-.46 0-.92-.01-1.39-.02-8.9-.19-16.94-2.2-24.12-6.03-7.55-4.04-13.47-9.63-17.76-16.78-4.03-6.71-6.17-14.24-6.41-22.59-.02-.47-.03-.94-.03-1.42v-.25c0-.44.01-.88.02-1.31.01-.25.01-.5.03-.74 0-.22.01-.43.03-.65.38-7.94 2.51-15.13 6.36-21.56 1.97-3.28 4.29-6.25 6.98-8.88l.11-.11c3.12-3.04 6.72-5.64 10.8-7.79 7.39-3.91 15.7-5.93 24.89-6.04h.04c.27-.01.56-.01.83-.01 7.98 0 15.23 1.35 21.73 4.04 6.51 2.69 11.97 6.59 16.39 11.71l-13.54 12.49c-.75-.8-1.54-1.56-2.33-2.26-6.02-5.35-13.1-8.02-21.21-8.02-2.71 0-5.29.26-7.71.8-2.78.59-5.37 1.55-7.78 2.85-4.51 2.42-8.02 5.85-10.54 10.28-2.52 4.42-3.77 9.49-3.77 15.23 0 5.64 1.25 10.66 3.77 15.09 2.52 4.42 6.01 7.87 10.47 10.34 2.87 1.58 6 2.66 9.38 3.23 1.89.31 3.86.47 5.91.47 6.07 0 11.53-1.3 16.39-3.9v-14.84h-20.04v-17.3h39.32z"/><path d="m1916.8 216.61c-.11-.4-.24-.79-.38-1.19-.34.41-.68.82-1.05 1.23-5.34 6.13-16.4 9.33-24.96 10.95-.05 0-.07 0-.11.02-6.08 1.17-11.34 4.95-14.55 10.25-2.8 4.63-4.56 10.9-3.04 20.28.01.04.02.08.02.13.77-1.16 1.62-2.24 2.55-3.26 2.34-2.58 4.4-3.81 7.46-5.27.79-.4 1.48-.69 2.21-1.01.7-.32 1.43-.65 2.11-.98 1.42-.67 2.8-1.39 4.18-2.14 2.73-1.52 5.39-3.19 7.81-5.17 1.22-.96 2.35-2.06 3.43-3.19 1.04-1.17 1.99-2.45 2.75-3.83-.58 1.49-1.37 2.86-2.28 4.2-.95 1.3-1.96 2.55-3.08 3.71-2.23 2.35-4.73 4.4-7.33 6.32-1.3.94-2.62 1.87-3.99 2.73-.68.46-1.36.86-2.05 1.29-.7.42-1.43.83-2.01 1.23-2.48 1.6-4.62 3.62-6.24 5.97-.79 1.1-1.46 2.25-2.01 3.46 4.86-3.29 11.49-5.4 17.51-6.76 17.45-3.89 28.25-21.83 23.05-38.97z"/></g></svg>