<svg height="783.2" viewBox="0 0 1000 783.2" width="1000" xmlns="http://www.w3.org/2000/svg" xmlns:xlink="http://www.w3.org/1999/xlink"><clipPath id="a"><path d="m0 1000h1000v-1000h-1000z"/></clipPath><g clip-path="url(#a)" fill="#4caf50" transform="matrix(1.3333 0 0 -1.3333 -166.67 1058.3)"><path d="m0 0c5.013 5.275 7.522 12.34 7.522 21.199 0 8.858-2.509 15.925-7.522 21.199-5.016 5.277-11.431 7.915-19.246 7.915-7.816 0-14.264-2.638-19.344-7.915-5.08-5.274-7.62-12.341-7.62-21.199 0-8.859 2.54-15.924 7.62-21.199 5.08-5.276 11.528-7.914 19.344-7.914 7.815 0 14.23 2.638 19.246 7.914m-49.043-25.987c-8.793 4.622-15.665 11.04-20.614 19.245-4.952 8.208-7.425 17.519-7.425 27.941 0 10.42 2.473 19.735 7.425 27.942 4.949 8.206 11.821 14.621 20.614 19.246 8.793 4.622 18.724 6.936 29.797 6.936 11.07 0 20.971-2.314 29.699-6.936 8.726-4.625 15.564-11.04 20.516-19.246 4.949-8.207 7.425-17.522 7.425-27.942 0-10.422-2.476-19.733-7.425-27.941-4.952-8.205-11.79-14.623-20.516-19.245-8.728-4.625-18.629-6.937-29.699-6.937-11.073 0-21.004 2.312-29.797 6.937" transform="translate(351.36 277.13)"/><path d="m0 0c-8.923 4.622-15.894 11.04-20.906 19.245-5.016 8.208-7.523 17.52-7.523 27.942 0 10.419 2.507 19.734 7.523 27.941 5.012 8.206 11.983 14.621 20.906 19.246 8.921 4.622 18.984 6.937 30.188 6.937 11.07 0 20.742-2.315 29.015-6.937 8.271-4.625 14.295-11.235 18.075-19.832l-23.643-12.701c-5.471 9.638-13.354 14.459-23.642 14.459-7.947 0-14.526-2.608-19.735-7.816-5.212-5.211-7.816-12.309-7.816-21.297 0-8.989 2.604-16.089 7.816-21.298 5.209-5.211 11.788-7.816 19.735-7.816 10.419 0 18.299 4.819 23.642 14.459l23.643-12.895c-3.78-8.337-9.804-14.849-18.075-19.539-8.273-4.69-17.945-7.035-29.015-7.035-11.204 0-21.267 2.312-30.188 6.937" transform="translate(430.69 251.14)"/><path d="m0 0c-4.689-3.907-7.557-9.25-8.598-16.021h51.779c-1.044 6.643-3.909 11.949-8.597 15.924-4.689 3.972-10.423 5.959-17.194 5.959-6.907 0-12.701-1.954-17.39-5.862m71.317-33.802h-79.523c1.432-6.514 4.817-11.66 10.159-15.435 5.34-3.781 11.984-5.667 19.93-5.667 5.471 0 10.323.812 14.557 2.442 4.232 1.628 8.172 4.2 11.822 7.718l16.217-17.585c-9.901-11.332-24.36-16.999-43.377-16.999-11.855 0-22.341 2.311-31.457 6.936-9.121 4.622-16.155 11.04-21.103 19.246-4.952 8.208-7.425 17.519-7.425 27.941 0 10.289 2.443 19.569 7.327 27.843 4.885 8.271 11.592 14.719 20.125 19.344 8.531 4.622 18.074 6.937 28.625 6.937 10.288 0 19.604-2.217 27.941-6.644 8.335-4.429 14.88-10.78 19.636-19.05 4.754-8.274 7.132-17.879 7.132-28.822 0-.389-.195-3.126-.586-8.205" transform="translate(555.25 323.53)"/><path d="m0 0c6.185 2.605 13.316 3.909 21.395 3.909v-28.137c-3.389.259-5.666.391-6.839.391-8.729 0-15.567-2.442-20.516-7.327-4.952-4.885-7.425-12.212-7.425-21.982v-49.628h-30.48v105.12h29.112v-13.871c3.646 5.079 8.565 8.92 14.753 11.526" transform="translate(691.34 348.54)"/><path d="m0 0-47.479-111.57c-4.822-12.114-10.781-20.645-17.879-25.597-7.102-4.948-15.665-7.425-25.694-7.425-5.471 0-10.878.85-16.218 2.54-5.342 1.695-9.706 4.04-13.09 7.035l11.136 21.689c2.345-2.082 5.047-3.714 8.11-4.885 3.058-1.172 6.087-1.759 9.085-1.759 4.168 0 7.553 1.011 10.16 3.029 2.604 2.021 4.949 5.373 7.034 10.062l.391.978-45.526 105.9h31.457l29.505-71.317 18.432 44.261c6.822 16.383 22.828 27.056 40.576 27.056" transform="translate(838.96 350.89)"/><path d="m0 0v-63.697c-7.418-5.607-16.013-9.91-25.782-12.898-9.768-3.002-19.609-4.503-29.505-4.503-.693 0-1.387.015-2.081.03-13.365.283-25.442 3.298-36.215 9.06-11.341 6.06-20.232 14.455-26.674 25.201-6.046 10.08-9.26 21.379-9.627 33.923-.029.708-.043 1.415-.043 2.138v.382c0 .666.014 1.316.028 1.968.015.382.015.75.043 1.119 0 .325.014.651.042.976.567 11.921 3.766 22.724 9.557 32.379 2.959 4.928 6.442 9.387 10.477 13.337l.17.17c4.686 4.559 10.094 8.467 16.224 11.694 11.101 5.876 23.573 8.906 37.377 9.075h.057c.41.015.836.015 1.246.015 11.992 0 22.865-2.024 32.634-6.059 9.769-4.036 17.981-9.897 24.621-17.584l-20.332-18.76c-1.132 1.203-2.307 2.336-3.496 3.397-9.047 8.029-19.666 12.049-31.855 12.049-4.064 0-7.943-.396-11.582-1.203-4.176-.893-8.07-2.322-11.68-4.275-6.767-3.639-12.048-8.792-15.828-15.433-3.781-6.64-5.663-14.257-5.663-22.865 0-8.466 1.882-16.013 5.663-22.667 3.78-6.64 9.018-11.822 15.729-15.531 4.304-2.378 9.004-3.993 14.087-4.856 2.846-.468 5.791-.708 8.877-.708 9.118 0 17.316 1.954 24.62 5.861v22.285h-30.099v25.98z" transform="translate(254.93 324.52)"/><path d="m0 0c-.164.595-.365 1.187-.564 1.78-.514-.617-1.027-1.234-1.576-1.853-8.025-9.203-24.633-14.009-37.48-16.446-.073-.003-.11-.005-.164-.028-9.131-1.756-17.037-7.433-21.857-15.399-4.201-6.959-6.844-16.371-4.571-30.456.021-.054.024-.127.029-.2 1.162 1.738 2.438 3.372 3.829 4.903 3.507 3.874 6.603 5.727 11.202 7.908 1.19.603 2.228 1.031 3.316 1.519 1.053.484 2.142.97 3.174 1.472 2.14 1.008 4.2 2.084 6.277 3.216 4.096 2.279 8.087 4.791 11.722 7.757 1.837 1.447 3.535 3.089 5.155 4.798 1.562 1.761 2.987 3.678 4.128 5.745-.875-2.234-2.052-4.301-3.417-6.308-1.422-1.953-2.94-3.822-4.632-5.572-3.343-3.535-7.099-6.602-11.013-9.492-1.95-1.418-3.937-2.802-5.986-4.097-1.021-.685-2.048-1.295-3.071-1.943-1.045-.63-2.144-1.246-3.023-1.849-3.723-2.403-6.933-5.435-9.378-8.973-1.184-1.646-2.199-3.375-3.024-5.201 7.291 4.944 17.254 8.107 26.294 10.15 26.22 5.894 42.438 32.831 34.63 58.569" transform="translate(873.03 425.2)"/><path d="m0 0-15.245-86.967-5.446-26.651c-5.604-27.428-33.367-47.44-65.819-47.44h-151.74c-32.453 0-60.216 20.012-65.819 47.44l-5.474 26.788-15.222 86.83c-6.978 39.827 23.664 76.306 64.093 76.306h62.208c-.602-.21-1.193-.424-1.791-.647-.19-.068-.376-.141-.566-.21-.404-.154-.801-.307-1.205-.461-8.251-3.21-16.006-7.398-23.129-12.42-.963-.671-1.908-1.362-2.846-2.069-1.872-1.408-3.7-2.879-5.483-4.407-1.112-.954-2.199-1.925-3.271-2.924-1.071-.998-2.126-2.013-3.157-3.056-2.058-2.078-4.039-4.237-5.923-6.477-.76-.889-1.5-1.803-2.227-2.717-.728-.921-1.444-1.851-2.135-2.797-.696-.942-1.379-1.896-2.05-2.858-.675-.967-1.326-1.945-1.961-2.936-.635-.986-1.253-1.985-1.864-2.988-.299-.509-.602-1.018-.897-1.524v-.008c-1.419-2.446-2.749-4.956-3.97-7.524-6.825-14.251-10.641-30.221-10.641-47.067 0-60.313 48.891-109.2 109.2-109.2 55.529 0 101.37 41.439 108.29 95.081.283 2.183.501 4.378.651 6.594.088 1.322.158 2.648.202 3.982 0 .093.005.186.008.279-2.786 1.023-5.68 1.791-8.635 2.329-6.696 1.273-13.71 1.124-20.542-.291-1.655-.299-3.599-.805-5.443-1.241-1.872-.413-3.731-.846-5.619-1.225-3.74-.781-7.524-1.428-11.301-2.006-7.58-1.059-15.229-1.754-22.886-1.492-3.824.098-7.637.522-11.389 1.157-3.739.752-7.407 1.791-10.859 3.307 3.618-1.055 7.322-1.617 11.037-1.888 3.72-.142 7.439-.098 11.135.291 7.37.699 14.647 2.292 21.783 4.241 3.565 1.023 7.102 2.098 10.6 3.323 1.754.574 3.497 1.229 5.24 1.852 1.742.655 3.387 1.314 5.38 1.969 7.618 2.616 13.168 3.95 21.42 3.464 3.254-.169 6.505-.586 9.74-1.257v.008c-.074.081-.138.142-.203.235-12.986 18.431-26.453 26.117-38.884 29.303-4.347 1.112-8.778 1.665-13.189 1.665-10.034 0-19.951-2.866-28.462-8.514-.068-.044-.137-.089-.206-.137-10.483-7.023-23.494-14.579-36.403-19.083-8.292-2.891-16.539-4.52-24.055-3.942-1.289.101-2.563.231-3.832.376.44-.889.881-1.775 1.338-2.652 15.597-29.845 49.072-43.813 80.256-37.158-9.824-14.458-26.413-23.971-45.172-23.971-30.108 0-54.599 24.496-54.599 54.604 0 20.024 10.834 37.567 26.954 47.067 7.863 4.63 16.968 7.355 26.707 7.524.307.008.623.008.938.008h56.104c1.091 0 2.179.029 3.258.093.356.025.716.049 1.072.073.36.033.712.065 1.067.101.712.069 1.419.158 2.123.259 1.047.15 2.094.331 3.125.534 1.03.214 2.054.453 3.065.719.331.089.67.186 1.003.279.663.194 1.33.397 1.98.615.873.287 1.738.602 2.596.934.424.165.853.339 1.273.513.425.186.841.368 1.253.554 1.747.792 3.433 1.662 5.07 2.624.817.485 1.621.986 2.414 1.508.789.517 1.561 1.063 2.321 1.625 11.659 8.652 19.644 21.978 21.192 37.203 35-5.717 59.816-39.2 53.464-75.449" transform="translate(662.38 611.54)"/><path d="m0 0c35.009 0 63.49-28.481 63.49-63.49h28.242c0 50.58-41.151 91.731-91.732 91.731s-91.732-41.151-91.732-91.731h28.242c0 35.009 28.481 63.49 63.49 63.49" transform="translate(500 765.46)"/></g></svg>