<svg fill="none" height="304" viewBox="0 0 248 304" width="248" xmlns="http://www.w3.org/2000/svg" xmlns:xlink="http://www.w3.org/1999/xlink"><mask id="a" height="102" maskUnits="userSpaceOnUse" width="47" x="86" y="201"><path clip-rule="evenodd" d="m132.12 201.335h-45.824v101.111h45.824z" fill="#fff" fill-rule="evenodd"/></mask><mask id="b" height="102" maskUnits="userSpaceOnUse" width="76" x="61" y="201"><path clip-rule="evenodd" d="m136.97 201.335h-75.2781v101.111h75.2781z" fill="#fff" fill-rule="evenodd"/></mask><mask id="c" height="26" maskUnits="userSpaceOnUse" width="39" x="99" y="53"><path clip-rule="evenodd" d="m137.527 53.8418h-37.7259v24.7598h37.7259z" fill="#fff" fill-rule="evenodd"/></mask><mask id="d" height="26" maskUnits="userSpaceOnUse" width="39" x="99" y="53"><path clip-rule="evenodd" d="m137.527 53.8418h-37.7259v24.7598h37.7259z" fill="#fff" fill-rule="evenodd"/></mask><mask id="e" height="43" maskUnits="userSpaceOnUse" width="75" x="0" y="74"><path clip-rule="evenodd" d="m6.96777 74.7659 67.79423 19.4397-6.2721 21.8734-67.79423-19.4397z" fill="#fff" fill-rule="evenodd"/></mask><mask id="f" height="62" maskUnits="userSpaceOnUse" width="58" x="31" y="48"><path clip-rule="evenodd" d="m45.5654 48.8047 42.4804 12.181-14.015 48.8763-42.4803-12.1815z" fill="#fff" fill-rule="evenodd"/></mask><path clip-rule="evenodd" d="m6.20355 190.359c0 17.213 3.91415 33.51 10.90065 48.047.7829 1.641 1.6078 3.248 2.4748 4.84.0252.042.0421.092.0757.135 2.1549 3.964 4.5455 7.786 7.1633 11.447.261.362.5219.715.7829 1.078 2.037 2.786 4.2003 5.471 6.4899 8.055 1.2205 1.381 2.4831 2.735 3.771 4.058.4133.429.8342.85 1.2551 1.271.4705.471.9503.934 1.4301 1.389 1.8182 1.742 3.6953 3.425 5.6313 5.025 2.7862 2.34 5.6902 4.528 8.7037 6.582.0084.009.0177.009.0253.016 2.2053 1.508 4.4697 2.93 6.7845 4.26 2.0959 1.221 4.2424 2.373 6.431 3.452.2525.126.4966.251.7491.37 3.1566 1.531 6.3973 2.921 9.7138 4.15 2.4083.892 4.8485 1.709 7.3317 2.441 8.3922 2.458 17.1966 3.964 26.2886 4.369.076.016.151.016.227.016.025.009.05.009.084 0 1.591.076 3.19.11 4.798.11.564 0 1.128-.009 1.692-.018 1.069-.007 2.138-.041 3.198-.092.531-.016 1.052-.042 1.583-.075 1.549-.093 3.081-.211 4.613-.362 13.156-1.305 25.639-4.899 37.046-10.396 4.965-2.391 9.738-5.143 14.267-8.225 3.922-2.667 7.668-5.58 11.212-8.719 4.512-3.99 8.695-8.342 12.508-13.005 12.265-15.026 20.674-33.317 23.721-53.367.48-3.123.825-6.297 1.035-9.505.025-.421.051-.841.067-1.262.111-2.011.169-4.04.169-6.085 0-1.44-.025-2.862-.084-4.285-.009-.328-.026-.656-.042-.985-.009-.235-.017-.471-.034-.708-.194-3.761-.581-7.482-1.153-11.135-.093-.615-.194-1.221-.295-1.827-.05-.278-.093-.555-.143-.841-.842-4.672-1.978-9.251-3.384-13.704-.143-.463-.295-.926-.446-1.389-1.7-5.143-3.763-10.118-6.162-14.899-.766-1.532-1.573-3.047-2.415-4.538-.75-1.346-1.532-2.667-2.341-3.981-.387-.631-.782-1.262-1.186-1.885-.758-1.17-1.532-2.323-2.332-3.461-17.037-24.343-43.586-41.5475-74.259-46.2024-1.103-.1683-2.214-.3199-3.325-.4545-1.052-.1347-2.113-.2442-3.174-.3452-.134-.0084-.269-.0252-.404-.0336-.345-.0345-.69-.059-1.035-.0926-2.938-.2273-5.901-.3451-8.897-.3451-3.957 0-7.862.2104-11.718.6136-1.902.1944-3.787.447-5.6637.7407l-.5058.0766c-52.862 8.5514-93.22395 54.4025-93.22395 109.6805z" fill="#edf1f7" fill-rule="evenodd"/><path clip-rule="evenodd" d="m86.5229 201.335s1.4057 5.387 3.6869 14.15c.7912 3.039 1.6919 6.49 2.6776 10.269.2601 1.01.5294 2.037.7996 3.09.479 1.843.9756 3.754 1.4891 5.723.9596 3.696 1.9697 7.585 3.0219 11.625.2441.934.4798 1.869.7323 2.82.0934.379.1936.749.2946 1.136.0766.295.1524.598.2273.901.5898 2.273 1.1878 4.579 1.7928 6.911.042.185.094.37.143.555.194.741.379 1.481.582 2.231 3.341 12.946 6.869 26.591 10.151 39.394.101.412.21.816.311 1.22.026.101.05.202.076.295.008-.101.008-.194.008-.295 1.592.076 3.19.11 4.798.11.564 0 1.128-.009 1.692-.018 1.069-.007 2.138-.041 3.199-.092.531-.016 1.052-.042 1.583-.075 1.548-.093 3.081-.211 4.612-.362 13.157-1.305 25.64-4.899 37.046-10.396-4.117-13.974-8.477-28.417-12.475-41.515-.388-1.263-.766-2.508-1.145-3.737-2.189-7.181-4.251-13.872-6.078-19.765-1.102-3.577-2.121-6.861-3.029-9.773-.077-.235-.152-.471-.22-.698-2.643-8.502-4.284-13.704-4.284-13.704z" fill="#313060" fill-rule="evenodd"/><g mask="url(#a)"><path clip-rule="evenodd" d="m86.296 201.335s1.3965 5.353 3.6692 14.074c.8005 3.063 1.7012 6.541 2.6945 10.345.2517.985.5134 1.987.782 3.014.4722 1.81.9604 3.687 1.457 5.623 1.1953 4.595 2.4655 9.511 3.7955 14.621.0934.345.186.699.2702 1.052.0833.303.1591.605.2441.909.5892 2.281 1.1865 4.604 1.8005 6.952.051.195.102.397.143.59l.607 2.298c3.443 13.334 7.079 27.408 10.446 40.531.1.37.194.74.277 1.102.018-.261.018-.53.026-.791.008-.101.008-.194.008-.295 1.591.076 3.19.11 4.799.11.564 0 1.127-.009 1.691-.018.32-2.457.649-4.957.977-7.474.168-1.212.327-2.432.488-3.653 1.642-12.491 3.35-25.429 4.975-37.837.034-.261.067-.53.101-.791.024-.21.059-.421.083-.631.094-.69.177-1.372.27-2.054.177-1.372.354-2.736.531-4.091.092-.699.184-1.389.278-2.079.075-.581.15-1.162.227-1.742.707-5.372 1.38-10.573 2.028-15.514 1.195-9.167 2.273-17.441 3.156-24.251z" fill="#1c1b3d" fill-rule="evenodd"/></g><g mask="url(#b)"><path clip-rule="evenodd" d="m85.9175 296.975c8.3923 2.458 17.1975 3.965 26.2875 4.368.101.371.194.741.278 1.103.017-.261.017-.53.025-.791.009-.102.009-.194.009-.295.007-.404.025-.817.034-1.22.286-10.64.572-20.741.799-28.384.042-1.608.084-3.098.126-4.47.144-5.067.245-8.41.27-9.107v-.135c5.092-3.123 9.2-5.16 11.801-6.347 1.986-.909 3.098-1.305 3.098-1.305.092-.269.185-.538.269-.808.068-.186.126-.378.185-.572.362-1.094.699-2.222 1.019-3.359.682-2.365 1.296-4.798 1.86-7.265.059-.251.11-.504.168-.766.901-4.048 1.642-8.147 2.248-12.061 2.045-13.174 2.576-24.226 2.576-24.226h-70.438s-.3788 6.313-.968 16.44c-.1515 2.482-.303 5.202-.4714 8.114-.2946 4.975-.6145 10.522-.9512 16.439-.0841 1.464-.1683 2.963-.2525 4.478-.0421.733-.0842 1.465-.1262 2.206-.1179 2.146-.2442 4.327-.3704 6.54-.5556 9.975-1.1448 20.556-1.7004 31.01 2.096 1.221 4.2425 2.373 6.4302 3.451.2534.127.4975.252.75.371 3.1565 1.531 6.3973 2.921 9.7138 4.15 2.4074.892 4.8485 1.709 7.3316 2.441z" fill="#313060" fill-rule="evenodd"/></g><path clip-rule="evenodd" d="m69.3514 258.221c-.3964 10.598-.7996 21.195-1.2298 31.793.2534.126.4975.251.75.37.2938-7.508.5716-15.017.825-22.525.1085-3.132.2104-6.263.303-9.394.1086-3.148.202-6.305.2938-9.453.1186-3.897.2356-7.803.3451-11.7.1102-3.822.2188-7.635.3375-11.456.0758-2.754.1507-5.506.2357-8.259v-.008c.0244-1.01.0581-2.02.0918-3.03.042-1.473.085-2.937.1271-4.411.0075-.277-.4209-.252-.4293.017-.0514 1.473-.101 2.946-.144 4.42-.0328.892-.058 1.783-.0917 2.676v.016c-.0935 2.863-.1945 5.716-.2862 8.579-.1347 3.98-.2694 7.963-.4125 11.943-.1271 3.738-.2525 7.476-.3872 11.213-.1094 3.073-.2188 6.136-.3283 9.209z" fill="#1c1b3d" fill-rule="evenodd"/><path clip-rule="evenodd" d="m130.52 248.918c-6.071 2.412-11.886 5.705-17.433 9.131-.217.134-.053.474.183.359 5.882-2.858 11.889-5.611 17.607-8.789.45-.249.109-.886-.357-.701z" fill="#1c1b3d" fill-rule="evenodd"/><path clip-rule="evenodd" d="m134.046 219.65c-.527 2.836-1.215 5.643-1.827 8.462-.575 2.645-.998 5.343-1.697 7.959-.678 2.535-1.758 4.859-3.706 6.67-1.038.963-2.182 1.818-3.287 2.702-.597.475-1.242.932-1.861 1.415.08-.375.145-.755.213-1.142.188-1.075.37-2.151.552-3.227.4-2.389.783-4.782 1.148-7.177.72-4.704 1.383-9.461 2.364-14.119.041-.191-.245-.263-.293-.074-1.172 4.617-2.467 9.184-3.488 13.84-.501 2.284-2.288 13.559-2.367 14.356-.081.825-.15 1.65-.18 2.479-.029.815-.19 1.729-.002 2.53.048.206.297.173.384.033.004.003.007.006.011.008.411-.717.514-1.655.718-2.449.206-.805.389-1.621.534-2.439.051-.295.092-.597.135-.9 1.11-.675 2.143-1.566 3.181-2.319 1.119-.81 2.26-1.599 3.317-2.49 2.028-1.707 3.294-3.798 4.049-6.326.784-2.624 1.026-5.394 1.328-8.103.359-3.204.62-6.424 1.068-9.616.026-.189-.257-.267-.294-.073z" fill="#1c1b3d" fill-rule="evenodd"/><path clip-rule="evenodd" d="m113.846 128.921c2.751 10.688 13.676 35.102 32.021 55.239 7.091 7.769 63.226 15.994 69.153 14.294 4.147-1.19 16.308-37.091 12.35-40.107-7.422-5.655-60.074.923-62.161-.439-3.186-2.097-24.021-19.046-37.015-34.52-9.482-11.277-18.903-12.254-14.348 5.533z" fill="#ffaea1" fill-rule="evenodd"/><path clip-rule="evenodd" d="m125.84 160.878 33.949-9.969s-27.037-27.986-37.311-33.972c-11.562-6.737-12.478.649-9.34 12.976 3.139 12.326 12.702 30.965 12.702 30.965l-51.2069 67.264z" fill="#313060" fill-rule="evenodd"/><path clip-rule="evenodd" d="m153.243 146.283c-1.227.163-11.856 3.104-14.152 3.793-2.297.689-11.711 3.415-14.022 4.325-.103.04-.07.191.042.17 2.43-.456 11.932-3.18 14.286-3.833 2.352-.653 12.804-3.797 13.905-4.301.095-.042.026-.165-.059-.154z" fill="#1c1b3d" fill-rule="evenodd"/><path clip-rule="evenodd" d="m138.933 157.025-13.087 3.847s-9.563-18.635-12.706-30.952c-2.293-9.01-2.421-15.393 2.188-15.53z" fill="#1c1b3d" fill-rule="evenodd"/><path clip-rule="evenodd" d="m60.8626 225.917c-.0009-.008 88.0264-.422 88.0264-.415.005 1.726-19.095-98.393-28.293-110.39-1.97-2.565-15.42-5.807-21.4927-.155-26.6094 24.767-38.2365 112.079-38.2407 110.96z" fill="#ffc727" fill-rule="evenodd"/><path clip-rule="evenodd" d="m129.221 142.529-11.25.781.679 14.837 7.739 2.053 4.421-3.511z" fill="#313060" fill-rule="evenodd"/><path clip-rule="evenodd" d="m114.704 127.138c-4.188 1.011-10.387-6.937-13.403-12.914-.205-.41.553-4.632 1.233-9.804.4-3.141.772-6.6467.879-9.8714.019-.6617 20.057 5.5894 20.057 5.5894s-2.215 6.692-2.367 12.314c-.009.469.023.908.094 1.327.005.061.019.135.022.221.326 2.526-2.035 12.056-6.515 13.138z" fill="#ffaea1" fill-rule="evenodd"/><path clip-rule="evenodd" d="m121.203 113.778c0 .065.013.143.013.221-.634.065-1.322.077-2.073.039-11.892-.662-14.535-15.6637-15.014-19.4591 3.575.6346 19.341 5.5581 19.341 5.5581s-2.215 6.698-2.371 12.32c0 .466.026.906.104 1.321z" fill="#da7d8c" fill-rule="evenodd"/><path clip-rule="evenodd" d="m99.6594 70.3681c-1.7054 7.3039 3.4566 27.7281 8.8556 31.9989 7.828 6.19 19.954 6.02 25.039-3.2312 4.929-8.968-2.27-35.4664-8.236-39.2753-8.789-5.6102-23.139-.2803-25.6586 10.5076z" fill="#ffaea1" fill-rule="evenodd"/><path clip-rule="evenodd" d="m120.158 81.3971c-.023-.0505-.091.0918-.075.1482.384 1.3661.595 2.9958-.538 3.7618-.036.0235-.015.0917.031.074 1.467-.5909 1.166-2.7508.582-3.984z" fill="#313060" fill-rule="evenodd"/><path clip-rule="evenodd" d="m118.572 80.2627c-2.257.3805-1.33 4.8662.761 4.5143 2.058-.3468 1.131-4.8325-.761-4.5143z" fill="#313060" fill-rule="evenodd"/><path clip-rule="evenodd" d="m127.648 79.9629c-.001-.0547.122.0429.131.1001.243 1.399.758 2.9605 2.109 3.1617.042.0067.053.0774.005.0808-1.579.1001-2.239-1.979-2.245-3.3426z" fill="#313060" fill-rule="evenodd"/><path clip-rule="evenodd" d="m128.588 78.2553c2.2-.6313 3.3 3.8148 1.262 4.3998-2.006.5758-3.106-3.8712-1.262-4.3998z" fill="#313060" fill-rule="evenodd"/><path clip-rule="evenodd" d="m116.378 78.5778c.579-.2795 1.068-.6347 1.611-.9706.615-.3796 1.143-.6187 1.455-1.303.167-.3687-.048-.9217-.39-1.117-.796-.4571-1.663-.1793-2.421.2475-.823.4612-1.338 1.0286-1.682 1.9048-.335.8502.664 1.6069 1.427 1.2383z" fill="#313060" fill-rule="evenodd"/><path clip-rule="evenodd" d="m129.856 75.6382c-.643.027-1.241-.0547-1.878-.0942-.721-.0446-1.299-.0051-1.897-.4613-.322-.245-.393-.8342-.185-1.1692.485-.7786 1.382-.9436 2.25-.9251.944.0185 1.666.2744 2.384.8838.696.591.174 1.7298-.674 1.766z" fill="#313060" fill-rule="evenodd"/><path clip-rule="evenodd" d="m121.127 94.5604c.401.2567.824.6363 1.338.5749.492-.0598 1.013-.3948 1.421-.6591.04-.0253.096.0118.076.0598-.251.6069-.942 1.0976-1.609 1.1186-.652.0194-1.075-.4596-1.347-1.0042-.037-.0757.063-.1271.121-.09z" fill="#313060" fill-rule="evenodd"/><path clip-rule="evenodd" d="m121.729 90.0982c1.028 1.0455 2.307 1.468 3.593 1.4529.575-.0034 1.159-.1035 1.718-.2744.112-.0253.221-.0606.318-.1044.099-.0328.187-.0631.295-.1094.158-.0573.219-.2096.214-.3687l-.003-.0101c-.01-.0505-.02-.0909-.042-.1397l-.002-.0093-.027-.1221c-.192-1.0757-.632-2.6818-.632-2.6818.432.1153 2.61.6002 2.463.048-1.233-4.5707-2.602-9.6532-4.793-13.9411-.066-.1447-.291-.0623-.247.0884 1.01 4.4394 2.795 8.6709 3.881 13.1137-.686-.1103-1.816-.3435-2.374-.2164-.142.0749.906 3.0876.953 3.5783 0 0 .004.021.001.053-1.75.601-3.218.3376-5.212-.5092-.12-.0573-.21.0589-.104.1523z" fill="#313060" fill-rule="evenodd"/><path clip-rule="evenodd" d="m126.297 90.8652s-.684 1.4765-1.887 2.2063c-.444.2702-.945.4444-1.515.4124-1.171-.0623-1.408-1.0749-1.384-1.9882.017-.7517.222-1.4369.222-1.4369s1.933 1.1819 4.564.8064z" fill="#313060" fill-rule="evenodd"/><path clip-rule="evenodd" d="m124.409 93.0715c-.443.2702-.944.4444-1.514.4124-1.17-.0622-1.408-1.0749-1.384-1.9882 1.214-.1245 2.559.4403 2.898 1.5758z" fill="#fe97b8" fill-rule="evenodd"/><path clip-rule="evenodd" d="m129.686 66.0615c-1.123-1.6077-2.367-3.2054-3.5-3.3367-1.133-.1305-1.301 2.5993-3.682 3.2567-3.217.8898-5.409-1.782-10.035-1.165-6.642.8873-8.406 6.9495-6.658 16.2753 1.56 8.33-3.295 10.1389-3.295 10.1389s-6.7917-17.6801-2.8725-24.7988c3.9185-7.1187 15.2045-12.2214 24.3395-8.0682 3.33 1.5143 5.703 7.6978 5.703 7.6978z" fill="#313060" fill-rule="evenodd"/><path clip-rule="evenodd" d="m106.031 87.1044s-5.249-6.2702-8.1334-4.3409c-2.8846 1.9284 1.4689 11.3005 5.1404 12.3148 3.672 1.0135 4.678-2.367 4.678-2.367z" fill="#ffaea1" fill-rule="evenodd"/><path clip-rule="evenodd" d="m99.2119 85.4185c-.0573 0-.0615.0808-.0101.0968 2.5812.7937 4.0962 2.9907 5.2242 5.3089-.822-.8586-1.876-1.2761-3.036-.2862-.06.0522.011.149.08.1271 1.002-.3072 1.754-.1945 2.516.5631.539.5371.936 1.2408 1.345 1.8788.136.213.528.0589.421-.1911-.007-.0176-.017-.037-.026-.0555-.214-3.1844-3.072-7.4201-6.5141-7.4419z" fill="#da7d8c" fill-rule="evenodd"/><path clip-rule="evenodd" d="m128.314 62.0395c-2.021-.0884-12.729 2.3249-17.16 5.3468-4.43 3.0219-11.6678 11.6498-12.0399 12.1019-.372.4528-6.0337-16.867 7.7259-22.9024 14.992-6.5774 21.474 5.4537 21.474 5.4537z" fill="#5b9c00" fill-rule="evenodd"/><g mask="url(#c)"><path clip-rule="evenodd" d="m99.8011 78.6015s7.0719-14.4007 11.8029-18.2929c4.731-3.8931 16.254-7.8165 24.2-6.0177 6.197 1.4032-6.311 11.4571-6.311 11.4571s-.781-1.9571-2.759-2.3266c-3.84-.7189-10.396 1.6852-14.003 3.7315-4.537 2.5766-12.9299 11.4486-12.9299 11.4486z" fill="#ffc727" fill-rule="evenodd"/></g><g mask="url(#d)"><path clip-rule="evenodd" d="m99.8011 78.6015s7.0719-14.4007 11.8029-18.2929c4.731-3.8931 16.254-7.8165 24.2-6.0177 6.197 1.4032-6.311 11.4571-6.311 11.4571s-.781-1.9571-2.759-2.3266c-3.84-.7189-10.396 1.6852-14.003 3.7315-4.537 2.5766-12.9299 11.4486-12.9299 11.4486z" fill="#62ba03" fill-rule="evenodd"/></g><g clip-rule="evenodd" fill-rule="evenodd"><path d="m126.933 249.01h-69.4271v-76.882h69.4271z" fill="#ffc727"/><path d="m126.933 249.01h-69.4271v-76.882h69.4271z" fill="#cc955d"/><path d="m162.781 249.014h-35.849v-76.885h35.849z" fill="#ffc727"/><path d="m162.781 249.014h-35.849v-76.885h35.849z" fill="#fecb94"/><path d="m98.1104 188.743h-1.4689-1.1052l-.6305-1.279-.883 1.279-1.1986-2.633-1.1364 2.633h-3.25-1.4832l-.5362-1.757-.505 1.757h-.9647v-16.614h13.1617z" fill="#875b37"/><path d="m160.312 243.718c-2.655-5.467-5.288-10.951-7.893-16.455l-7.778-16.536-7.677-16.609c-2.548-5.546-5.067-11.111-7.562-16.693 2.655 5.467 5.288 10.95 7.893 16.454l7.777 16.537 7.677 16.609c2.547 5.545 5.065 11.111 7.563 16.693z" fill="#b3804f"/><path d="m160.312 177.425c-2.498 5.582-5.016 11.147-7.563 16.693l-7.677 16.609-7.777 16.537c-2.605 5.504-5.238 10.987-7.893 16.454 2.495-5.583 5.014-11.147 7.562-16.693l7.677-16.609 7.778-16.536c2.605-5.504 5.238-10.987 7.893-16.455z" fill="#b3804f"/><path d="m83.1014 121.536c-16.9335 12.743-49.7929 41.283-52.6675 56.724-3.7727 20.26 13.484 60.11 20.8468 67.81 4.9722 5.201 26.8468-13.905 28.1557-18.693s-16.4486-37.038-16.5985-40.746c-.1498-3.709 22.5909-37.639 32.4495-52.688 12.4356-18.983 2.1473-23.194-12.186-12.407z" fill="#ffaea1"/><path d="m88.1446 230.12c-1.5471-1.792-.617-2.615 3.5135-1.811 4.1809.805 19.7979 7.496 21.6699 1.834 1.889-5.68-20.3669-14.785-27.3484-15.599-6.9806-.829-18.5598.318-18.5598.318 3.9731 2.643 12.9967 9.973 20.7248 15.258z" fill="#ffaea1"/><path d="m49.2409 243.488c7.0109 11.701 27.3417 19.075 42.5126 19.356 2.9756.056 4.7155-1.404 4.7155-1.404 6.797.246 8.955-2.889 8.955-2.889 6.403-1.709 8.167-5.219 8.167-5.219s7.985.203 8.907-4.602c1.053-5.386-10.365-4.617-16.903-8.034-14.9787-7.829-34.0805-23.147-38.1757-25.835z" fill="#ffaea1"/><path d="m84.1323 243.524c4.4545 2.216 8.7719 4.508 13.5033 6.111 5.1904 1.757 10.4794 2.576 15.8444 3.546.167.03.143.266-.027.262-9.988-.217-21.1852-4.103-29.4243-9.719-.1986-.135-.1203-.312.1036-.2z" fill="#da7d8c"/><path d="m78.0927 251.878c4.4546 1.915 12.3022 5.233 27.3473 6.511.049.004.058.089.003.093-9.8781.468-18.7888-1.777-27.4403-6.393-.2694-.143-.2063-.338.09-.211z" fill="#da7d8c"/><path d="m74.9316 256.428c7.697 2.97 12.9251 3.868 21.5085 4.972.0479.007.0505.094-.0034.092-9.8864-.232-13.447-1.436-21.6448-4.814-.2811-.116-.1608-.366.1397-.25z" fill="#da7d8c"/><path d="m82.1425 159.205-32.1448-14.788s30.8106-23.768 41.8435-28.2c12.4178-4.989 12.2538 2.452 7.3602 14.192-4.8939 11.741-17.0589 28.796-17.0589 28.796z" fill="#313060"/><path d="m57.1462 140.79c1.1911.338 11.2803 4.789 13.452 5.805 2.1734 1.016 11.0918 5.079 13.2467 6.314.0959.054.0412.198-.0657.162-2.3384-.804-11.3451-4.877-13.5783-5.865-2.234-.988-12.1195-5.614-13.1363-6.273-.085-.056 0-.166.0816-.143z" fill="#1c1b3d"/><path d="m79.6051 158.015c.9992.375 2.5345 1.021 2.5345 1.021 2.3704-4.338 5.2155-8.464 7.7728-12.692 2.6043-4.307 5.3325-8.524 7.9865-12.797.0412-.066.1397-.005.1027.064-1.3493 2.513-2.7029 5.015-4.0808 7.503.2264-.28.4562-.558.6801-.838.803-1.001 1.633-1.975 2.4015-3.002.064-.086.2037-.004.1448.089-.686 1.094-1.3948 2.184-2.2163 3.18-.5783.704-1.2012 1.362-1.8317 2.014-.7996 1.422-1.5867 2.85-2.425 4.257-2.5649 4.309-5.0842 9.288-7.9798 13.387 0 0-2.1852-1.239-3.2164-1.979-.1271-.09-.0193-.261.1271-.207z" fill="#1c1b3d"/><path d="m169.198 206.105 52.874 4.361 17.748-72.314-52.873-4.36z" fill="#313060"/><path d="m199.585 139.2 25.066 2.036 1.951-7.979-25.069-2.036z" fill="#1c9c00"/><path d="m207.227 131.688 3.086.251.898-3.68 7.502.609-.899 3.679 3.087.251 1.637-6.703-13.718-1.114z" fill="#1c9c00"/><path d="m247.565 171.032c-.467 4.519-4.472 5.24-4.472 5.24s4.314 3.524 3.094 7.991c-.627 2.296-4.849 3.312-4.849 3.312s3.334 2.976 2.005 6.881c-1.059 3.109-5.13 3.663-5.13 3.663s1.865 4.345-.229 7.167c-4.248 5.725-31.756-.501-33.712-11.596-.912-5.171 5.726-3.285 5.726-3.285s-8.889-5.017-7.75-10.721c1.138-5.703 9.612-2.734 9.612-2.734s-8.57-4.936-6.793-10.73c1.85-6.033 9.818-1.61 9.818-1.61s-5.179-5.531-2.802-9.656c3.924-6.81 15.723 5.508 22.093 5.442l2.497-9.419s11.41 15.049 10.892 20.055z" fill="#ffaea1"/><path d="m237.582 198.3c.092.014.092.146-.005.148-9.548.156-20.085-2.597-27.955-8.103-.258-.181-.077-.679.246-.535 9.197 4.124 17.688 7.051 27.714 8.49z" fill="#da7d8c"/><path d="m241.458 187.663c.109.016.086.197-.033.197-9.839.109-21.622-3.319-29.946-10.735-.286-.253-.287-.768.064-.5 5.909 4.511 20.884 9.79 29.915 11.038z" fill="#da7d8c"/><path d="m214.447 163.879c8.258 6.801 17.864 10.271 28.243 12.417.135.027.081.217-.037.223-5.364.335-11.838-1.723-16.739-3.75-4.695-1.941-8.54-4.636-11.705-8.601-.123-.154.061-.434.238-.289z" fill="#da7d8c"/><path d="m122.828 117.426c-.289 1.566-.72 3.09-1.291 4.559-.546 1.475-1.183 2.916-1.972 4.255-.798 1.322-1.698 2.611-2.846 3.517-.575.44-1.202.781-1.851.886-.525.081-1.308-.154-1.971-.425-2.778-1.148-5.071-3.409-7.115-5.738-.514-.591-.991-1.215-1.482-1.83-.453-.643-.928-1.273-1.367-1.93-.437-.656-.897-1.304-1.322-1.974-.408-.678-.83-1.351-1.266-2.022 1.197 2.954 2.719 5.797 4.658 8.379 1.951 2.546 4.281 4.975 7.424 6.29.801.286 1.589.605 2.652.466.927-.161 1.726-.629 2.384-1.181 1.313-1.124 2.216-2.533 2.938-3.986 1.42-2.913 2.329-6.067 2.427-9.266z" fill="#313060"/><path d="m65.6777 31.4914c.0236-.1975-.2418-.3472-.4027-.2401-1.404.9337-2.1243 2.718-2.9387 4.1527-.9525 1.6773-2.0296 3.3587-2.6896 5.1759-.1868.5146.5371.7427.8239.3615 1.2075-1.6042 2.1019-3.485 3.1246-5.2138.7969-1.3475 1.8943-2.6587 2.0825-4.2362z" fill="#1c1b3d"/><path d="m83.0293 39.9398c-1.3523-3.6065-5.1095-6.2144-8.9899-7.6174-5.0896-1.8413-8.2635-1.0613-9.0207-.5932-.3494-1.0732-4.4236-5.487-7.9826-7.374-3.0971-1.6406-7.4032-2.0761-9.8079-1.5628.1025-.2945.2187-.5888.3458-.8757 3.247-7.4891 13.647-12.85991 25.7838-8.279 9.8072 3.6961 13.1086 14.7654 11.2277 22.5697-.2981 1.2264-1.0101 2.7123-1.5562 3.7324z" fill="#5b9c00"/><path d="m83.0301 39.9399c-1.3524-3.6064-5.1096-6.2144-8.99-7.6173-5.0896-1.8413-8.2635-1.0614-9.0206-.5933-.3495-1.0732-4.4237-5.4869-7.9827-7.374-3.0971-1.6406-7.4032-2.0761-9.8079-1.5627 0 0 3.1052-4.0227 7.0591-3.6084 3.9545.4101 6.3876 2.8133 6.5701 4.6142 0 0 3.4658-1.6698 7.5147-.8396 4.0484.8301 7.4332 4.8543 7.0588 7.309 0 0 3.9654-1.7695 6.4276-.2306 2.4634 1.5348 2.3143 6.7839 1.1709 9.9027z" fill="#3d6900"/><path d="m82.7174 39.8236c-3.9765-.1816-7.96-.2449-11.9403-.2438-2.9392.0007-6.0389-.1818-9.0049.1339 5.1027-2.3405 9.9787-6.1999 14.298-9.5947.4598-.3609-.166-.9876-.6205-.6495-2.7652 2.0595-5.5458 4.0791-8.4369 5.9586-2.042 1.3275-4.2505 2.4665-6.2482 3.8633-.0056-.0047-.0114-.0082-.0167-.0135.3519-2.4655.4863-4.9567.5709-7.446.0932-2.7603.3382-5.7306-.3438-8.4247-.0997-.3912-.607-.2731-.6549.0788-.3699 2.7214.0199 5.5853-.0042 8.3349-.0203 2.365-.1914 4.7211-.2928 7.0823-1.1461-2.3576-2.7905-4.4238-4.4094-6.4902-2.5783-3.2915-5.0289-6.889-8.0225-9.8118-.274-.2673-.7596.0576-.5534.407 3.4775 5.8909 8.747 10.5415 11.995 16.5765-4.8101 1.0072-9.5826 2.6743-14.2683 4.0753-4.5752 1.368-9.0583 2.9075-13.0889 5.5217-.8663.562.1235 1.8201.9812 1.2643 8.1206-5.2618 18.1071-6.2206 26.9892-9.6869.0881.1362.2207.2035.3665.2166 3.3863 7.5685 5.582 15.3855 7.1695 23.5246.1551.7952 1.3531.6254 1.2489-.1844-1.0398-8.0767-3.565-16.035-6.8901-23.4651 3.2297.2073 6.5816-.1248 9.7934-.1202 3.792.0059 7.5811.102 11.3718.1973.7113.0177.7209-1.0716.0114-1.1043z" fill="#313060"/></g><g mask="url(#e)"><path clip-rule="evenodd" d="m5.28556 80.6324c8.63434 7.4064 22.27974 18.5097 31.42864 26.3356 3.5637.504 7.0263.848 10.3871 1.096 3.2295.24 6.3629.385 9.397.48 4.9589.163 9.6515.204 14.0597.323-9.7969-7.723-24.1725-18.1306-34.8059-25.8474-8.6107-2.2423-22.3102-2.9593-30.46654-2.3872z" fill="#aa7445" fill-rule="evenodd"/></g><path clip-rule="evenodd" d="m14.2277 80.889c2.1171 1.7146 4.0712 3.329 6.042 5.211 2.3059.042 4.7494-.4721 7.0559-.4299-1.3264-1.3378-2.8453-2.9295-4.1712-4.2665-3.0303-.5637-5.8449-.4999-8.9267-.5146z" fill="#875b37" fill-rule="evenodd"/><path clip-rule="evenodd" d="m5.28556 80.6325c2.92803.0622 5.92344.1368 8.94224.2562 2.9644.1137 5.9544.279 8.9267.5146 4.2798.347 8.5198.8433 12.5976 1.6164 4.8979-10.7091 9.7315-20.9726 13.4645-33.1657-3.9748-.2807-8.1109-.4812-12.2787-.669-3.0984-.1416-6.2172-.2703-9.2966-.4195-2.8995-.1443-5.7644-.3005-8.5452-.4962-4.2104 10.7886-9.60508 21.5726-13.81054 32.3632z" fill="#cc955d" fill-rule="evenodd"/><g mask="url(#f)"><path clip-rule="evenodd" d="m35.7541 83.021c4.7708-11.4414 8.6635-21.1306 13.4647-33.1687 11.6201 8.6836 22.8122 17.7453 34.4327 26.4297-2.9795 10.9989-9.1951 23.6661-13.0916 32.584-13.2633-8.8835-22.2305-16.5585-34.8058-25.845z" fill="#fecb94" fill-rule="evenodd"/></g><path clip-rule="evenodd" d="m25.6974 53.5791c1.0259.0394 6.1616.8075 9.0593.7127.7301-1.7011 1.4558-3.4042 2.1815-5.1073-3.0986-.141-6.2174-.2697-9.2966-.4195-.6026 1.4886-1.1457 2.8398-1.9442 4.8141z" fill="#b3804f" fill-rule="evenodd"/><path clip-rule="evenodd" d="m14.2282 80.8889c2.9645.1131 5.9544.279 8.9267.5146.7128-1.5168 1.4256-3.0336 2.1368-4.5452-2.9232-.5635-5.7818-1.0175-8.7038-1.5851-.8201 1.7066-1.6554 3.7071-2.3597 5.6157z" fill="#b3804f" fill-rule="evenodd"/><path clip-rule="evenodd" d="m43.0893 104.343c.977 1.024 2.9944 2.581 4.0125 3.72 3.2296.241 6.3624.386 9.3962.481-1.7249-1.419-4.4497-3.239-6.1746-4.658-3.0217-.117-4.9521.467-7.2341.457z" fill="#875b37" fill-rule="evenodd"/><path clip-rule="evenodd" d="m67.1973 100.983c.8249-.655 2.075-1.3016 3.1594-1.7812.1254 1.2612.0876 2.4402-.1395 3.6212-.2872-.115-.5581-.241-.8186-.376-.3226.584-.6447 1.169-.9669 1.754-.5148-.349-1.0298-.697-1.5452-1.046.3287-.534.7425-1.049 1.1122-1.574-.2695-.192-.5356-.391-.8014-.598z" fill="#875b37" fill-rule="evenodd"/><path clip-rule="evenodd" d="m65.1648 95.7274c-.4132.4677-.8986 1.081-1.0873 1.676-.1887.5949-.0775 1.3326.4269 1.7003.546.3964 1.3518.215 1.8586-.2296.507-.4451.7862-1.0883 1.0497-1.7098-.6935-.425-1.5545-1.0114-2.2479-1.4369z" fill="#875b37" fill-rule="evenodd"/><path clip-rule="evenodd" d="m62.9499 100.047c.194.125.3875.25.5815.375.3027-.5173.6048-1.0342.9071-1.5518.1555-.2663.5373.027.3825.2909-.2961.5069-.592 1.0129-.8881 1.5199.1594.103.3186.206.4778.309.2598.167-.0323.549-.2915.382-.4868-.314-.974-.629-1.4608-.943-.2598-.167.0324-.5494.2915-.382z" fill="#875b37" fill-rule="evenodd"/><path clip-rule="evenodd" d="m21.3465 80.4129c4.8232 5.3056 10.015 10.0971 15.486 14.7251.0126.0105.0246.0208.0366.0311.4394-.0291.8762-.0578 1.3044-.0888 4.4412-.3206 9.5047-.8864 13.898-.0253.4306.0842.4944.7416.0135.8044-4.4964.5869-9.1857.1518-13.7257.4758-.0312.0023-.0627.0057-.0933.0081 4.6216 3.8757 9.331 7.7227 13.4607 12.1187.3484.371-.2554.991-.6346.64-4.6951-4.344-9.531-8.487-14.411-12.6126-3.9951.4397-8.0304 1.3433-11.9969 1.42-.5005.0098-.8387-.7332-.2628-.9319 3.3195-1.1468 7.1737-1.4644 10.8247-1.7032-.0291-.0245-.058-.0497-.0877-.0744-5.1658-4.3586-10.4203-8.8379-14.714-14.087-.47-.5746.413-1.2384.9021-.7z" fill="#1c1b3d" fill-rule="evenodd"/><path clip-rule="evenodd" d="m55.4455 87.2611c1.4382-2.6518 2.8408-5.3232 4.2079-8.0116 1.3678-2.6888 2.7007-5.3951 3.9997-8.118 1.2365-2.5938 2.2904-5.3807 3.862-7.7918.2708-.4164.8077-.0076.6992.3967-.8128 3.028-2.4137 5.9191-3.7577 8.7424-1.2962 2.7237-2.6305 5.4284-4.0008 8.1152-1.3704 2.6869-2.7761 5.3561-4.2166 8.0053-1.3298 2.4456-2.5542 5.4534-4.4464 7.5097-.3596.3915-.97.0588-.8089-.4593.9107-2.9308 2.994-5.6817 4.4616-8.3886z" fill="#313060" fill-rule="evenodd"/><path clip-rule="evenodd" d="m32.6356 49.108c.1319-.2145.5306-.0603.4703.189-1.2758 5.3029-3.8576 10.4138-5.7502 15.5261-.9809 2.6496-1.9343 5.3096-2.8605 7.9793-.9652 2.7837-1.6947 5.7776-2.9509 8.4399-.2115.4489-.997.3184-.8951-.2261 1.0268-5.4708 3.5315-10.9732 5.4554-16.1881 1.9229-5.2113 3.6079-10.9725 6.531-15.7201z" fill="#313060" fill-rule="evenodd"/><path clip-rule="evenodd" d="m31.6845 77.238c.6805-.1357 1.3741.1523 2.0411.3049.7606.1739 1.5791.2846 2.2855.6236.1747.0837.1078.3735-.0857.3729-.7831-.0041-1.568-.2628-2.3282-.4378-.6667-.1538-1.4159-.1979-1.9697-.6171-.084-.0633-.0462-.2257.057-.2465z" fill="#8c663f" fill-rule="evenodd"/><path clip-rule="evenodd" d="m28.1798 76.466c.4659-.0197.9196.0818 1.3724.1842.3927.0883.8468.1232 1.1554.3961.0606.0535.0357.1622-.0423.1841-.3972.1103-.8205-.0559-1.2126-.1484-.4518-.1059-.9047-.2121-1.3146-.4336-.0848-.0455-.0542-.1782.0417-.1824z" fill="#8c663f" fill-rule="evenodd"/><path clip-rule="evenodd" d="m34.4805 79.2784c.2251.0471.4507.1012.6731.1575.1641.0427.3145.0784.404.2074l.0348.0156c.1506.0656.0911.3251-.0733.3185-.0123-.0004-.0252-.001-.0382-.0016-.1367.0772-.2879.0439-.4533.0102-.2254-.046-.4513-.0965-.6753-.1519-.3557-.089-.2311-.632.1282-.5557z" fill="#8c663f" fill-rule="evenodd"/><path clip-rule="evenodd" d="m28.0966 77.9969c.942.0627 1.8545.2477 2.7756.4483.907.1978 1.8969.3191 2.721.7559.146.0774.0927.3088-.0721.3145-.9328.0334-1.876-.29-2.7783-.5082-.9163-.2217-1.8181-.4528-2.6923-.8082-.0965-.0395-.0573-.2089.0461-.2023z" fill="#8c663f" fill-rule="evenodd"/><path clip-rule="evenodd" d="m31.959 80.2113c1.015.3097 2.1376.4529 3.1169.8483.1893.0761.1039.3849-.0885.3845-1.0382-.003-2.1637-.4186-3.1452-.7256-.3173-.0991-.2051-.6057.1168-.5072z" fill="#8c663f" fill-rule="evenodd"/><path clip-rule="evenodd" d="m30.2375 79.732c.1254.0316.2567.0561.38.0952.0554.0178.1157.0419.1677.0693.0647.0329.1155.0904.1818.1175.157.065.0937.3402-.076.3302-.0716-.0043-.1428.0245-.2145.0269-.0596.0016-.1226-.0027-.1811-.0114-.1286-.0188-.2563-.0535-.3838-.0801-.3538-.0741-.2251-.6358.1259-.5476z" fill="#8c663f" fill-rule="evenodd"/><path clip-rule="evenodd" d="m75.4314 30.2677c3.0803-4.4683 4.327-14.5905-2.3935-16.7748-6.7207-2.1838-12.1801 10.3054-12.1801 10.3054s3.4658-1.6699 7.5148-.8396c4.0484.83 7.4331 4.8542 7.0588 7.309z" fill="#62ba03" fill-rule="evenodd"/></svg>