<svg fill="none" height="306" viewBox="0 0 323 306" width="323" xmlns="http://www.w3.org/2000/svg" xmlns:xlink="http://www.w3.org/1999/xlink"><linearGradient id="a"><stop offset="0" stop-color="#da7d8c"/><stop offset="1" stop-color="#df6d8e"/></linearGradient><linearGradient id="b" gradientUnits="userSpaceOnUse" x1="162.221" x2="172.825" xlink:href="#a" y1="193.823" y2="150.843"/><linearGradient id="c"><stop offset="0" stop-color="#cf76e6"/><stop offset="1" stop-color="#d0a2fe"/></linearGradient><linearGradient id="d" gradientUnits="userSpaceOnUse" x1="194.871" x2="128.587" xlink:href="#c" y1="256.317" y2="82.2392"/><linearGradient id="e" gradientUnits="userSpaceOnUse" x1="266.068" x2="186.772" xlink:href="#c" y1="252.896" y2="82.0566"/><linearGradient id="f" gradientUnits="userSpaceOnUse" x1="266.294" x2="271.203" xlink:href="#a" y1="194.363" y2="163.625"/><mask id="g" height="18" maskUnits="userSpaceOnUse" width="31" x="115" y="173"><path clip-rule="evenodd" d="m115.913 176.277 28.259 13.957 1.649-5.913-2.642-4.661-26.599-5.858z" fill="#fff" fill-rule="evenodd"/></mask><mask id="h" height="147" maskUnits="userSpaceOnUse" width="61" x="115" y="102"><path clip-rule="evenodd" d="m175.978 102.817-5.977 1.677-3.031.853-10.501 2.956c-7.22 2.039-13.596 6.024-18.516 11.382-2.217 2.401-4.135 5.07-5.711 7.97-.991 1.826-1.853 3.753-2.558 5.747l-14.152 40.056.695.232 8.87 2.919 18.407 6.071-.76 11.455-.733 11.113-2.688 40.623 8.824.806 20.028 1.835.251-4.708 1.352-25.21.51-9.463 1.167-21.706v-.009l.158-2.882v-.019l3.152-58.676.899-16.831v-.018l.333-6.1v-.018-.064z" fill="#fff" fill-rule="evenodd"/></mask><mask id="i" height="149" maskUnits="userSpaceOnUse" width="56" x="195" y="98"><path clip-rule="evenodd" d="m201.272 124.624-1.668 33.82-.473 9.482-1.242 25.237-.472 9.472-2.179 44.116h42.745l-.175-1.317-3.485-26.468-1.317-9.955-2.289-17.405 18.064-5.635 1.158-25.043.547-11.78.398-8.712c.288-6.274-1.371-12.299-4.54-17.396-1.818-2.939-4.135-5.561-6.869-7.73-2.15-1.724-4.56-3.161-7.192-4.263l-25.423-10.63-4.3-1.7988z" fill="#fff" fill-rule="evenodd"/></mask><mask id="j" height="70" maskUnits="userSpaceOnUse" width="68" x="147" y="15"><path clip-rule="evenodd" d="m147.721 15.8528h66.853v68.6012h-66.853z" fill="#fff" fill-rule="evenodd"/></mask><mask id="k" height="29" maskUnits="userSpaceOnUse" width="25" x="173" y="75"><path clip-rule="evenodd" d="m173.408 87.2387c1.761 6.2376 2.429 13.0683 2.668 16.7283 5.59-2.122 18.306-8.6748 21.475-25.1903.241-1.2504.343-2.2987.325-3.1695z" fill="#fff" fill-rule="evenodd"/></mask><mask id="l" height="12" maskUnits="userSpaceOnUse" width="33" x="216" y="180"><path clip-rule="evenodd" d="m216.843 184.692c5.754 4.05 21.51 8.369 31.316 6.895l.621-5.616s-17.989 2.224-31.937-5.449z" fill="#fff" fill-rule="evenodd"/></mask><path clip-rule="evenodd" d="m276.015 192.119c0 31.277-12.76 59.579-33.35 79.981-11.258 11.157-24.854 19.95-39.993 25.579-2.44.904-4.914 1.731-7.429 2.474-10.091 2.959-20.77 4.554-31.816 4.554-3.786 0-7.54-.187-11.233-.553-56.9084-5.639-101.3551-53.643-101.3551-112.035 0-62.179 50.4101-112.5882 112.5881-112.5882 62.18 0 112.588 50.4092 112.588 112.5882" fill="#edf1f7" fill-rule="evenodd"/><path clip-rule="evenodd" d="m164 242.788h46.236l-3.457-126.371-4.222-17.7988-26.564 4.1858-23.567 61.871z" fill="#fff" fill-rule="evenodd"/><path clip-rule="evenodd" d="m242.666 272.1c-11.259 11.156-24.855 19.95-39.995 25.579l-7.429-12.273v14.747c-10.09 2.959-20.769 4.554-31.815 4.554-3.787 0-7.54-.187-11.233-.554l-7.224-61.36h85.746z" fill="#313060" fill-rule="evenodd"/><path d="m184.428 269.607 17.313 26.532" stroke="#0f0f33" stroke-linecap="round" stroke-linejoin="round" stroke-width="1.087"/><path clip-rule="evenodd" d="m145.82 184.321-1.65 5.913-4.457 16.025c-1.112 4.013-3.309 7.544-6.238 10.287-2.938 2.744-6.608 4.7-10.686 5.542-5.774 1.196-11.78.056-16.719-3.169l-30.2884-19.816c-9.6587-1.242-21.3909-7.108-24.5238-13.382-3.1422-6.275.3241-11.975 2.558-10.066-1.9831-5.681 2.975-9.759 5.533-7.108-1.4833-4.626 1.566-7.276 4.7082-6.813 3.1414.455 3.3547 7.498 6.4406 10.575 3.0868 3.087 12.6611 6.395 12.6611 6.395s-.2133-8.591 1.7613-10.778c1.9831-2.179 4.2997-.242 4.1888 3.615-.1118 3.855 2.8633 11.788 2.8633 11.788l19.8159 8.277 4.124-15.33.667-2.474 26.599 5.857z" fill="#ffaea1" fill-rule="evenodd"/><g mask="url(#g)"><path clip-rule="evenodd" d="m115.913 176.277 28.259 13.957 1.649-5.913-2.642-4.661-26.599-5.858z" fill="url(#b)" fill-rule="evenodd"/></g><g mask="url(#h)"><path clip-rule="evenodd" d="m175.978 102.817-5.977 1.677-3.031.853-10.501 2.956c-7.22 2.039-13.596 6.024-18.516 11.382-2.217 2.401-4.135 5.07-5.711 7.97-.991 1.826-1.853 3.753-2.558 5.747l-14.152 40.056.695.232 8.87 2.919 18.407 6.071-.76 11.455-.733 11.113-2.688 40.623 8.824.806 20.028 1.835.251-4.708 1.352-25.21.51-9.463 1.167-21.706v-.009l.158-2.882v-.019l3.152-58.676.899-16.831v-.018l.333-6.1v-.018-.064z" fill="url(#d)" fill-rule="evenodd"/></g><g mask="url(#i)"><path clip-rule="evenodd" d="m201.272 124.624-1.668 33.82-.473 9.482-1.242 25.237-.472 9.472-2.179 44.116h42.745l-.175-1.317-3.485-26.468-1.317-9.955-2.289-17.405 18.064-5.635 1.158-25.043.547-11.78.398-8.712c.288-6.274-1.371-12.299-4.54-17.396-1.818-2.939-4.135-5.561-6.869-7.73-2.15-1.724-4.56-3.161-7.192-4.263l-25.423-10.63-4.3-1.7988z" fill="url(#e)" fill-rule="evenodd"/></g><path clip-rule="evenodd" d="m242.515 154.848c-1.158.825-2.771.556-3.596-.593l-11.382-15.904c-.397-.557-.556-1.233-.444-1.919.112-.676.482-1.27 1.047-1.668l15.895-11.382c.454-.324.973-.482 1.492-.482.278 0 .557.047.816.14-1.817-2.938-4.133-5.562-6.867-7.73-.287.158-.566.343-.835.537l-15.895 11.382c-2.576 1.836-4.281 4.569-4.791 7.693-.519 3.123.204 6.255 2.048 8.823l11.372 15.903c2.316 3.226 5.959 4.941 9.648 4.941 2.391 0 4.801-.714 6.877-2.206l2.039-1.455.547-11.78z" fill="#fff" fill-rule="evenodd"/><path clip-rule="evenodd" d="m164.162 175.637-11.371-15.895c-3.8-5.311-11.215-6.544-16.525-2.744l-15.896 11.382c-1.899 1.353-3.317 3.187-4.142 5.31l8.869 2.92c.176-.269.399-.501.667-.695l15.895-11.382c.446-.315.965-.472 1.492-.472.14 0 .288.009.427.028.676.111 1.279.482 1.678 1.046l11.371 15.896c.325.453.482.982.482 1.501 0 .807-.37 1.594-1.075 2.095l-13.29 9.508-.733 11.113c1.242-.352 2.428-.935 3.522-1.705l15.895-11.381c5.311-3.8 6.535-11.215 2.734-16.525" fill="#fff" fill-rule="evenodd"/><path clip-rule="evenodd" d="m175.998 102.891v-.019-.018c-.01-.009-.01-.019-.019-.037l-5.978 1.677-3.03.852c0 .205-.028.408-.084.613l-5.07 18.879c-.362 1.381-1.779 2.196-3.151 1.826l-18.879-5.07c-.946-.251-1.631-1.01-1.834-1.91-2.216 2.401-4.135 5.07-5.711 7.971 1.428 1.373 3.18 2.364 5.144 2.892l18.879 5.07c1.02.268 2.049.407 3.068.407 5.228 0 10.02-3.493 11.437-8.777l4.894-18.24v-.018l.175-.63c.493-1.844.52-3.708.159-5.468" fill="#fff" fill-rule="evenodd"/><path clip-rule="evenodd" d="m171.456 187.416.158-2.882c-.176.973-.222 1.928-.158 2.882m46.016-20.584c-1.574-2.734-4.133-4.7-7.182-5.515l-10.686-2.873-.473 9.482 8.749 2.344c.667.176 1.224.603 1.566 1.196.343.602.436 1.288.26 1.955l-5.06 18.88c-.186.667-.613 1.223-1.205 1.566-.593.343-1.288.436-1.956.259l-3.596-.964-.472 9.472 1.668.446c1.029.268 2.058.398 3.068.398 5.226 0 10.018-3.495 11.436-8.777l5.071-18.879c.815-3.058.398-6.247-1.188-8.99" fill="#fff" fill-rule="evenodd"/><path clip-rule="evenodd" d="m237.807 245.434c-.139-.017-.288-.046-.427-.083l-18.879-5.06c-.667-.175-1.223-.602-1.566-1.204-.343-.595-.435-1.289-.26-1.956l5.07-18.88c.306-1.149 1.353-1.909 2.484-1.909.223 0 .445.028.667.092l9.426 2.531-1.316-9.954-5.709-1.529c-6.313-1.687-12.819 2.067-14.505 8.369l-5.069 18.879c-1.206 4.514.37 9.138 3.679 12.021h26.581z" fill="#fff" fill-rule="evenodd"/><path clip-rule="evenodd" d="m158.564 218.252c.315-1.15 1.353-1.91 2.494-1.91.222 0 .444.028.667.093l8.053 2.159.51-9.462-6.162-1.65c-6.312-1.687-12.819 2.066-14.506 8.369l-5.069 18.879c-1.195 4.477.343 9.055 3.596 11.947l20.028 1.835.251-4.708-13.106-3.513c-.658-.176-1.214-.603-1.557-1.205-.343-.593-.436-1.288-.26-1.955z" fill="#fff" fill-rule="evenodd"/><path d="m143.506 182.682 1.462-45.792" stroke="#1c186b" stroke-linecap="round" stroke-linejoin="round" stroke-width="1.087"/><g mask="url(#j)"><path clip-rule="evenodd" d="m160.468 65.2941c-1.872-3.8545-2.093-13.3247-2.093-13.3247s-13.985-13.5439-9.91-19.7098c4.074-6.1667 14.425 1.3212 14.425 1.3212s-8.259-6.8277-6.167-10.4613c2.093-3.6344 16.628 6.1668 16.628 6.1668s-6.607-8.7-3.633-12.5536c2.972-3.8544 8.258 5.9467 18.059 10.2413 9.8 4.2937 17.508 5.3948 20.371 11.3415 2.863 5.9459 0 10.6814 0 10.6814s5.616-1.1011 6.387 8.4791c.771 9.5794-10.131 16.9573-11.122 23.8951-.991 6.937-13.544 0-13.544 0z" fill="#313060" fill-rule="evenodd"/></g><path clip-rule="evenodd" d="m202.557 101.771s-1.076 12.141-17.758 12.141c-7.183 0-8.583-7.266-8.583-7.266s-.027-1.01-.139-2.678c-.24-3.661-.907-10.4916-2.669-16.7291l24.469-11.6316.555-.2687c.084 6.9413 4.125 26.4324 4.125 26.4324" fill="#ffaea1" fill-rule="evenodd"/><g mask="url(#k)"><path clip-rule="evenodd" d="m173.408 87.2387c1.761 6.2376 2.429 13.0683 2.668 16.7283 5.59-2.122 18.306-8.6748 21.475-25.1903.241-1.2504.343-2.2987.325-3.1695z" fill="#da7c8c" fill-rule="evenodd"/></g><path clip-rule="evenodd" d="m197.357 54.4473c-10.819 1.3212-36.999-2.4778-36.999-2.4778s-.331 3.799 0 6.0567c.33 2.2578-1.651 8.7546-1.432 15.3615.22 6.6069.937 19.9861 12.884 21.7483 11.948 1.7613 23.895-8.7546 26.428-18.4449 2.092 2.7806 6.8.6355 7.956-3.0407s.688-7.3933-2.175-7.5579c-2.863-.1655-4.982.8811-6.166 2.9452-.051.0895-.103.1774-.153.2644-.728 1.2504-2.618.9399-2.905-.4794-.82-4.042-1.342-10.579 2.562-14.3754" fill="#ffaea1" fill-rule="evenodd"/><path d="m204.294 69.1481c-3.428-.041-4.501 3.3034-4.13 5.2857" stroke="#da7c8c" stroke-linecap="round" stroke-linejoin="round" stroke-width=".783"/><path d="m174.516 62.8162-5.435 12.0571c-.554 1.2274.002 2.6706 1.235 3.2088l2.301 1.0039" stroke="#da7c8c" stroke-linecap="round" stroke-linejoin="round" stroke-width=".783"/><path clip-rule="evenodd" d="m181.303 70.4695c0 .6994.567 1.2666 1.265 1.2666.701 0 1.268-.5672 1.268-1.2666s-.567-1.2666-1.268-1.2666c-.698 0-1.265.5672-1.265 1.2666" fill="#313060" fill-rule="evenodd"/><path clip-rule="evenodd" d="m164 70.4695c0 .6994.567 1.2666 1.266 1.2666.7 0 1.267-.5672 1.267-1.2666s-.567-1.2666-1.267-1.2666c-.699 0-1.266.5672-1.266 1.2666" fill="#313060" fill-rule="evenodd"/><path d="m187.111 66.739s-3.09-1.9823-6.583-.9494" stroke="#313060" stroke-linecap="round" stroke-width="1.087"/><path d="m167.964 65.4917s-2.312-1.6197-5.396 0" stroke="#313060" stroke-linecap="round" stroke-width="1.087"/><g clip-rule="evenodd" fill-rule="evenodd"><path d="m183.816 83.0774s-.102.6209-.463 1.4457c-.585 1.3622-1.864 3.2719-4.495 3.8929-1.196.278-2.197.0827-3.021-.3335-2.105-1.0662-3.041-3.6242-3.041-3.6242z" fill="#313060"/><path d="m183.353 84.523c-.584 1.363-1.864 3.2719-4.496 3.8928-1.195.2781-2.196.0836-3.021-.3335 1.038-2.1502 3.477-3.6514 6.322-3.6514.407 0 .806.0273 1.195.0921" fill="#e96e88"/><path d="m152.338 172.672 29.034-5.091c1.773-.31 2.958-2 2.648-3.772l-8.5-48.47c-.311-1.772-2-2.958-3.772-2.646l-29.035 5.091c-1.773.311-2.958 2-2.648 3.772l8.5 48.47c.311 1.772 2 2.958 3.773 2.646" fill="#1a2444"/><path d="m152.474 174.536 26.136-4.584c1.671-.292 2.787-1.884 2.494-3.555l-8.355-47.644c-.293-1.671-1.884-2.788-3.554-2.495l-26.137 4.583c-1.671.294-2.787 1.885-2.495 3.556l8.356 47.645c.292 1.67 1.884 2.786 3.555 2.494" fill="#3f435b"/><path d="m152.258 132.471-6.753 1.328c-.518.102-1.021-.236-1.123-.754l-1.495-7.603c-.102-.519.236-1.022.754-1.125l6.752-1.327c.52-.101 1.023.236 1.124.755l1.495 7.603c.102.519-.236 1.021-.754 1.123" fill="#1a2444"/><path d="m144.986 127.421c.112.639.722 1.068 1.363.956.64-.113 1.067-.723.956-1.363-.113-.64-.724-1.068-1.363-.956-.641.112-1.068.723-.956 1.363" fill="#e9e9e9"/><path d="m145.613 131c.112.64.722 1.068 1.362.956s1.069-.722.956-1.363c-.113-.64-.722-1.068-1.363-.955-.64.112-1.068.722-.955 1.362" fill="#e9e9e9"/><path d="m148.636 128.309c.112.639.723 1.067 1.362.956.641-.113 1.069-.723.956-1.363-.112-.64-.722-1.068-1.363-.956-.639.112-1.067.723-.955 1.363" fill="#e9e9e9"/><path d="m248.78 185.971-.621 5.615-2.613 23.756c-.426 3.874-1.956 7.432-4.31 10.342-2.345 2.911-5.506 5.154-9.194 6.385-8.147 2.717-17.128-.101-22.262-6.987l-35.47-47.536s-18.332-1.242-25.681-4.542c-7.35-3.308-6.859-9.75-1.9-9.991-4.959-1.9-5.7-6.692-4.541-9.417 1.148-2.724 6.932-2.149 6.932-2.149s-1.817-.334-3.3-3.967c-1.492-3.634.575-10.483 5.7-7.516 5.116 2.975 25.516 6.941 25.516 6.941s-.334-3.225 0-9.583c.333-6.358 3.309-5.199 5.699-4.458 2.391.741 4.124 11.233 5.701 16.349 1.566 5.125 3.8 11.567 3.8 11.567l24.607 27.832v-8.091c13.948 7.674 31.937 5.45 31.937 5.45" fill="#ffaea1"/></g><path d="m216.844 188.611 16.021 15.031" stroke="#db7c8d" stroke-linecap="round" stroke-linejoin="round" stroke-width=".783"/><path d="m111.793 191.606 16.517 6.959" stroke="#db7c8d" stroke-linecap="round" stroke-linejoin="round" stroke-width=".783"/><path d="m216.843 180.517v-43.627" stroke="#1c186b" stroke-linecap="round" stroke-linejoin="round" stroke-width="1.087"/><path d="m149.122 151.447c6.386 3.359 21.803 6.331 21.803 6.331" stroke="#da7b8c" stroke-linecap="round" stroke-linejoin="round" stroke-width=".783"/><path d="m146.727 163.009c6.249 4.019 21.995 6.111 21.995 6.111" stroke="#da7b8c" stroke-linecap="round" stroke-linejoin="round" stroke-width=".783"/><path d="m59.3496 168.546c2.7252.987 2.065 3.217 5.864 6.521s9.9103 6.111 9.9103 6.111" stroke="#da7b8c" stroke-linecap="round" stroke-linejoin="round" stroke-width=".783"/><path d="m53.8164 175.655c3.1388 1.393 2.7252 2.418 8.0936 7.026 5.3684 4.609 10.4058 5.517 10.4058 5.517" stroke="#da7b8c" stroke-linecap="round" stroke-linejoin="round" stroke-width=".783"/><path d="m83.1343 180.27c-1.1557 2.89.3309 7.019.3309 7.019" stroke="#da7b8c" stroke-linecap="round" stroke-linejoin="round" stroke-width=".783"/><g mask="url(#l)"><path clip-rule="evenodd" d="m216.843 184.692c5.754 4.05 21.51 8.369 31.316 6.895l.621-5.616s-17.989 2.224-31.937-5.449z" fill="url(#f)" fill-rule="evenodd"/></g><path clip-rule="evenodd" d="m0 86.625v22.982c0 5.86 4.30209 10.611 9.59496 10.611h24.35244l9.7253 10.782v-10.782h4.7467c5.2915 0 9.5806-4.751 9.5806-10.611v-22.982c0-5.8625-4.2891-10.625-9.5806-10.625h-38.82444c-5.29287 0-9.59496 4.7625-9.59496 10.625" fill="#64ba02" fill-rule="evenodd"/><path clip-rule="evenodd" d="m78 20.5v18.3857c0 4.6877 3.412 8.4885 7.6098 8.4885h19.3142l7.713 8.6258v-8.6258h3.765c4.196 0 7.598-3.8008 7.598-8.4885v-18.3857c0-4.69-3.402-8.5-7.598-8.5h-30.7922c-4.1978 0-7.6098 3.81-7.6098 8.5" fill="#64ba02" fill-rule="evenodd"/><path clip-rule="evenodd" d="m209 3.67044v7.93936c0 2.0242-1.483 3.6654-3.309 3.6654h-8.397l-3.354 3.7248v-3.7248h-1.636c-1.825 0-3.304-1.6412-3.304-3.6654v-7.93936c0-2.02523 1.479-3.67044 3.304-3.67044h13.387c1.826 0 3.309 1.64521 3.309 3.67044" fill="#64ba02" fill-rule="evenodd"/><path clip-rule="evenodd" d="m323 71.625v22.9822c0 5.8598-4.302 10.6108-9.595 10.6108h-24.352l-9.726 10.782v-10.782h-4.746c-5.292 0-9.581-4.751-9.581-10.6108v-22.9822c0-5.8625 4.289-10.625 9.581-10.625h38.824c5.293 0 9.595 4.7625 9.595 10.625" fill="#64ba02" fill-rule="evenodd"/></svg>